<?xml version="1.0" encoding="UTF-8" standalone="no"?>
<!DOCTYPE svg PUBLIC "-//W3C//DTD SVG 1.1//EN" "http://www.w3.org/Graphics/SVG/1.1/DTD/svg11.dtd">
<svg width="100%" height="100%" viewBox="0 0 518 518" version="1.1" xmlns="http://www.w3.org/2000/svg" xmlns:xlink="http://www.w3.org/1999/xlink" xml:space="preserve" xmlns:serif="http://www.serif.com/" style="fill-rule:evenodd;clip-rule:evenodd;stroke-linejoin:round;stroke-miterlimit:2;">
    <g transform="matrix(5.34006,0,0,5.34006,-3045.97,-775.649)">
        <g transform="matrix(3.42305,0,0,3.42305,577.826,152.676)">
            <path d="M18.5,20L5.5,20C3.019,20 1,17.981 1,15.5C1,13.322 2.555,11.462 4.698,11.076L5.477,10.936L5.52,10.146C5.705,6.699 8.551,4 12,4C15.449,4 18.295,6.699 18.479,10.146L18.522,10.936L19.302,11.076C21.444,11.462 23,13.322 23,15.5C23,17.981 20.981,20 18.5,20M19.479,10.092C19.267,6.141 16.006,3 12,3C7.994,3 4.733,6.141 4.521,10.092C1.951,10.555 0,12.798 0,15.5C0,18.537 2.463,21 5.5,21L18.5,21C21.537,21 24,18.537 24,15.5C24,12.798 22.049,10.555 19.479,10.092" style="fill:rgb(34,34,34);stroke:rgb(34,34,34);stroke-width:0.05px;"/>
        </g>
        <g transform="matrix(0.495873,0.420102,-0.429578,0.507058,421.549,-136.985)">
            <path d="M563.268,157.78C547.905,157.78 535.45,170.235 535.45,185.598C535.45,200.951 547.915,213.415 563.268,213.415C578.631,213.415 591.085,200.961 591.085,185.598L563.268,185.598L563.268,157.78Z" style="fill:rgb(34,34,34);"/>
        </g>
    </g>
</svg>
