<?xml version="1.0" encoding="utf-8"?>
<!-- Generator: Adobe Illustrator 21.0.1, SVG Export Plug-In . SVG Version: 6.00 Build 0)  -->
<svg version="1.1" id="Layer_1" xmlns="http://www.w3.org/2000/svg" xmlns:xlink="http://www.w3.org/1999/xlink" x="0px" y="0px"
	 viewBox="0 0 462 123.5" style="enable-background:new 0 0 462 123.5;" xml:space="preserve">
<style type="text/css">
	.st0{fill-rule:evenodd;clip-rule:evenodd;}
	.st1{clip-path:url(#SVGID_2_);fill:none;stroke:#000000;stroke-miterlimit:10;}
	.st2{fill-rule:evenodd;clip-rule:evenodd;fill:#B02A1B;}
	.st3{fill:none;stroke:#000000;stroke-miterlimit:10;}
</style>
<path class="st0" d="M76.1,4.6h22.8L88.1,123H58.3c-2.8-18.2-5.2-38.9-7.4-62.1l-1,0L43.2,123H13.7L2.8,4.6h22.8l2.6,41.2l2.5,40.3
	l1,0c0.9-20.7,3.1-47.9,6.7-81.4h24.5l2.6,38.9L68.3,89l1,0C70.7,60.2,72.9,32.1,76.1,4.6L76.1,4.6z M113.6,4.8h28.8l11.6,98.9H134
	l-1.1-17.5l-0.5-0.5h-7.3l-0.5,0.5l-1.2,17.5h-20.2L113.6,4.8L113.6,4.8z M124.3,68.5l0.5,0.5h7.1l0.5-0.5l-3.1-42c0,0-1,0-1,0
	L124.3,68.5L124.3,68.5z M161.7,103.7V4.8h14c9.7,0,16.2,0.5,19.5,1.4c3.3,0.9,6,3.2,8.1,7c2.1,3.8,3.2,9.9,3.2,18.4
	c0,7.8-0.8,12.9-2.2,15.4c-1.4,2.5-4.2,4-8.6,4.6l-0.1,1c4,1.3,6.6,2.9,7.9,4.9c1.4,2.1,2.2,4,2.5,5.7c0.1,0.5,0.2,1.3,0.2,1.9
	l0.2,3.1l0.1,9.7v25.8h-18.1V71c0-5.3-0.3-8.8-1.1-10.2c-0.8-1.6-2.8-2.2-5.7-2.2l-0.5,0.5v44.5H161.7L161.7,103.7z M181.7,20.9
	l-0.5,0.5v22.2l0.5,0.5c2.3,0,4.1-0.4,5.2-1.3c1.1-1,1.6-3.9,1.6-8.2v-5.5c0-3.2-0.4-5.4-1.5-6.6C185.9,21.4,184.1,20.9,181.7,20.9
	L181.7,20.9z M261.1,30.6V34H243v-6.9c0-3.4-0.2-5.8-0.8-6.8c-0.6-1.1-1.6-1.7-2.9-1.7c-1.5,0-2.5,0.8-3.3,2.2c-0.7,1.4-1,3.4-1,6
	c0,3.4,0.4,5.9,1.1,7.7c0.7,1.8,2.8,3.9,6,6.3c9.1,6.9,14.8,12.4,17.1,16.7c2.3,4.3,3.5,11.3,3.5,21.1c0,7.1-0.7,12.3-1.9,15.6
	c-1.3,3.3-3.7,6-7.4,8.2c-3.7,2.2-8,3.4-12.9,3.4c-5.4,0-10-1.3-13.8-3.9c-3.8-2.6-6.3-5.8-7.4-9.8c-1.2-4-1.8-9.7-1.8-17.2v-6h18.1
	v11.7c0,3.7,0.3,6.2,0.9,7.4c0.6,1.3,1.8,1.9,3.3,1.9c1.6,0,2.8-0.8,3.5-2.3c0.7-1.5,1.1-3.6,1.1-6.3c0-5.9-0.6-9.9-2-11.8
	c-1.3-1.9-4.6-4.9-9.7-9.2l-6.3-5.5l-2.2-2.1c-0.6-0.6-1.1-1.2-1.5-1.6c-1.6-1.9-2.9-4.5-4-7.8c-1.1-3.3-1.6-7.7-1.6-12.9
	c0-7.6,0.8-13.1,2.3-16.6c1.5-3.4,3.9-6.1,7.3-8.1c3.4-1.9,7.4-2.9,12.2-2.9c5.3,0,9.7,1.1,13.4,3.2c3.7,2.1,6.1,4.8,7.2,8
	C260.5,17.1,261.1,22.6,261.1,30.6L261.1,30.6z M300.1,4.8h19.5v98.9h-19.5V62.2l-0.5-0.5h-6.1l-0.5,0.5v41.5h-19.5V4.8H293V40
	l0.5,0.5h6.1l0.5-0.5V4.8L300.1,4.8z M332.1,4.8h19.5v98.9h-19.5V4.8L332.1,4.8z M364,103.7V4.8h20.2c5.6,0,9.8,0.6,12.7,1.6
	c2.9,1.1,5.1,2.6,6.5,4.6c1.5,2,2.5,4.5,3,7.4c0.1,0.7,0.2,1.6,0.3,2.5l0.3,3.1c0.1,2.3,0.2,5,0.2,8.1v8.7c0,6.4-0.5,10.9-1.5,13.8
	c-1,2.8-2.8,5-5.5,6.5c-2.7,1.5-6.2,2.3-10.6,2.3H384l-0.5,0.5v39.7H364L364,103.7z M384,20.9l-0.5,0.5v25.4l0.5,0.5
	c0.6,0,1.1,0.1,1.5,0.1c2,0,3.5-0.6,4.3-2c0.8-1.3,1.2-3.9,1.2-7.6v-8.2c0-3.4-0.4-5.8-1.4-7c-0.5-0.6-1.3-1-2.2-1.3
	C386.3,20.9,385.3,20.9,384,20.9L384,20.9z M459.8,30.6V34h-18.1v-6.9c0-3.4-0.2-5.8-0.8-6.8c-0.6-1.1-1.6-1.7-2.9-1.7
	c-1.5,0-2.5,0.8-3.3,2.2c-0.7,1.4-1,3.4-1,6c0,3.4,0.4,5.9,1.1,7.7c0.7,1.8,2.8,3.9,6,6.3c9.1,6.9,14.8,12.4,17.1,16.7
	c2.3,4.3,3.5,11.3,3.5,21.1c0,7.1-0.7,12.3-1.9,15.6c-1.3,3.3-3.7,6-7.4,8.2c-3.7,2.2-8,3.4-12.9,3.4c-5.4,0-10-1.3-13.8-3.9
	c-3.8-2.6-6.3-5.8-7.4-9.8c-1.2-4-1.8-9.7-1.8-17.2v-6h18.1v11.7c0,3.7,0.3,6.2,0.9,7.4c0.6,1.3,1.8,1.9,3.3,1.9
	c1.6,0,2.8-0.8,3.5-2.3c0.7-1.5,1-3.6,1-6.3c0-5.9-0.6-9.9-2-11.8c-1.3-1.9-4.6-4.9-9.7-9.2l-6.3-5.5l-2.2-2.1
	c-0.6-0.6-1.1-1.2-1.5-1.6c-1.6-1.9-2.9-4.5-4-7.8c-1.1-3.3-1.6-7.7-1.6-12.9c0-7.6,0.8-13.1,2.3-16.6c1.5-3.4,3.9-6.1,7.3-8.1
	c3.4-1.9,7.4-2.9,12.2-2.9c5.3,0,9.7,1.1,13.4,3.2c3.7,2.1,6.1,4.8,7.2,8C459.2,17.1,459.8,22.6,459.8,30.6L459.8,30.6z"/>
<g>
	<defs>
		<path id="SVGID_1_" d="M75.6,4.1h23.8L88.5,123.5H57.9c-2.8-18.3-5.3-39.2-7.4-62.6l-6.8,62.6H13.2L2.2,4.1h23.8l2.6,41.6
			l2.5,40.3c0.9-20.8,3.2-48.1,6.8-81.9h25.5l2.7,39.4l2.7,45.4C70.2,60,72.4,31.8,75.6,4.1L75.6,4.1z M113.1,4.3h29.7l11.7,99.9
			h-21l-1.1-18h-7.3l-1.2,18h-21.2L113.1,4.3z M124.8,68.5h7.1l-3.1-42L124.8,68.5L124.8,68.5z M161.2,104.2V4.3h14.5
			c9.7,0,16.2,0.5,19.7,1.4c3.4,0.9,6.2,3.4,8.4,7.3c2.2,3.9,3.2,10.1,3.2,18.6c0,7.8-0.8,13-2.3,15.7c-1.5,2.7-4.5,4.3-9,4.8
			c4.1,1.3,6.8,3,8.2,5.1c1.4,2.1,2.3,4.1,2.6,5.9c0.3,1.8,0.5,6.7,0.5,14.8v26.3h-19.1V71c0-5.3-0.3-8.7-1-9.9
			c-0.7-1.3-2.4-1.9-5.2-1.9v45H161.2L161.2,104.2z M181.7,21.4v22.2c2.3,0,3.9-0.4,4.8-1.2c0.9-0.8,1.4-3.4,1.4-7.8v-5.5
			c0-3.2-0.4-5.2-1.3-6.2C185.7,21.9,184.1,21.4,181.7,21.4L181.7,21.4z M261.6,30.6v3.9h-19.1v-7.4c0-3.5-0.2-5.7-0.7-6.6
			c-0.5-0.9-1.3-1.4-2.4-1.4c-1.2,0-2.2,0.6-2.8,1.9c-0.6,1.3-0.9,3.2-0.9,5.8c0,3.3,0.4,5.8,1.1,7.5c0.7,1.7,2.6,3.7,5.8,6.1
			c9.1,6.9,14.9,12.5,17.3,16.9c2.4,4.4,3.6,11.5,3.6,21.3c0,7.1-0.7,12.4-2,15.7c-1.3,3.4-3.9,6.2-7.6,8.5
			c-3.8,2.3-8.2,3.4-13.2,3.4c-5.5,0-10.2-1.3-14.1-4c-3.9-2.6-6.4-6-7.6-10.1c-1.2-4.1-1.8-9.9-1.8-17.3v-6.5h19.1v12.2
			c0,3.7,0.3,6.1,0.8,7.2c0.5,1.1,1.5,1.6,2.9,1.6c1.4,0,2.4-0.7,3-2c0.7-1.4,1-3.4,1-6c0-5.9-0.6-9.7-1.9-11.5
			c-1.3-1.8-4.5-4.8-9.6-9.1c-5.1-4.3-8.5-7.4-10.1-9.3c-1.7-1.9-3-4.6-4.1-8c-1.1-3.4-1.6-7.8-1.6-13.1c0-7.7,0.8-13.2,2.3-16.8
			c1.5-3.5,4-6.3,7.5-8.3c3.4-2,7.6-3,12.5-3c5.3,0,9.9,1.1,13.6,3.3c3.8,2.2,6.2,4.9,7.5,8.2C261,17,261.6,22.6,261.6,30.6
			L261.6,30.6z M299.6,4.3h20.5v99.9h-20.5v-42h-6.1v42h-20.5V4.3h20.5V40h6.1V4.3z M331.6,4.3h20.5v99.9h-20.5V4.3z M363.5,104.2
			V4.3h20.7c5.6,0,9.9,0.6,12.9,1.7c3,1.1,5.3,2.7,6.8,4.8c1.5,2.1,2.5,4.6,3.1,7.6c0.5,3,0.8,7.6,0.8,13.9v8.7
			c0,6.4-0.5,11-1.6,13.9c-1,2.9-2.9,5.2-5.7,6.7c-2.8,1.6-6.4,2.3-10.9,2.3H384v40.2H363.5L363.5,104.2z M384,21.4v25.4
			c0.6,0,1.1,0.1,1.5,0.1c1.9,0,3.2-0.6,3.9-1.8c0.7-1.2,1.1-3.6,1.1-7.3v-8.2c0-3.4-0.4-5.6-1.3-6.7
			C388.4,21.9,386.7,21.4,384,21.4L384,21.4z M460.3,30.6v3.9h-19.1v-7.4c0-3.5-0.2-5.7-0.7-6.6c-0.5-0.9-1.3-1.4-2.4-1.4
			c-1.2,0-2.2,0.6-2.8,1.9c-0.6,1.3-0.9,3.2-0.9,5.8c0,3.3,0.4,5.8,1.1,7.5c0.7,1.7,2.6,3.7,5.8,6.1c9.1,6.9,14.9,12.5,17.3,16.9
			c2.4,4.4,3.6,11.5,3.6,21.3c0,7.1-0.7,12.4-2,15.7c-1.3,3.4-3.9,6.2-7.6,8.5c-3.8,2.3-8.2,3.4-13.2,3.4c-5.5,0-10.2-1.3-14.1-4
			c-3.9-2.6-6.4-6-7.6-10.1c-1.2-4.1-1.8-9.9-1.8-17.3v-6.5h19.1v12.2c0,3.7,0.3,6.1,0.8,7.2c0.5,1.1,1.5,1.6,2.9,1.6
			c1.4,0,2.4-0.7,3-2c0.7-1.4,1-3.4,1-6c0-5.9-0.6-9.7-1.9-11.5c-1.3-1.8-4.5-4.8-9.6-9.1c-5.1-4.3-8.5-7.4-10.1-9.3
			c-1.7-1.9-3-4.6-4.1-8c-1.1-3.4-1.6-7.8-1.6-13.1c0-7.7,0.8-13.2,2.3-16.8c1.5-3.5,4-6.3,7.5-8.3c3.4-2,7.6-3,12.5-3
			c5.3,0,9.9,1.1,13.6,3.3c3.8,2.2,6.2,4.9,7.5,8.2C459.7,17,460.3,22.6,460.3,30.6L460.3,30.6z"/>
	</defs>
	<clipPath id="SVGID_2_">
		<use xlink:href="#SVGID_1_"  style="overflow:visible;"/>
	</clipPath>
	<path class="st1" d="M75.6,4.1h23.8L88.5,123.5H57.9c-2.8-18.3-5.3-39.2-7.4-62.6l-6.8,62.6H13.2L2.2,4.1h23.8l2.6,41.6l2.5,40.3
		c0.9-20.8,3.2-48.1,6.8-81.9h25.5l2.7,39.4l2.7,45.4C70.2,60,72.4,31.8,75.6,4.1L75.6,4.1z M113.1,4.3h29.7l11.7,99.9h-21l-1.1-18
		h-7.3l-1.2,18h-21.2L113.1,4.3z M124.8,68.5h7.1l-3.1-42L124.8,68.5L124.8,68.5z M161.2,104.2V4.3h14.5c9.7,0,16.2,0.5,19.7,1.4
		c3.4,0.9,6.2,3.4,8.4,7.3c2.2,3.9,3.2,10.1,3.2,18.6c0,7.8-0.8,13-2.3,15.7c-1.5,2.7-4.5,4.3-9,4.8c4.1,1.3,6.8,3,8.2,5.1
		c1.4,2.1,2.3,4.1,2.6,5.9c0.3,1.8,0.5,6.7,0.5,14.8v26.3h-19.1V71c0-5.3-0.3-8.7-1-9.9c-0.7-1.3-2.4-1.9-5.2-1.9v45H161.2
		L161.2,104.2z M181.7,21.4v22.2c2.3,0,3.9-0.4,4.8-1.2c0.9-0.8,1.4-3.4,1.4-7.8v-5.5c0-3.2-0.4-5.2-1.3-6.2
		C185.7,21.9,184.1,21.4,181.7,21.4L181.7,21.4z M261.6,30.6v3.9h-19.1v-7.4c0-3.5-0.2-5.7-0.7-6.6c-0.5-0.9-1.3-1.4-2.4-1.4
		c-1.2,0-2.2,0.6-2.8,1.9c-0.6,1.3-0.9,3.2-0.9,5.8c0,3.3,0.4,5.8,1.1,7.5c0.7,1.7,2.6,3.7,5.8,6.1c9.1,6.9,14.9,12.5,17.3,16.9
		c2.4,4.4,3.6,11.5,3.6,21.3c0,7.1-0.7,12.4-2,15.7c-1.3,3.4-3.9,6.2-7.6,8.5c-3.8,2.3-8.2,3.4-13.2,3.4c-5.5,0-10.2-1.3-14.1-4
		c-3.9-2.6-6.4-6-7.6-10.1c-1.2-4.1-1.8-9.9-1.8-17.3v-6.5h19.1v12.2c0,3.7,0.3,6.1,0.8,7.2c0.5,1.1,1.5,1.6,2.9,1.6
		c1.4,0,2.4-0.7,3-2c0.7-1.4,1-3.4,1-6c0-5.9-0.6-9.7-1.9-11.5c-1.3-1.8-4.5-4.8-9.6-9.1c-5.1-4.3-8.5-7.4-10.1-9.3
		c-1.7-1.9-3-4.6-4.1-8c-1.1-3.4-1.6-7.8-1.6-13.1c0-7.7,0.8-13.2,2.3-16.8c1.5-3.5,4-6.3,7.5-8.3c3.4-2,7.6-3,12.5-3
		c5.3,0,9.9,1.1,13.6,3.3c3.8,2.2,6.2,4.9,7.5,8.2C261,17,261.6,22.6,261.6,30.6L261.6,30.6z M299.6,4.3h20.5v99.9h-20.5v-42h-6.1
		v42h-20.5V4.3h20.5V40h6.1V4.3z M331.6,4.3h20.5v99.9h-20.5V4.3z M363.5,104.2V4.3h20.7c5.6,0,9.9,0.6,12.9,1.7
		c3,1.1,5.3,2.7,6.8,4.8c1.5,2.1,2.5,4.6,3.1,7.6c0.5,3,0.8,7.6,0.8,13.9v8.7c0,6.4-0.5,11-1.6,13.9c-1,2.9-2.9,5.2-5.7,6.7
		c-2.8,1.6-6.4,2.3-10.9,2.3H384v40.2H363.5L363.5,104.2z M384,21.4v25.4c0.6,0,1.1,0.1,1.5,0.1c1.9,0,3.2-0.6,3.9-1.8
		c0.7-1.2,1.1-3.6,1.1-7.3v-8.2c0-3.4-0.4-5.6-1.3-6.7C388.4,21.9,386.7,21.4,384,21.4L384,21.4z M460.3,30.6v3.9h-19.1v-7.4
		c0-3.5-0.2-5.7-0.7-6.6c-0.5-0.9-1.3-1.4-2.4-1.4c-1.2,0-2.2,0.6-2.8,1.9c-0.6,1.3-0.9,3.2-0.9,5.8c0,3.3,0.4,5.8,1.1,7.5
		c0.7,1.7,2.6,3.7,5.8,6.1c9.1,6.9,14.9,12.5,17.3,16.9c2.4,4.4,3.6,11.5,3.6,21.3c0,7.1-0.7,12.4-2,15.7c-1.3,3.4-3.9,6.2-7.6,8.5
		c-3.8,2.3-8.2,3.4-13.2,3.4c-5.5,0-10.2-1.3-14.1-4c-3.9-2.6-6.4-6-7.6-10.1c-1.2-4.1-1.8-9.9-1.8-17.3v-6.5h19.1v12.2
		c0,3.7,0.3,6.1,0.8,7.2c0.5,1.1,1.5,1.6,2.9,1.6c1.4,0,2.4-0.7,3-2c0.7-1.4,1-3.4,1-6c0-5.9-0.6-9.7-1.9-11.5
		c-1.3-1.8-4.5-4.8-9.6-9.1c-5.1-4.3-8.5-7.4-10.1-9.3c-1.7-1.9-3-4.6-4.1-8c-1.1-3.4-1.6-7.8-1.6-13.1c0-7.7,0.8-13.2,2.3-16.8
		c1.5-3.5,4-6.3,7.5-8.3c3.4-2,7.6-3,12.5-3c5.3,0,9.9,1.1,13.6,3.3c3.8,2.2,6.2,4.9,7.5,8.2C459.7,17,460.3,22.6,460.3,30.6
		L460.3,30.6z"/>
</g>
<g>
	<defs>
		<path id="SVGID_3_" d="M188.4,101h18.1v2.7h-18.1V101z M161.7,101h19.5v2.7h-19.5V101z M226.8,101.9c-0.4-0.3-0.9-0.6-1.3-0.9h30
			c-0.6,0.5-1.3,1-2.1,1.4c-3.7,2.2-8,3.4-12.9,3.4C235.1,105.8,230.6,104.5,226.8,101.9L226.8,101.9z M364,101h19.5v2.7H364V101z
			 M425.5,101.9c-0.4-0.3-0.9-0.6-1.3-0.9h30c-0.6,0.5-1.3,1-2.1,1.4c-3.7,2.2-8,3.4-12.9,3.4C433.8,105.8,429.2,104.5,425.5,101.9
			L425.5,101.9z M103.5,101h20.1l-0.2,2.7h-20.2L103.5,101L103.5,101z M133.8,101h19.8l0.3,2.7H134L133.8,101L133.8,101z M273.4,101
			H293v2.7h-19.5V101z M300.1,101h19.5v2.7h-19.5V101z M332.1,101h19.5v2.7h-19.5V101z"/>
	</defs>
	<clipPath id="SVGID_4_">
		<use xlink:href="#SVGID_3_"  style="overflow:visible;"/>
	</clipPath>
	<g transform="matrix(1 0 0 1 0 0)" style="clip-path:url(#SVGID_4_);">
		
			<image style="overflow:visible;" width="732" height="10" xlink:href="14D85503.jpg"  transform="matrix(0.48 0 0 0.48 103.145 101.007)">
		</image>
	</g>
</g>
<g>
	<defs>
		<path id="SVGID_5_" d="M103.2,101l-0.3,2.9h20.7l0.2-2.9h0.3l-0.2,3.2h-21.2l0.3-3.2H103.2L103.2,101z M133.6,101l0.2,2.9h20.4
			l-0.3-2.9h0.3l0.4,3.2h-21l-0.2-3.2H133.6L133.6,101z M161.4,101v2.9h20V101h0.3v3.2h-20.5V101H161.4L161.4,101z M206.7,101h0.2
			v3.2h-19.1V101h0.2v2.9h18.6V101L206.7,101z M225.1,101c0.5,0.4,1,0.8,1.5,1.1c3.8,2.6,8.5,3.9,13.9,3.9c5,0,9.3-1.1,13-3.4
			c0.9-0.5,1.6-1.1,2.4-1.6h0.4c-0.8,0.7-1.7,1.3-2.6,1.9c-3.8,2.3-8.2,3.4-13.2,3.4c-5.5,0-10.2-1.3-14.1-4
			c-0.6-0.4-1.2-0.9-1.8-1.3H225.1L225.1,101z M273.2,101v2.9h20V101h0.3v3.2h-20.5V101H273.2L273.2,101z M299.8,101v2.9h20V101h0.2
			v3.2h-20.5V101H299.8L299.8,101z M331.8,101v2.9h20V101h0.3v3.2h-20.5V101H331.8L331.8,101z M363.8,101v2.9h20V101h0.3v3.2h-20.5
			V101H363.8L363.8,101z M452.3,102.6c0.9-0.5,1.6-1.1,2.4-1.6h0.4c-0.8,0.7-1.7,1.3-2.6,1.9c-3.8,2.3-8.2,3.4-13.2,3.4
			c-5.5,0-10.2-1.3-14.1-4c-0.6-0.4-1.2-0.9-1.8-1.3h0.4c0.5,0.4,1,0.8,1.5,1.1c3.8,2.6,8.5,3.9,13.9,3.9
			C444.2,106,448.5,104.9,452.3,102.6L452.3,102.6z"/>
	</defs>
	<clipPath id="SVGID_6_">
		<use xlink:href="#SVGID_5_"  style="overflow:visible;"/>
	</clipPath>
	<g transform="matrix(1 0 0 1 0 0)" style="clip-path:url(#SVGID_6_);">
		
			<image style="overflow:visible;" width="736" height="11" xlink:href="14D85501.jpg"  transform="matrix(0.48 0 0 0.48 102.185 101.007)">
		</image>
	</g>
</g>
<g>
	<defs>
		<path id="SVGID_7_" d="M154.2,103.9h-20.4l-0.2-2.9h0.3l0.2,2.7h19.9l-0.3-2.7h0.3L154.2,103.9L154.2,103.9z M123.6,103.9h-20.7
			l0.3-2.9h0.3l-0.3,2.7h20.2l0.2-2.7h0.3L123.6,103.9L123.6,103.9z M161.4,103.9V101h0.2v2.7h19.5V101h0.3v2.9H161.4L161.4,103.9z
			 M206.7,103.9h-18.6V101h0.3v2.7h18.1V101h0.3V103.9L206.7,103.9z M253.6,102.6c-3.7,2.3-8.1,3.4-13,3.4c-5.4,0-10.1-1.3-13.9-3.9
			c-0.5-0.4-1-0.7-1.5-1.1h0.4c0.4,0.3,0.8,0.6,1.3,0.9c3.8,2.6,8.4,3.9,13.8,3.9c4.9,0,9.2-1.1,12.9-3.4c0.7-0.5,1.4-0.9,2.1-1.4
			h0.4C255.2,101.6,254.4,102.1,253.6,102.6L253.6,102.6z M319.9,103.9h-20V101h0.2v2.7h19.5V101h0.3V103.9L319.9,103.9z
			 M293.2,103.9h-20V101h0.3v2.7H293V101h0.3V103.9L293.2,103.9z M351.8,103.9h-20V101h0.2v2.7h19.5V101h0.2V103.9L351.8,103.9z
			 M363.8,103.9V101h0.3v2.7h19.5V101h0.2v2.9H363.8L363.8,103.9z M452.3,102.6c-3.7,2.3-8.1,3.4-13,3.4c-5.4,0-10.1-1.3-13.9-3.9
			c-0.5-0.4-1-0.7-1.5-1.1h0.4c0.4,0.3,0.8,0.6,1.3,0.9c3.8,2.6,8.4,3.9,13.8,3.9c4.9,0,9.2-1.1,12.9-3.4c0.7-0.5,1.4-0.9,2.1-1.4
			h0.4C453.9,101.6,453.1,102.1,452.3,102.6L452.3,102.6z"/>
	</defs>
	<clipPath id="SVGID_8_">
		<use xlink:href="#SVGID_7_"  style="overflow:visible;"/>
	</clipPath>
	<g transform="matrix(1 0 0 1 0 0)" style="clip-path:url(#SVGID_8_);">
		
			<image style="overflow:visible;" width="734" height="11" xlink:href="14D85507.jpg"  transform="matrix(0.48 0 0 0.48 102.665 101.007)">
		</image>
	</g>
</g>
<path class="st2" d="M74.1,2.7h23.3L86.6,121.6H56.4c-2.8-18.3-5.2-39.1-7.4-62.4l-0.5,0l-6.8,62.4h-30L0.8,2.7h23.3l2.6,41.4
	l2.5,40.3l0.5,0c0.9-20.8,3.2-48,6.8-81.7h25l2.7,39.1l2.7,45.4l0.5,0C68.7,58.5,71,30.3,74.1,2.7L74.1,2.7z M111.6,2.8h29.2
	l11.7,99.4h-20.4L131,84.5l-0.2-0.2h-7.3l-0.3,0.2l-1.2,17.7h-20.7L111.6,2.8L111.6,2.8z M122.9,66.8l0.2,0.3h7.1l0.2-0.3l-3.1-42
	c0,0-0.5,0-0.5,0L122.9,66.8L122.9,66.8z M159.7,102.3V2.8H174c9.7,0,16.2,0.5,19.6,1.4c3.3,0.9,6.1,3.3,8.2,7.1
	c2.1,3.8,3.2,10,3.2,18.5c0,7.8-0.8,12.9-2.3,15.5c-1.5,2.6-4.4,4.2-8.8,4.7l0,0.5c4,1.3,6.7,3,8.1,5c1.4,2.1,2.2,4.1,2.6,5.8
	c0.1,0.5,0.2,1.4,0.2,1.9l0.2,3.1l0.1,9.7v26.1h-18.6V69.3c0-5.3-0.3-8.7-1-10.1c-0.7-1.4-2.6-2-5.5-2l-0.3,0.3v44.8H159.7
	L159.7,102.3z M180,19.4l-0.3,0.3v22.2l0.3,0.2c2.3,0,4-0.4,5-1.3c1-0.9,1.5-3.6,1.5-8v-5.5c0-3.2-0.4-5.3-1.4-6.4
	C184.1,19.9,182.4,19.4,180,19.4L180,19.4z M259.6,28.9v3.7h-18.6v-7.2c0-3.4-0.2-5.7-0.8-6.7c-0.5-1-1.4-1.6-2.7-1.6
	c-1.3,0-2.4,0.7-3,2.1c-0.7,1.3-1,3.3-1,5.9c0,3.3,0.4,5.9,1.1,7.6c0.7,1.8,2.7,3.8,5.9,6.2c9.1,6.9,14.8,12.5,17.2,16.8
	c2.3,4.3,3.5,11.4,3.5,21.2c0,7.1-0.7,12.3-2,15.6c-1.3,3.3-3.8,6.1-7.5,8.4c-3.7,2.3-8.1,3.4-13,3.4c-5.4,0-10.1-1.3-13.9-3.9
	c-3.8-2.6-6.3-5.9-7.5-9.9c-1.2-4-1.8-9.8-1.8-17.3V67h18.6v11.9c0,3.7,0.3,6.2,0.8,7.3c0.6,1.2,1.6,1.7,3.1,1.7
	c1.5,0,2.6-0.7,3.3-2.2c0.7-1.4,1-3.5,1-6.2c0-5.9-0.6-9.8-1.9-11.7c-1.3-1.8-4.5-4.9-9.6-9.1l-6.4-5.5l-2.2-2.1
	c-0.6-0.6-1.1-1.2-1.5-1.7c-1.6-1.9-3-4.5-4.1-7.9c-1.1-3.4-1.6-7.7-1.6-13c0-7.6,0.8-13.2,2.3-16.7c1.5-3.5,4-6.2,7.4-8.2
	c3.4-2,7.5-3,12.3-3c5.3,0,9.8,1.1,13.5,3.2c3.7,2.2,6.2,4.9,7.3,8.1C259,15.4,259.6,20.9,259.6,28.9L259.6,28.9z M298.1,2.8h20
	v99.4h-20V60.5l-0.3-0.3h-6.1l-0.2,0.3v41.7h-20V2.8h20v35.5l0.2,0.3h6.1l0.3-0.3V2.8L298.1,2.8z M330.1,2.8h20v99.4h-20V2.8
	L330.1,2.8z M362.1,102.3V2.8h20.4c5.6,0,9.8,0.6,12.8,1.7c3,1.1,5.2,2.7,6.7,4.7c1.5,2.1,2.5,4.6,3,7.5c0.1,0.7,0.3,1.6,0.3,2.5
	l0.3,3.2c0.1,2.3,0.2,5,0.2,8.1v8.7c0,6.4-0.5,11-1.5,13.9c-1,2.9-2.9,5.1-5.6,6.6c-2.7,1.5-6.3,2.3-10.8,2.3h-5.5l-0.3,0.3v40
	H362.1L362.1,102.3z M382.3,19.4l-0.3,0.3v25.4l0.2,0.2c0.6,0,1.1,0.1,1.5,0.1c1.9,0,3.3-0.6,4.1-1.9c0.8-1.2,1.1-3.8,1.1-7.4v-8.2
	c0-3.4-0.4-5.7-1.3-6.8c-0.5-0.6-1.2-1-2.1-1.2C384.6,19.5,383.5,19.4,382.3,19.4L382.3,19.4z M458.3,28.9v3.7h-18.6v-7.2
	c0-3.4-0.2-5.7-0.8-6.7c-0.5-1-1.4-1.6-2.7-1.6c-1.3,0-2.4,0.7-3,2.1c-0.7,1.3-1,3.3-1,5.9c0,3.3,0.4,5.9,1.1,7.6
	c0.7,1.8,2.7,3.8,5.9,6.2c9.1,6.9,14.8,12.5,17.2,16.8c2.3,4.3,3.5,11.4,3.5,21.2c0,7.1-0.7,12.3-2,15.6c-1.3,3.3-3.8,6.1-7.5,8.4
	c-3.7,2.3-8.1,3.4-13,3.4c-5.4,0-10.1-1.3-13.9-3.9c-3.8-2.6-6.3-5.9-7.5-9.9c-1.2-4-1.8-9.8-1.8-17.3V67h18.6v11.9
	c0,3.7,0.3,6.2,0.8,7.3c0.6,1.2,1.6,1.7,3.1,1.7c1.5,0,2.6-0.7,3.3-2.2c0.7-1.4,1-3.5,1-6.2c0-5.9-0.6-9.8-1.9-11.7
	c-1.3-1.8-4.5-4.9-9.6-9.1l-6.4-5.5l-2.2-2.1c-0.6-0.6-1.1-1.2-1.6-1.7c-1.6-1.9-3-4.5-4.1-7.9c-1.1-3.4-1.6-7.7-1.6-13
	c0-7.6,0.8-13.2,2.3-16.7c1.5-3.5,4-6.2,7.4-8.2c3.4-2,7.5-3,12.3-3c5.3,0,9.8,1.1,13.5,3.2c3.7,2.2,6.2,4.9,7.3,8.1
	C457.7,15.4,458.3,20.9,458.3,28.9L458.3,28.9z"/>
<path class="st3" d="M73.9,2.5h23.8L86.8,121.8H56.2c-2.8-18.3-5.3-39.2-7.4-62.6L42,121.8H11.5L0.5,2.5h23.8L27,44.1l2.5,40.3
	c0.9-20.8,3.2-48.1,6.8-81.9h25.5l2.7,39.4l2.7,45.4C68.5,58.4,70.7,30.1,73.9,2.5L73.9,2.5z M111.4,2.6h29.7l11.7,99.9h-21l-1.1-18
	h-7.3l-1.2,18h-21.2L111.4,2.6z M123.1,66.8h7.1l-3.1-42L123.1,66.8L123.1,66.8z M159.5,102.5V2.6H174c9.7,0,16.2,0.5,19.7,1.4
	c3.4,0.9,6.2,3.4,8.4,7.2c2.2,3.9,3.2,10.1,3.2,18.6c0,7.8-0.8,13-2.3,15.7c-1.5,2.7-4.5,4.3-9,4.8c4.1,1.3,6.8,3,8.2,5.1
	c1.4,2.1,2.3,4.1,2.6,5.9c0.3,1.8,0.5,6.7,0.5,14.8v26.3h-19.1V69.3c0-5.3-0.3-8.7-1-9.9c-0.7-1.3-2.4-1.9-5.2-1.9v45H159.5
	L159.5,102.5z M180,19.7v22.2c2.3,0,3.9-0.4,4.8-1.2c0.9-0.8,1.4-3.4,1.4-7.8v-5.5c0-3.2-0.4-5.2-1.3-6.2
	C184,20.2,182.4,19.7,180,19.7L180,19.7z M259.9,28.9v3.9h-19.1v-7.4c0-3.5-0.2-5.7-0.7-6.6c-0.5-0.9-1.3-1.4-2.4-1.4
	c-1.2,0-2.2,0.6-2.8,1.9c-0.6,1.3-1,3.2-1,5.8c0,3.3,0.4,5.8,1.1,7.5c0.7,1.7,2.6,3.7,5.8,6.1c9.1,6.9,14.9,12.5,17.3,16.9
	c2.4,4.4,3.6,11.5,3.6,21.3c0,7.1-0.7,12.4-2,15.7s-3.9,6.2-7.6,8.5c-3.8,2.3-8.2,3.4-13.2,3.4c-5.5,0-10.2-1.3-14.1-3.9
	c-3.9-2.6-6.4-6-7.6-10.1c-1.2-4.1-1.8-9.9-1.8-17.3v-6.5h19.1v12.2c0,3.7,0.3,6.2,0.8,7.2c0.5,1.1,1.5,1.6,2.9,1.6
	c1.4,0,2.4-0.7,3-2c0.7-1.4,1-3.4,1-6c0-5.9-0.6-9.7-1.9-11.5c-1.3-1.8-4.5-4.8-9.6-9.1c-5.1-4.3-8.5-7.4-10.1-9.3
	c-1.7-1.9-3-4.6-4.1-8c-1.1-3.4-1.6-7.8-1.6-13.1c0-7.7,0.8-13.2,2.3-16.8c1.5-3.5,4-6.3,7.5-8.3c3.4-2,7.6-3,12.5-3
	c5.3,0,9.9,1.1,13.6,3.3c3.8,2.2,6.2,4.9,7.5,8.2C259.3,15.3,259.9,20.9,259.9,28.9L259.9,28.9z M297.9,2.6h20.5v99.9h-20.5v-42
	h-6.1v42h-20.5V2.6h20.5v35.7h6.1V2.6z M329.9,2.6h20.5v99.9h-20.5V2.6z M361.8,102.5V2.6h20.7c5.6,0,9.9,0.6,12.9,1.7
	c3,1.1,5.3,2.7,6.8,4.8c1.5,2.1,2.5,4.6,3.1,7.6c0.5,3,0.8,7.6,0.8,13.9v8.7c0,6.4-0.5,11-1.6,13.9c-1,2.9-2.9,5.2-5.7,6.7
	c-2.8,1.6-6.4,2.3-10.9,2.3h-5.5v40.2H361.8L361.8,102.5z M382.3,19.7v25.4c0.6,0,1.1,0.1,1.5,0.1c1.9,0,3.2-0.6,3.9-1.8
	c0.7-1.2,1.1-3.6,1.1-7.3v-8.2c0-3.4-0.4-5.6-1.3-6.7C386.7,20.2,385,19.7,382.3,19.7L382.3,19.7z M458.6,28.9v3.9h-19.1v-7.4
	c0-3.5-0.2-5.7-0.7-6.6c-0.5-0.9-1.3-1.4-2.4-1.4c-1.2,0-2.2,0.6-2.8,1.9c-0.6,1.3-1,3.2-1,5.8c0,3.3,0.4,5.8,1.1,7.5
	c0.7,1.7,2.6,3.7,5.8,6.1c9.1,6.9,14.9,12.5,17.3,16.9c2.4,4.4,3.6,11.5,3.6,21.3c0,7.1-0.7,12.4-2,15.7c-1.3,3.4-3.9,6.2-7.6,8.5
	c-3.8,2.3-8.2,3.4-13.2,3.4c-5.5,0-10.2-1.3-14.1-3.9c-3.9-2.6-6.4-6-7.6-10.1c-1.2-4.1-1.8-9.9-1.8-17.3v-6.5h19.1v12.2
	c0,3.7,0.3,6.2,0.8,7.2c0.5,1.1,1.5,1.6,2.9,1.6c1.4,0,2.4-0.7,3-2c0.7-1.4,1-3.4,1-6c0-5.9-0.6-9.7-1.9-11.5
	c-1.3-1.8-4.5-4.8-9.6-9.1c-5.1-4.3-8.5-7.4-10.1-9.3c-1.7-1.9-3-4.6-4.1-8c-1.1-3.4-1.6-7.8-1.6-13.1c0-7.7,0.8-13.2,2.3-16.8
	c1.5-3.5,4-6.3,7.5-8.3c3.4-2,7.6-3,12.5-3c5.3,0,9.9,1.1,13.6,3.3c3.8,2.2,6.2,4.9,7.5,8.2C458,15.3,458.6,20.9,458.6,28.9
	L458.6,28.9z"/>
<path d="M448.3,119.5"/>
<path d="M445.2,119.3c0.6-3.2,1.3-6.5,1.9-9.8l5,0c0.7,3.2,1.4,6.6,2.1,10c0.7-3.5,1.3-6.7,1.9-10c1.3,0,2.6,0,3.9,0
	c-1.1,4.4-2.2,8.8-3.3,13.2c-1.6,0-3.3,0-5.1,0l-2.2-9.5l-1.8,9.5c-1.8,0-3.5,0-5.3,0c-0.5-2.3-1.1-4.5-1.6-6.7
	c-0.5-2.2-1.1-4.3-1.6-6.5c1.4,0,2.7,0,4,0L445.2,119.3z"/>
<path d="M119.3,117.9c0.1,0.2,0.2,0.3,0.4,0.5l-0.1-8.8c1.2,0,2.4,0,3.7,0c0,4.4,0,8.8,0,13.3c-1.6,0-3.3,0-4.9,0
	c-1.6-2.9-3.3-5.8-4.9-8.7c-0.1,0-0.1,0-0.2,0c0,2.1,0,6.6,0,8.7h-3.5c0-4.4,0-8.8,0-13.2c1.6,0,3.2,0,4.9,0
	c0.6,0.4,0.7,1.1,1.1,1.7L119.3,117.9z"/>
<path d="M179.1,117.9c0.1,0.2,0.2,0.3,0.4,0.5l-0.1-8.8c1.2,0,2.4,0,3.7,0c0,4.4,0,8.8,0,13.3c-1.6,0-3.3,0-4.9,0
	c-1.6-2.9-3.3-5.8-4.9-8.7c-0.1,0-0.1,0-0.2,0c0,2.1,0,6.6,0,8.7h-3.5c0-4.4,0-8.8,0-13.2c1.6,0,3.2,0,4.9,0
	c0.6,0.4,0.7,1.1,1.1,1.7L179.1,117.9z"/>
<path d="M251.5,117.7c0.1,0.2,0.2,0.3,0.4,0.5l-0.1-8.8c1.2,0,2.4,0,3.7,0c0,4.4,0,8.8,0,13.3c-1.6,0-3.3,0-4.9,0
	c-1.6-2.9-3.3-5.8-4.9-8.7c-0.1,0-0.1,0-0.2,0c0,2.1,0,6.6,0,8.7H242c0-4.4,0-8.8,0-13.2c1.6,0,3.2,0,4.9,0c0.6,0.4,0.7,1.1,1.1,1.7
	L251.5,117.7z"/>
<path d="M158,122.9c-1.4,0-2.7,0-4,0c0-4.4,0-8.8,0-13.3c0.3,0,0.7,0,1.1,0c2.2,0,4.4,0,6.5,0c1.8,0,3.5,0.6,4.2,2.3
	c0.9,2.5-0.8,4-2.6,4.3c1.3,0.8,1.5,2.2,2.1,3.4c0.2,0.7,0.4,1.2,0.6,1.7c0.2,0.5,0.4,0.9,0.6,1.5c-0.7,0-1.4,0-2.1,0
	c-0.7,0-1.4,0-2.1,0c-0.3-0.8-0.5-1.6-0.8-2.3c-0.2-0.6-0.4-1.3-0.8-1.8c-0.6-0.9-1.5-1.4-2.7-1.1C158,119.3,158,121.1,158,122.9z
	 M158,112.1c0,1,0,2,0,3c1.3-0.1,3.1,0.3,3.7-1.1c0.1-0.2,0.1-0.5,0-0.7C161.1,112,159.4,112,158,112.1z"/>
<path d="M376.2,122.9c-1.4,0-2.7,0-4,0c0-4.4,0-8.8,0-13.3c0.3,0,0.7,0,1.1,0c2.2,0,4.4,0,6.5,0c1.8,0,3.5,0.6,4.2,2.3
	c0.9,2.5-0.8,4-2.6,4.3c1.3,0.8,1.5,2.2,2.1,3.4c0.2,0.7,0.4,1.2,0.6,1.7c0.2,0.5,0.4,0.9,0.6,1.5c-0.7,0-1.4,0-2.1,0
	c-0.7,0-1.4,0-2.1,0c-0.3-0.8-0.5-1.6-0.8-2.3c-0.2-0.6-0.4-1.3-0.8-1.8c-0.6-0.9-1.5-1.4-2.7-1.1
	C376.2,119.3,376.2,121.1,376.2,122.9z M376.2,112.1c0,1,0,2,0,3c1.3-0.1,3.1,0.3,3.7-1.1c0.1-0.2,0.1-0.5,0-0.7
	C379.3,112,377.5,112,376.2,112.1z"/>
<path d="M202,122.8c-1.5,0-2.9,0-4.4,0c-0.4-0.9-0.7-1.8-1.1-2.7c-1.9,0-3.7,0-5.5,0c-0.4,0.9-0.8,1.8-1.2,2.7c-1.3,0-2.6,0-3.9,0
	l5.6-13.2c1.6,0,3.2,0,4.9,0L202,122.8z M193.8,112.4c-0.7,1.8-1.3,3.5-1.9,5.2c1.1,0,2.4,0,3.6,0L193.8,112.4z"/>
<path d="M274.4,122.8c-1.5,0-2.9,0-4.4,0c-0.4-0.9-0.7-1.8-1.1-2.7c-1.9,0-3.7,0-5.5,0c-0.4,0.9-0.8,1.8-1.2,2.7c-1.3,0-2.6,0-3.9,0
	l5.6-13.2c1.6,0,3.2,0,4.9,0L274.4,122.8z M266.2,112.4c-0.7,1.8-1.3,3.5-1.9,5.2c1.1,0,2.4,0,3.6,0L266.2,112.4z"/>
<path d="M144,120.4c2.1,0,4.3,0,6.5,0c0,0.8,0,1.6,0,2.5c-3.5,0-7,0-10.5,0c0-4.4,0-8.8,0-13.2c3.4,0,6.8,0,10.2,0
	c0,0.8,0,1.6,0,2.4c-2.1,0-4.1,0-6.2,0c0,1,0,1.9,0,2.8c2,0,3.9,0,6,0c0,0.9,0,1.7,0,2.5c-2,0-3.9,0-5.9,0L144,120.4z"/>
<path d="M333.6,112.1c-2.1,0-4.1,0-6.2,0c0,0.9,0,1.8,0,2.7c2,0,4,0,6,0c0,0.9,0,1.7,0,2.5c-2,0-3.9,0-6,0c0,0.5,0,1,0,1.5
	c0,0.5,0,1,0,1.5c2.2,0,4.3,0,6.5,0c0,0.9,0,1.7,0,2.5c-3.5,0-6.9,0-10.4,0c0-4.4,0-8.8,0-13.3c3.4,0,6.8,0,10.2,0
	C333.6,110.4,333.6,111.2,333.6,112.1z"/>
<path d="M337.5,122.8c0-4.4,0-8.8,0-13.2c3.4,0,6.8,0,10.2,0c0,0.8,0,1.6,0,2.5c-2.1,0-4.1,0-6.2,0c0,0.9,0,1.8,0,2.7c0,0,0,0,0,0
	c0,0,0.1,0,0.1,0c1.9,0,3.8,0,5.8,0c0,0.8,0,1.6,0,2.5c-2,0-3.9,0-6,0c0,1,0,2,0,3c2.1,0,4.3,0,6.5,0c0,0.9,0,1.7,0,2.5
	C344.5,122.8,341.1,122.8,337.5,122.8z"/>
<path d="M391.5,117.4c0,1,0,1.9,0,3c2.2,0,4.3,0,6.5,0c0,0.8,0,1.6,0,2.5c-3.5,0-7,0-10.5,0c0-4.4,0-8.8,0-13.2c3.4,0,6.8,0,10.2,0
	c0,0.3,0,0.7,0,1.1c0,0.4,0,0.8,0,1.3c-2.1,0-4.1,0-6.2,0c0,0.9,0,1.8,0,2.8c2,0,3.9,0,5.9,0c0,0.9,0,1.7,0,2.6
	C395.5,117.4,393.5,117.4,391.5,117.4z"/>
<path d="M436.7,122.9c-3.5,0-7,0-10.5,0c0-4.4,0-8.8,0-13.2c3.4,0,6.8,0,10.2,0c0,0.8,0,1.6,0,2.4c-2,0-4.1,0-6.2,0
	c0,0.5,0,0.9,0,1.4c0,0.5,0,0.9,0,1.4c2,0,4,0,6,0c0,0.9,0,1.7,0,2.5c-2,0-3.9,0-5.9,0c0,1,0,2,0,3c2.1,0,4.3,0,6.4,0
	C436.7,121.2,436.7,122,436.7,122.9z"/>
<path d="M400.5,109.6c1.5,0,2.9,0,4.3,0c1.1,3.4,2.1,6.8,3.3,10.4c1.1-3.5,2.2-6.9,3.3-10.4c1.4,0,2.7,0,4.1,0
	c-1.7,4.5-3.4,8.9-5,13.2c-1.7,0-3.3,0-5,0C403.8,118.5,402.1,114.1,400.5,109.6z"/>
<path d="M297.5,109.6c3.3,0,6.5,0,9.7,0c0,0.8,0,1.6,0,2.4c-1.8,0.1-3.8,0-5.7,0.1c0,1,0,1.9,0,3c1.8,0,3.6,0,5.4,0
	c0,0.8,0,1.6,0,2.5c-1.8,0-3.6,0-5.4,0c0,1.8,0,3.5,0,5.3c-1.4,0-2.7,0-4,0C297.5,118.5,297.5,114.1,297.5,109.6z"/>
<path d="M137.3,112.3c-1,0-2.5,0-3.7,0c0,3.5,0,7,0,10.5c-1.3,0-2.5,0-3.8,0c0-3.5,0-7,0-10.5l-3.8,0c0-0.9,0-1.8,0-2.8
	c1.8,0,3.7,0,5.5,0c1.9,0,3.8,0,5.7,0V112.3z"/>
<path d="M213.2,112.3c-1,0-2.5,0-3.7,0c0,3.5,0,7,0,10.5c-1.3,0-2.5,0-3.8,0c0-3.5,0-7,0-10.5l-3.8,0c0-0.9,0-1.8,0-2.8
	c1.8,0,3.7,0,5.5,0c1.9,0,3.8,0,5.7,0V112.3z"/>
<path d="M361.8,112.3c-1,0-2.5,0-3.7,0c0,3.5,0,7,0,10.5c-1.3,0-2.5,0-3.8,0c0-3.5,0-7,0-10.5l-3.8,0c0-0.9,0-1.8,0-2.8
	c1.8,0,3.7,0,5.5,0c1.9,0,3.8,0,5.7,0V112.3z"/>
<path d="M287.2,122.8c-3.3,0-6.6,0-10,0c0-4.4,0-8.8,0-13.2c1.2,0,2.4,0,3.7,0l0,10.5c2,0,4.3,0,6.3,0V122.8z"/>
<path d="M320.8,122.8c-3.3,0-6.6,0-10,0c0-4.4,0-8.8,0-13.2c1.2,0,2.4,0,3.7,0l0,10.5c2,0,4.3,0,6.3,0V122.8z"/>
<path d="M101.5,109.6c1.3,0,2.6,0,3.9,0c0,4.4,0,8.8,0,13.3c-0.6,0.1-1.3,0-1.9,0c-0.7,0-1.3,0-2,0
	C101.5,118.5,101.5,114.1,101.5,109.6z"/>
<path d="M216.1,109.6c1.3,0,2.6,0,3.9,0c0,4.4,0,8.8,0,13.3c-0.6,0-1.3,0-1.9,0c-0.7,0-1.3,0-2,0
	C216.1,118.5,216.1,114.1,216.1,109.6z"/>
<path d="M422.4,122.9c-1.3,0-2.6,0-3.9,0c0-4.4,0-8.8,0-13.3c0.6,0,1.3,0,1.9,0c0.7,0,1.3,0,2,0C422.4,114,422.4,118.4,422.4,122.9z
	"/>
<path d="M231,109c-5.1,0-7.6,3.2-7.6,7.1s2.5,7.1,7.6,7.1c4.9,0,7.6-3.2,7.6-7.1S235.8,109,231,109z M231,120.5
	c-2.6,0-3.4-2-3.4-4.5c0-2.5,1.1-4.5,3.4-4.5c2.5,0,3.4,2,3.4,4.5C234.4,118.5,233.6,120.5,231,120.5z"/>
</svg>
