<?xml version="1.0" encoding="utf-8"?>
<!-- Generator: Adobe Illustrator 15.0.2, SVG Export Plug-In . SVG Version: 6.00 Build 0)  -->
<!DOCTYPE svg PUBLIC "-//W3C//DTD SVG 1.1//EN" "http://www.w3.org/Graphics/SVG/1.1/DTD/svg11.dtd">
<svg version="1.1" id="Layer_1" xmlns="http://www.w3.org/2000/svg" xmlns:xlink="http://www.w3.org/1999/xlink" x="0px" y="0px"
	 width="352px" height="89px" viewBox="0 0 352 89" enable-background="new 0 0 352 89" xml:space="preserve">
<g>
	<path fill="#EC1C24" d="M0,69.013V45.906h2.177c0.698,5.51,3.001,10.084,6.91,13.722c3.909,3.638,8.402,5.457,13.484,5.457
		c3.266,0,5.911-0.828,7.935-2.488c2.024-1.658,3.037-3.797,3.037-6.418c0-4.017-4.774-8.295-14.322-12.831l-0.126-0.046
		c-0.586-0.273-1.465-0.685-2.638-1.233c-6.59-3.044-10.986-6.195-13.192-9.453c-0.977-1.461-1.716-3.021-2.219-4.682
		c-0.502-1.659-0.754-3.402-0.754-5.228c0-5.846,2.031-10.671,6.093-14.477c4.063-3.805,9.262-5.708,15.6-5.708
		c3.434,0,7.021,0.747,10.762,2.238c3.741,1.492,5.779,2.238,6.114,2.238c0.949,0,1.62-0.312,2.01-0.936
		c0.392-0.624,0.642-1.773,0.754-3.448h2.304V22.98h-1.968c-0.811-4.841-2.939-8.775-6.387-11.805
		c-3.448-3.029-7.49-4.544-12.123-4.544c-2.904,0-5.235,0.724-6.993,2.17c-1.759,1.446-2.638,3.341-2.638,5.685
		c0,3.41,3.699,6.79,11.097,10.138c0.391,0.183,0.698,0.32,0.921,0.411c5.304,2.436,9.01,4.301,11.119,5.595
		c2.107,1.294,3.691,2.58,4.753,3.859c1.619,1.917,2.84,4.011,3.665,6.279c0.823,2.268,1.235,4.695,1.235,7.285
		c0,6.209-2.073,11.271-6.218,15.184c-4.146,3.91-9.541,5.867-16.186,5.867c-3.77,0-7.685-0.715-11.747-2.145
		c-4.063-1.433-6.261-2.149-6.596-2.149c-0.977,0-1.779,0.367-2.407,1.1c-0.628,0.729-0.999,1.764-1.11,3.104H0z"/>
	<path fill="#EC1C24" d="M51.3,67.506v-2.146c1.73-0.457,2.965-1.256,3.706-2.397c0.739-1.141,1.109-2.809,1.109-5V13.893
		c0-2.435-0.37-4.239-1.109-5.412c-0.741-1.172-1.976-1.91-3.706-2.215V4.074h19.891V27.09c2.4-2.222,4.697-3.866,6.889-4.932
		c2.192-1.065,4.39-1.598,6.596-1.598c3.908,0,6.812,1.393,8.711,4.178c1.897,2.786,2.847,7.041,2.847,12.765v19.225
		c0,2.832,0.363,4.888,1.089,6.167c0.726,1.277,1.967,2.1,3.727,2.465v2.146H77.724v-2.146c1.256-0.395,2.142-1.171,2.659-2.329
		c0.516-1.155,0.775-3.122,0.775-5.893V35.996c0-3.166-0.273-5.236-0.817-6.211c-0.544-0.974-1.542-1.461-2.994-1.461
		c-0.894,0-1.864,0.342-2.911,1.027c-1.046,0.685-2.129,1.683-3.245,2.991v25.255c0,2.618,0.279,4.482,0.838,5.595
		c0.558,1.11,1.535,1.834,2.931,2.168v2.146H51.3z"/>
	<path fill="#EC1C24" d="M123.998,21.884v36.078c0,2.191,0.376,3.859,1.131,5c0.754,1.142,1.982,1.94,3.685,2.397v2.146h-25.042
		v-2.146c1.73-0.457,2.966-1.256,3.706-2.397c0.739-1.141,1.11-2.809,1.11-5V31.703c0-2.436-0.371-4.247-1.11-5.434
		c-0.74-1.188-1.975-1.934-3.706-2.238v-2.146H123.998z M107.875,9.235c0-2.284,0.733-4.225,2.199-5.823
		c1.466-1.599,3.26-2.398,5.381-2.398c2.094,0,3.875,0.799,5.34,2.398c1.465,1.598,2.198,3.539,2.198,5.823
		c0,2.283-0.741,4.224-2.22,5.822c-1.48,1.598-3.252,2.397-5.319,2.397c-2.038,0-3.811-0.822-5.318-2.466
		C108.629,13.344,107.875,11.426,107.875,9.235z"/>
	<path fill="#EC1C24" d="M151.134,77.325c0,2.221,0.453,3.896,1.361,5.022c0.907,1.127,2.449,1.917,4.628,2.375v2.146h-25.881
		v-2.146c1.731-0.458,2.974-1.248,3.728-2.375c0.754-1.126,1.13-2.802,1.13-5.022V29.921c0-1.583-0.39-2.884-1.172-3.905
		c-0.782-1.019-2.011-1.849-3.686-2.488v-2.147h19.641V25.4c1.256-1.552,2.68-2.717,4.271-3.494
		c1.592-0.776,3.393-1.165,5.402-1.165c4.886,0,8.808,2.163,11.768,6.486c2.959,4.323,4.439,10.138,4.439,17.444
		c0,7.185-1.438,12.976-4.313,17.376c-2.876,4.399-6.617,6.6-11.224,6.6c-2.009,0-3.852-0.426-5.527-1.279
		c-1.676-0.852-3.197-2.147-4.564-3.882V77.325z M151.134,58.053c0.502,0.975,1.131,1.705,1.885,2.191
		c0.753,0.488,1.632,0.731,2.638,0.731c1.814,0,3.126-1.316,3.937-3.951c0.809-2.632,1.214-6.901,1.214-12.809
		c0-6.18-0.412-10.533-1.235-13.061c-0.824-2.527-2.213-3.791-4.167-3.791c-0.866,0-1.669,0.251-2.409,0.753
		c-0.739,0.503-1.361,1.226-1.863,2.169V58.053z"/>
	<path fill="#EC1C24" d="M199.838,77.325c0,2.221,0.453,3.896,1.362,5.022c0.906,1.127,2.448,1.917,4.627,2.375v2.146h-25.88v-2.146
		c1.729-0.458,2.973-1.248,3.727-2.375c0.753-1.126,1.13-2.802,1.13-5.022V29.921c0-1.583-0.393-2.884-1.173-3.905
		c-0.781-1.019-2.01-1.849-3.684-2.488v-2.147h19.64V25.4c1.256-1.552,2.679-2.717,4.271-3.494c1.592-0.776,3.393-1.165,5.4-1.165
		c4.886,0,8.81,2.163,11.769,6.486c2.959,4.323,4.438,10.138,4.438,17.444c0,7.185-1.438,12.976-4.313,17.376
		c-2.877,4.399-6.616,6.6-11.224,6.6c-2.01,0-3.852-0.426-5.527-1.279c-1.676-0.852-3.196-2.147-4.564-3.882V77.325z
		 M199.838,58.053c0.503,0.975,1.131,1.705,1.884,2.191c0.754,0.488,1.633,0.731,2.638,0.731c1.814,0,3.127-1.316,3.938-3.951
		c0.811-2.632,1.215-6.901,1.215-12.809c0-6.18-0.412-10.533-1.236-13.061c-0.824-2.527-2.213-3.791-4.166-3.791
		c-0.865,0-1.669,0.251-2.407,0.753c-0.741,0.503-1.361,1.226-1.864,2.169V58.053z"/>
	<path fill="#EC1C24" d="M249.882,21.884v36.078c0,2.191,0.377,3.859,1.13,5c0.754,1.142,1.981,1.94,3.686,2.397v2.146h-25.044
		v-2.146c1.73-0.457,2.967-1.256,3.707-2.397c0.739-1.141,1.108-2.809,1.108-5V31.703c0-2.436-0.369-4.247-1.108-5.434
		c-0.74-1.188-1.977-1.934-3.707-2.238v-2.146H249.882z M233.759,9.235c0-2.284,0.731-4.225,2.197-5.823
		c1.466-1.599,3.259-2.398,5.382-2.398c2.094,0,3.874,0.799,5.34,2.398c1.464,1.598,2.197,3.539,2.197,5.823
		c0,2.283-0.739,4.224-2.219,5.822c-1.479,1.598-3.252,2.397-5.318,2.397c-2.038,0-3.811-0.822-5.319-2.466
		C234.512,13.344,233.759,11.426,233.759,9.235z"/>
	<path fill="#EC1C24" d="M277.268,27.09c1.982-2.131,4.146-3.752,6.491-4.864c2.345-1.111,4.76-1.667,7.246-1.667
		c3.907,0,6.811,1.385,8.708,4.156c1.899,2.77,2.85,7.033,2.85,12.787v19.225c0,2.832,0.362,4.888,1.089,6.167
		c0.724,1.277,1.968,2.1,3.726,2.465v2.146h-23.324v-2.146c1.256-0.395,2.141-1.171,2.659-2.329
		c0.516-1.155,0.772-3.122,0.772-5.893V35.996c0-3.166-0.271-5.236-0.813-6.211c-0.546-0.974-1.545-1.461-2.997-1.461
		c-0.947,0-1.96,0.35-3.035,1.05s-2.113,1.689-3.12,2.968v25.255c0,2.618,0.279,4.482,0.838,5.595
		c0.558,1.11,1.535,1.834,2.932,2.168v2.146h-23.66v-2.146c1.731-0.457,2.965-1.256,3.705-2.397c0.739-1.141,1.11-2.809,1.11-5
		V31.703c0-2.436-0.371-4.247-1.11-5.434c-0.74-1.188-1.974-1.934-3.705-2.238v-2.146h19.389L277.268,27.09z"/>
	<path fill="#EC1C24" d="M320.066,51.979c-3.072-1.736-5.353-3.738-6.848-6.006c-1.493-2.269-2.241-4.878-2.241-7.832
		c0-5.236,1.613-9.445,4.839-12.627c3.225-3.181,7.531-4.772,12.917-4.772c1.788,0,4.078,0.191,6.87,0.571
		c2.79,0.381,4.674,0.571,5.653,0.571h10.091v5.389h-5.904c1.229,1.583,2.15,3.212,2.765,4.886c0.612,1.674,0.923,3.38,0.923,5.115
		c0,4.994-1.594,9.005-4.774,12.032c-3.185,3.03-7.427,4.545-12.732,4.545c-0.224,0-0.893-0.029-2.009-0.091
		c-1.119-0.061-2.138-0.092-3.058-0.092c-1.648,0-2.896,0.245-3.748,0.731c-0.852,0.487-1.277,1.201-1.277,2.145
		c0,0.732,0.299,1.356,0.899,1.874c0.602,0.519,1.348,0.775,2.242,0.775h12.437c4.886,0,8.612,1.065,11.181,3.198
		c2.568,2.131,3.854,5.235,3.854,9.314c0,4.812-1.851,8.523-5.549,11.144c-3.699,2.617-8.939,3.928-15.726,3.928
		c-6.531,0-11.613-0.877-15.242-2.627c-3.63-1.75-5.444-4.148-5.444-7.191c0-1.522,0.475-2.81,1.424-3.859
		c0.948-1.05,2.359-1.851,4.229-2.398c-1.451-1.187-2.541-2.464-3.265-3.836c-0.728-1.369-1.089-2.876-1.089-4.521
		c0-2.343,0.712-4.376,2.135-6.097C315.042,54.528,317.19,53.105,320.066,51.979z M340.711,77.872c0-1.369-0.844-2.488-2.533-3.355
		c-1.689-0.869-3.958-1.303-6.805-1.303c-3.266,0-5.814,0.41-7.643,1.234c-1.829,0.82-2.741,1.962-2.741,3.424
		c0,1.433,0.893,2.588,2.678,3.472c1.788,0.881,4.189,1.324,7.203,1.324c3.017,0,5.41-0.443,7.182-1.324
		C339.826,80.46,340.711,79.305,340.711,77.872z M329.909,49.65c1.562,0,2.755-0.997,3.579-2.992
		c0.822-1.993,1.236-4.894,1.236-8.699c0-4.445-0.393-7.725-1.174-9.842c-0.783-2.116-1.995-3.174-3.642-3.174
		c-1.621,0-2.821,1.05-3.603,3.151c-0.783,2.101-1.174,5.328-1.174,9.681c0,3.868,0.404,6.813,1.215,8.836
		C327.158,48.638,328.344,49.65,329.909,49.65z"/>
</g>
<g class="logo-detail">
	<path fill="#323232" d="M2.188,86.865v-7.757H0v-1.577h5.854v1.577H3.672v7.757H2.188z"/>
	<path fill="#323232" d="M6.339,82.254c0-1.11,0.158-2.027,0.474-2.747c0.317-0.72,0.731-1.256,1.242-1.607
		c0.51-0.353,1.13-0.529,1.857-0.529c1.054,0,1.914,0.418,2.577,1.256c0.664,0.836,0.996,2.026,0.996,3.571
		c0,1.562-0.351,2.782-1.054,3.663c-0.617,0.775-1.455,1.163-2.513,1.163c-1.066,0-1.909-0.384-2.526-1.153
		C6.69,84.993,6.339,83.786,6.339,82.254z M7.871,82.191c0,1.075,0.197,1.879,0.59,2.415c0.394,0.538,0.88,0.807,1.461,0.807
		c0.585,0,1.07-0.267,1.456-0.799c0.384-0.533,0.576-1.352,0.576-2.455c0-1.083-0.187-1.883-0.561-2.399
		c-0.375-0.52-0.866-0.779-1.471-0.779c-0.606,0-1.099,0.262-1.479,0.785C8.062,80.288,7.871,81.096,7.871,82.191z"/>
	<path fill="#323232" d="M14.644,77.531h2.714c0.686,0,1.203,0.078,1.552,0.237c0.349,0.158,0.67,0.428,0.964,0.806
		c0.294,0.377,0.525,0.868,0.691,1.472c0.168,0.601,0.252,1.353,0.252,2.247c0,0.807-0.088,1.509-0.264,2.105
		c-0.175,0.597-0.398,1.067-0.667,1.417c-0.27,0.347-0.596,0.61-0.977,0.784c-0.382,0.177-0.874,0.266-1.473,0.266h-2.793V77.531z
		 M16.128,79.108v6.177h1.116c0.478,0,0.825-0.047,1.039-0.139c0.214-0.095,0.39-0.234,0.527-0.424
		c0.136-0.188,0.25-0.485,0.34-0.896c0.09-0.406,0.134-0.943,0.134-1.606c0-0.693-0.045-1.236-0.137-1.637
		c-0.092-0.398-0.235-0.712-0.429-0.941c-0.194-0.229-0.43-0.379-0.708-0.452c-0.208-0.053-0.61-0.082-1.207-0.082H16.128z"/>
	<path fill="#323232" d="M28.732,86.865h-1.613l-0.646-2.115h-2.95l-0.609,2.115h-1.581l2.87-9.334h1.575L28.732,86.865z
		 M25.994,83.172l-1.018-3.465l-0.998,3.465H25.994z"/>
	<path fill="#323232" d="M30.503,86.865v-3.931l-2.696-5.403h1.74l1.732,3.69l1.707-3.69h1.71l-2.709,5.417v3.917H30.503z"/>
	<path fill="#323232" d="M44.395,86.865h-1.614l-0.645-2.115h-2.95l-0.608,2.115h-1.583l2.87-9.334h1.576L44.395,86.865z
		 M41.657,83.172l-1.018-3.465l-0.998,3.465H41.657z"/>
	<path fill="#323232" d="M45.191,86.865v-9.334h1.446l3.016,6.233v-6.233h1.386v9.334h-1.496l-2.967-6.089v6.089H45.191z"/>
	<path fill="#323232" d="M52.596,77.531h2.713c0.685,0,1.203,0.078,1.552,0.237c0.349,0.158,0.671,0.428,0.964,0.806
		c0.294,0.377,0.525,0.868,0.692,1.472c0.168,0.601,0.251,1.353,0.251,2.247c0,0.807-0.087,1.509-0.263,2.105
		c-0.176,0.597-0.398,1.067-0.667,1.417c-0.269,0.347-0.595,0.61-0.977,0.784c-0.382,0.177-0.874,0.266-1.473,0.266h-2.792V77.531z
		 M54.08,79.108v6.177h1.116c0.478,0,0.824-0.047,1.039-0.139c0.214-0.095,0.39-0.234,0.527-0.424
		c0.137-0.188,0.25-0.485,0.34-0.896c0.089-0.406,0.135-0.943,0.135-1.606c0-0.693-0.046-1.236-0.138-1.637
		c-0.092-0.398-0.235-0.712-0.43-0.941c-0.194-0.229-0.43-0.379-0.708-0.452c-0.209-0.053-0.612-0.082-1.208-0.082H54.08z"/>
	<path fill="#323232" d="M64.654,86.865v-3.931l-2.697-5.403h1.741l1.731,3.69l1.708-3.69h1.71l-2.709,5.417v3.917H64.654z"/>
	<path fill="#323232" d="M69.589,86.865v-9.334h5.468v1.577h-3.985v2.07h3.703v1.573h-3.703v2.533h4.12v1.58H69.589z"/>
	<path fill="#323232" d="M76.075,83.819l1.453-0.177c0.163,1.193,0.699,1.79,1.606,1.79c0.45,0,0.802-0.122,1.061-0.365
		c0.257-0.245,0.387-0.547,0.387-0.908c0-0.212-0.046-0.393-0.136-0.542c-0.09-0.146-0.227-0.269-0.411-0.364
		c-0.184-0.097-0.629-0.256-1.336-0.481c-0.633-0.198-1.097-0.416-1.392-0.647c-0.294-0.233-0.528-0.539-0.702-0.92
		c-0.174-0.381-0.26-0.787-0.26-1.225c0-0.51,0.111-0.967,0.334-1.375c0.223-0.406,0.53-0.715,0.922-0.923
		c0.392-0.208,0.876-0.312,1.453-0.312c0.866,0,1.543,0.245,2.029,0.733c0.486,0.487,0.743,1.186,0.773,2.094l-1.491,0.085
		c-0.065-0.503-0.206-0.852-0.423-1.052c-0.217-0.198-0.525-0.301-0.926-0.301c-0.4,0-0.708,0.089-0.926,0.261
		c-0.216,0.175-0.324,0.391-0.324,0.647c0,0.256,0.098,0.47,0.295,0.643c0.196,0.172,0.648,0.362,1.355,0.57
		c0.748,0.226,1.288,0.463,1.621,0.711c0.333,0.249,0.587,0.568,0.763,0.961c0.176,0.393,0.264,0.869,0.264,1.431
		c0,0.811-0.241,1.491-0.72,2.045c-0.481,0.551-1.231,0.825-2.253,0.825C77.283,87.023,76.279,85.956,76.075,83.819z"/>
	<path fill="#323232" d="M84.975,86.865v-7.757h-2.188v-1.577h5.854v1.577h-2.182v7.757H84.975z"/>
	<path fill="#323232" d="M89.61,86.865v-9.334h5.468v1.577h-3.985v2.07h3.703v1.573h-3.703v2.533h4.12v1.58H89.61z"/>
	<path fill="#323232" d="M96.476,86.865v-9.334h3.132c0.801,0,1.373,0.082,1.717,0.251c0.343,0.167,0.625,0.457,0.845,0.871
		s0.332,0.91,0.332,1.487c0,0.729-0.169,1.318-0.506,1.764s-0.817,0.725-1.438,0.842c0.319,0.237,0.583,0.497,0.792,0.779
		c0.208,0.282,0.492,0.789,0.852,1.519l0.895,1.821h-1.774l-1.077-2.031c-0.388-0.733-0.651-1.195-0.79-1.379
		c-0.139-0.185-0.286-0.313-0.441-0.381c-0.156-0.071-0.405-0.106-0.749-0.106h-0.306v3.897H96.476z M97.959,81.479h1.103
		c0.675,0,1.104-0.031,1.287-0.092c0.185-0.063,0.333-0.187,0.448-0.375c0.114-0.187,0.172-0.434,0.172-0.744
		c0-0.298-0.058-0.535-0.172-0.716s-0.27-0.306-0.466-0.373c-0.139-0.045-0.542-0.07-1.208-0.07h-1.165V81.479z"/>
	<path fill="#323232" d="M103.893,77.531h2.713c0.686,0,1.204,0.078,1.553,0.237c0.349,0.158,0.67,0.428,0.964,0.806
		c0.294,0.377,0.524,0.868,0.692,1.472c0.167,0.601,0.251,1.353,0.251,2.247c0,0.807-0.088,1.509-0.263,2.105
		c-0.176,0.597-0.398,1.067-0.668,1.417c-0.269,0.347-0.595,0.61-0.976,0.784c-0.382,0.177-0.873,0.266-1.473,0.266h-2.792V77.531z
		 M105.376,79.108v6.177h1.115c0.479,0,0.824-0.047,1.039-0.139c0.214-0.095,0.391-0.234,0.528-0.424
		c0.136-0.188,0.25-0.485,0.339-0.896c0.09-0.406,0.135-0.943,0.135-1.606c0-0.693-0.045-1.236-0.137-1.637
		c-0.092-0.398-0.235-0.712-0.43-0.941c-0.194-0.229-0.43-0.379-0.708-0.452c-0.208-0.053-0.611-0.082-1.208-0.082H105.376z"/>
	<path fill="#323232" d="M117.98,86.865h-1.613l-0.646-2.115h-2.95l-0.609,2.115h-1.582l2.869-9.334h1.575L117.98,86.865z
		 M115.243,83.172l-1.017-3.465l-0.999,3.465H115.243z"/>
	<path fill="#323232" d="M119.752,86.865v-3.931l-2.698-5.403h1.742l1.731,3.69l1.708-3.69h1.71l-2.709,5.417v3.917H119.752z"/>
</g>
</svg>
