<?xml version="1.0" encoding="UTF-8" standalone="no"?>
<!DOCTYPE svg PUBLIC "-//W3C//DTD SVG 1.1//EN" "http://www.w3.org/Graphics/SVG/1.1/DTD/svg11.dtd">
<svg width="100%" height="100%" viewBox="0 0 1920 800" version="1.1" xmlns="http://www.w3.org/2000/svg" xmlns:xlink="http://www.w3.org/1999/xlink" xml:space="preserve" xmlns:serif="http://www.serif.com/" style="fill-rule:evenodd;clip-rule:evenodd;stroke-linejoin:round;stroke-miterlimit:2;">
    <g id="bottom-row" serif:id="bottom row" transform="matrix(1,0,0,1,0,2)">
        <g id="down" transform="matrix(-1,1.22465e-16,-1.22465e-16,-1,2099.93,1450.21)">
            <g transform="matrix(0.734438,0,0,0.734438,114.603,249.582)">
                <g id="pair">
                    <path d="M150.217,545.486L252.336,749.724L48.098,749.724L150.217,545.486Z" style="fill:rgb(39,60,117);"/>
                </g>
            </g>
            <g id="pair1" serif:id="pair" transform="matrix(1,0,0,1,298.155,0.380435)">
                <g transform="matrix(0.734438,0,0,0.734438,-33.4799,248.994)">
                    <path d="M150.217,545.486L252.336,749.724L48.098,749.724L150.217,545.486Z" style="fill:rgb(39,60,117);"/>
                </g>
                <g transform="matrix(0.734438,0,0,0.734438,116.448,249.201)">
                    <path d="M150.217,545.486L252.336,749.724L48.098,749.724L150.217,545.486Z" style="fill:rgb(39,60,117);"/>
                </g>
            </g>
            <g id="pair2" serif:id="pair" transform="matrix(1,0,0,1,598.945,-0.621094)">
                <g transform="matrix(0.734438,0,0,0.734438,-33.4799,248.994)">
                    <path d="M150.217,545.486L252.336,749.724L48.098,749.724L150.217,545.486Z" style="fill:rgb(39,60,117);"/>
                </g>
                <g transform="matrix(0.734438,0,0,0.734438,116.448,249.201)">
                    <path d="M150.217,545.486L252.336,749.724L48.098,749.724L150.217,545.486Z" style="fill:rgb(39,60,117);"/>
                </g>
            </g>
            <g id="pair3" serif:id="pair" transform="matrix(1,0,0,1,898.155,0.380435)">
                <g transform="matrix(0.734438,0,0,0.734438,-33.4799,248.994)">
                    <path d="M150.217,545.486L252.336,749.724L48.098,749.724L150.217,545.486Z" style="fill:rgb(39,60,117);"/>
                </g>
                <g transform="matrix(0.734438,0,0,0.734438,116.448,249.201)">
                    <path d="M150.217,545.486L252.336,749.724L48.098,749.724L150.217,545.486Z" style="fill:rgb(39,60,117);"/>
                </g>
            </g>
            <g id="pair4" serif:id="pair" transform="matrix(1,0,0,1,1198.16,0.380435)">
                <g transform="matrix(0.734438,0,0,0.734438,-33.4799,248.994)">
                    <path d="M150.217,545.486L252.336,749.724L48.098,749.724L150.217,545.486Z" style="fill:rgb(39,60,117);"/>
                </g>
                <g transform="matrix(0.734438,0,0,0.734438,116.448,249.201)">
                    <path d="M150.217,545.486L252.336,749.724L48.098,749.724L150.217,545.486Z" style="fill:rgb(39,60,117);"/>
                </g>
            </g>
            <g id="pair5" serif:id="pair" transform="matrix(1,0,0,1,1498.16,0.380435)">
                <g transform="matrix(0.734438,0,0,0.734438,-33.4799,248.994)">
                    <path d="M150.217,545.486L252.336,749.724L48.098,749.724L150.217,545.486Z" style="fill:rgb(39,60,117);"/>
                </g>
                <g transform="matrix(0.734438,0,0,0.734438,116.448,249.201)">
                    <path d="M150.217,545.486L252.336,749.724L48.098,749.724L150.217,545.486Z" style="fill:rgb(39,60,117);"/>
                </g>
            </g>
            <g id="pair6" serif:id="pair" transform="matrix(1,0,0,1,1798.16,0.380435)">
                <g transform="matrix(0.734438,0,0,0.734438,-33.4799,248.994)">
                    <path d="M150.217,545.486L252.336,749.724L48.098,749.724L150.217,545.486Z" style="fill:rgb(39,60,117);"/>
                </g>
                <g transform="matrix(0.734438,0,0,0.734438,116.448,249.201)">
                    <path d="M150.217,545.486L252.336,749.724L48.098,749.724L150.217,545.486Z" style="fill:rgb(39,60,117);"/>
                </g>
            </g>
            <g id="pair7" serif:id="pair" transform="matrix(1,0,0,1,598.155,0.380435)">
                <g transform="matrix(0.734438,0,0,0.734438,-33.4799,248.994)">
                    <path d="M150.217,545.486L252.336,749.724L48.098,749.724L150.217,545.486Z" style="fill:rgb(39,60,117);"/>
                </g>
                <g transform="matrix(0.734438,0,0,0.734438,116.448,249.201)">
                    <path d="M150.217,545.486L252.336,749.724L48.098,749.724L150.217,545.486Z" style="fill:rgb(39,60,117);"/>
                </g>
            </g>
        </g>
        <g id="up" transform="matrix(1,0,0,1,-137.602,168.555)">
            <g id="pair8" serif:id="pair" transform="matrix(1,0,0,1,60.7253,-169.737)">
                <g transform="matrix(0.734438,0,0,0.734438,-33.4799,248.994)">
                    <path d="M150.217,545.486L252.336,749.724L48.098,749.724L150.217,545.486Z" style="fill:rgb(25,42,86);"/>
                </g>
                <g transform="matrix(0.734438,0,0,0.734438,116.448,249.201)">
                    <path d="M150.217,545.486L252.336,749.724L48.098,749.724L150.217,545.486Z" style="fill:rgb(25,42,86);"/>
                </g>
            </g>
            <g id="pair9" serif:id="pair" transform="matrix(1,0,0,1,360.725,-169.737)">
                <g transform="matrix(0.734438,0,0,0.734438,-33.4799,248.994)">
                    <path d="M150.217,545.486L252.336,749.724L48.098,749.724L150.217,545.486Z" style="fill:rgb(25,42,86);"/>
                </g>
                <g transform="matrix(0.734438,0,0,0.734438,116.448,249.201)">
                    <path d="M150.217,545.486L252.336,749.724L48.098,749.724L150.217,545.486Z" style="fill:rgb(25,42,86);"/>
                </g>
            </g>
            <g id="pair10" serif:id="pair" transform="matrix(1,0,0,1,661.516,-170.738)">
                <g transform="matrix(0.734438,0,0,0.734438,-33.4799,248.994)">
                    <path d="M150.217,545.486L252.336,749.724L48.098,749.724L150.217,545.486Z" style="fill:rgb(39,60,117);"/>
                </g>
                <g transform="matrix(0.734438,0,0,0.734438,116.448,249.201)">
                    <path d="M150.217,545.486L252.336,749.724L48.098,749.724L150.217,545.486Z" style="fill:rgb(39,60,117);"/>
                </g>
            </g>
            <g id="pair11" serif:id="pair" transform="matrix(1,0,0,1,960.725,-169.737)">
                <g transform="matrix(0.734438,0,0,0.734438,-33.4799,248.994)">
                    <path d="M150.217,545.486L252.336,749.724L48.098,749.724L150.217,545.486Z" style="fill:rgb(25,42,86);"/>
                </g>
                <g transform="matrix(0.734438,0,0,0.734438,116.448,249.201)">
                    <path d="M150.217,545.486L252.336,749.724L48.098,749.724L150.217,545.486Z" style="fill:rgb(25,42,86);"/>
                </g>
            </g>
            <g id="pair12" serif:id="pair" transform="matrix(1,0,0,1,1260.73,-169.737)">
                <g transform="matrix(0.734438,0,0,0.734438,-33.4799,248.994)">
                    <path d="M150.217,545.486L252.336,749.724L48.098,749.724L150.217,545.486Z" style="fill:rgb(25,42,86);"/>
                </g>
                <g transform="matrix(0.734438,0,0,0.734438,116.448,249.201)">
                    <path d="M150.217,545.486L252.336,749.724L48.098,749.724L150.217,545.486Z" style="fill:rgb(25,42,86);"/>
                </g>
            </g>
            <g id="pair13" serif:id="pair" transform="matrix(1,0,0,1,1560.73,-169.737)">
                <g transform="matrix(0.734438,0,0,0.734438,-33.4799,248.994)">
                    <path d="M150.217,545.486L252.336,749.724L48.098,749.724L150.217,545.486Z" style="fill:rgb(25,42,86);"/>
                </g>
                <g transform="matrix(0.734438,0,0,0.734438,116.448,249.201)">
                    <path d="M150.217,545.486L252.336,749.724L48.098,749.724L150.217,545.486Z" style="fill:rgb(25,42,86);"/>
                </g>
            </g>
            <g id="pair14" serif:id="pair" transform="matrix(1,0,0,1,1860.73,-169.737)">
                <g transform="matrix(0.734438,0,0,0.734438,-33.4799,248.994)">
                    <path d="M150.217,545.486L252.336,749.724L48.098,749.724L150.217,545.486Z" style="fill:rgb(25,42,86);"/>
                </g>
                <g transform="matrix(0.734438,0,0,0.734438,116.448,249.201)">
                    <path d="M150.217,545.486L252.336,749.724L48.098,749.724L150.217,545.486Z" style="fill:rgb(25,42,86);"/>
                </g>
            </g>
            <g id="pair15" serif:id="pair" transform="matrix(1,0,0,1,660.725,-169.737)">
                <g transform="matrix(0.734438,0,0,0.734438,-33.4799,248.994)">
                    <path d="M150.217,545.486L252.336,749.724L48.098,749.724L150.217,545.486Z" style="fill:rgb(25,42,86);"/>
                </g>
                <g transform="matrix(0.734438,0,0,0.734438,116.448,249.201)">
                    <path d="M150.217,545.486L252.336,749.724L48.098,749.724L150.217,545.486Z" style="fill:rgb(25,42,86);"/>
                </g>
            </g>
        </g>
    </g>
    <g id="_2nd-row" serif:id="2nd row" transform="matrix(1,0,0,1,0.132813,-145.813)">
        <g id="down1" serif:id="down" transform="matrix(-1,1.22465e-16,-1.22465e-16,-1,2099.93,1450.21)">
            <g transform="matrix(0.734438,0,0,0.734438,114.603,249.582)">
                <g id="pair16" serif:id="pair">
                    <path d="M150.217,545.486L252.336,749.724L48.098,749.724L150.217,545.486Z" style="fill:rgb(39,60,117);"/>
                </g>
            </g>
            <g id="pair17" serif:id="pair" transform="matrix(1,0,0,1,298.155,0.380435)">
                <g transform="matrix(0.734438,0,0,0.734438,-33.4799,248.994)">
                    <path d="M150.217,545.486L252.336,749.724L48.098,749.724L150.217,545.486Z" style="fill:rgb(39,60,117);"/>
                </g>
                <g transform="matrix(0.734438,0,0,0.734438,116.448,249.201)">
                    <path d="M150.217,545.486L252.336,749.724L48.098,749.724L150.217,545.486Z" style="fill:rgb(39,60,117);"/>
                </g>
            </g>
            <g id="pair18" serif:id="pair" transform="matrix(1,0,0,1,598.945,-0.621094)">
                <g transform="matrix(0.734438,0,0,0.734438,-33.4799,248.994)">
                    <path d="M150.217,545.486L252.336,749.724L48.098,749.724L150.217,545.486Z" style="fill:rgb(39,60,117);"/>
                </g>
                <g transform="matrix(0.734438,0,0,0.734438,116.448,249.201)">
                    <path d="M150.217,545.486L252.336,749.724L48.098,749.724L150.217,545.486Z" style="fill:rgb(39,60,117);"/>
                </g>
            </g>
            <g id="pair19" serif:id="pair" transform="matrix(1,0,0,1,898.155,0.380435)">
                <g transform="matrix(0.734438,0,0,0.734438,-33.4799,248.994)">
                    <path d="M150.217,545.486L252.336,749.724L48.098,749.724L150.217,545.486Z" style="fill:rgb(39,60,117);"/>
                </g>
                <g transform="matrix(0.734438,0,0,0.734438,116.448,249.201)">
                    <path d="M150.217,545.486L252.336,749.724L48.098,749.724L150.217,545.486Z" style="fill:rgb(39,60,117);"/>
                </g>
            </g>
            <g id="pair20" serif:id="pair" transform="matrix(1,0,0,1,1198.16,0.380435)">
                <g transform="matrix(0.734438,0,0,0.734438,-33.4799,248.994)">
                    <path d="M150.217,545.486L252.336,749.724L48.098,749.724L150.217,545.486Z" style="fill:rgb(39,60,117);"/>
                </g>
                <g transform="matrix(0.734438,0,0,0.734438,116.448,249.201)">
                    <path d="M150.217,545.486L252.336,749.724L48.098,749.724L150.217,545.486Z" style="fill:rgb(39,60,117);"/>
                </g>
            </g>
            <g id="pair21" serif:id="pair" transform="matrix(1,0,0,1,1498.16,0.380435)">
                <g transform="matrix(0.734438,0,0,0.734438,-33.4799,248.994)">
                    <path d="M150.217,545.486L252.336,749.724L48.098,749.724L150.217,545.486Z" style="fill:rgb(39,60,117);"/>
                </g>
                <g transform="matrix(0.734438,0,0,0.734438,116.448,249.201)">
                    <path d="M150.217,545.486L252.336,749.724L48.098,749.724L150.217,545.486Z" style="fill:rgb(39,60,117);"/>
                </g>
            </g>
            <g id="pair22" serif:id="pair" transform="matrix(1,0,0,1,1798.16,0.380435)">
                <g transform="matrix(0.734438,0,0,0.734438,-33.4799,248.994)">
                    <path d="M150.217,545.486L252.336,749.724L48.098,749.724L150.217,545.486Z" style="fill:rgb(39,60,117);"/>
                </g>
                <g transform="matrix(0.734438,0,0,0.734438,116.448,249.201)">
                    <path d="M150.217,545.486L252.336,749.724L48.098,749.724L150.217,545.486Z" style="fill:rgb(39,60,117);"/>
                </g>
            </g>
            <g id="pair23" serif:id="pair" transform="matrix(1,0,0,1,598.155,0.380435)">
                <g transform="matrix(0.734438,0,0,0.734438,-33.4799,248.994)">
                    <path d="M150.217,545.486L252.336,749.724L48.098,749.724L150.217,545.486Z" style="fill:rgb(39,60,117);"/>
                </g>
                <g transform="matrix(0.734438,0,0,0.734438,116.448,249.201)">
                    <path d="M150.217,545.486L252.336,749.724L48.098,749.724L150.217,545.486Z" style="fill:rgb(39,60,117);"/>
                </g>
            </g>
        </g>
        <g id="up1" serif:id="up" transform="matrix(1,0,0,1,-137.602,168.555)">
            <g id="pair24" serif:id="pair" transform="matrix(1,0,0,1,60.7253,-169.737)">
                <g transform="matrix(0.734438,0,0,0.734438,-33.4799,248.994)">
                    <path d="M150.217,545.486L252.336,749.724L48.098,749.724L150.217,545.486Z" style="fill:rgb(25,42,86);"/>
                </g>
                <g transform="matrix(0.979251,0,0,0.979251,79.6727,90.6592)">
                    <path d="M150.217,545.486L252.336,749.724L48.098,749.724L150.217,545.486Z" style="fill:rgb(25,42,86);"/>
                </g>
            </g>
            <g id="pair25" serif:id="pair" transform="matrix(1,0,0,1,360.725,-169.737)">
                <g transform="matrix(0.734438,0,0,0.734438,-33.4799,248.994)">
                    <path d="M150.217,545.486L252.336,749.724L48.098,749.724L150.217,545.486Z" style="fill:rgb(25,42,86);"/>
                </g>
                <g transform="matrix(0.979251,0,0,0.979251,79.6727,90.6592)">
                    <path d="M150.217,545.486L252.336,749.724L48.098,749.724L150.217,545.486Z" style="fill:rgb(25,42,86);"/>
                </g>
            </g>
            <g id="pair26" serif:id="pair" transform="matrix(1,0,0,1,661.516,-170.738)">
                <g transform="matrix(0.734438,0,0,0.734438,-33.4799,248.994)">
                    <path d="M150.217,545.486L252.336,749.724L48.098,749.724L150.217,545.486Z" style="fill:rgb(39,60,117);"/>
                </g>
                <g transform="matrix(0.734438,0,0,0.734438,116.448,249.201)">
                    <path d="M150.217,545.486L252.336,749.724L48.098,749.724L150.217,545.486Z" style="fill:rgb(39,60,117);"/>
                </g>
            </g>
            <g id="pair27" serif:id="pair" transform="matrix(1,0,0,1,960.725,-169.737)">
                <g transform="matrix(0.979251,0,0,0.979251,-70.2549,90.4515)">
                    <path d="M150.217,545.486L252.336,749.724L48.098,749.724L150.217,545.486Z" style="fill:rgb(25,42,86);"/>
                </g>
                <g transform="matrix(0.734438,0,0,0.734438,116.448,249.201)">
                    <path d="M150.217,545.486L252.336,749.724L48.098,749.724L150.217,545.486Z" style="fill:rgb(25,42,86);"/>
                </g>
            </g>
            <g id="pair28" serif:id="pair" transform="matrix(1,0,0,1,1260.73,-169.737)">
                <g transform="matrix(0.979251,0,0,0.979251,-70.2549,90.4515)">
                    <path d="M150.217,545.486L252.336,749.724L48.098,749.724L150.217,545.486Z" style="fill:rgb(25,42,86);"/>
                </g>
                <g transform="matrix(0.734438,0,0,0.734438,116.448,249.201)">
                    <path d="M150.217,545.486L252.336,749.724L48.098,749.724L150.217,545.486Z" style="fill:rgb(25,42,86);"/>
                </g>
            </g>
            <g id="pair29" serif:id="pair" transform="matrix(1,0,0,1,1560.73,-169.737)">
                <g transform="matrix(0.734438,0,0,0.734438,-33.4799,248.994)">
                    <path d="M150.217,545.486L252.336,749.724L48.098,749.724L150.217,545.486Z" style="fill:rgb(25,42,86);"/>
                </g>
                <g transform="matrix(0.734438,0,0,0.734438,116.448,249.201)">
                    <path d="M150.217,545.486L252.336,749.724L48.098,749.724L150.217,545.486Z" style="fill:rgb(25,42,86);"/>
                </g>
            </g>
            <g id="pair30" serif:id="pair" transform="matrix(1,0,0,1,1860.73,-169.737)">
                <g transform="matrix(0.979251,0,0,0.979251,-70.2549,90.4515)">
                    <path d="M150.217,545.486L252.336,749.724L48.098,749.724L150.217,545.486Z" style="fill:rgb(25,42,86);"/>
                </g>
                <g transform="matrix(0.734438,0,0,0.734438,116.448,249.201)">
                    <path d="M150.217,545.486L252.336,749.724L48.098,749.724L150.217,545.486Z" style="fill:rgb(25,42,86);"/>
                </g>
            </g>
            <g id="pair31" serif:id="pair" transform="matrix(1,0,0,1,660.725,-169.737)">
                <g transform="matrix(0.734438,0,0,0.734438,-33.4799,248.994)">
                    <path d="M150.217,545.486L252.336,749.724L48.098,749.724L150.217,545.486Z" style="fill:rgb(25,42,86);"/>
                </g>
                <g transform="matrix(0.734438,0,0,0.734438,116.448,249.201)">
                    <path d="M150.217,545.486L252.336,749.724L48.098,749.724L150.217,545.486Z" style="fill:rgb(25,42,86);"/>
                </g>
            </g>
        </g>
    </g>
    <g id="_3rd-row" serif:id="3rd row" transform="matrix(-1,1.22465e-16,-1.22465e-16,-1,2026.56,1154.51)">
        <g id="up2" serif:id="up" transform="matrix(-1,1.22465e-16,-1.22465e-16,-1,2099.93,1450.21)">
            <g id="pair32" serif:id="pair" transform="matrix(1,0,0,1,-1.84497,0.380435)">
                <g transform="matrix(0.979251,0,0,0.979251,-70.2549,90.4515)">
                    <path d="M150.217,545.486L252.336,749.724L48.098,749.724L150.217,545.486Z" style="fill:rgb(39,60,117);"/>
                </g>
                <g transform="matrix(0.979251,0,0,0.979251,79.6727,90.6592)">
                    <path d="M150.217,545.486L252.336,749.724L48.098,749.724L150.217,545.486Z" style="fill:rgb(39,60,117);"/>
                </g>
            </g>
            <g id="pair33" serif:id="pair" transform="matrix(1,0,0,1,298.155,0.380435)">
                <g transform="matrix(0.979251,0,0,0.979251,-70.2549,90.4515)">
                    <path d="M150.217,545.486L252.336,749.724L48.098,749.724L150.217,545.486Z" style="fill:rgb(39,60,117);"/>
                </g>
                <g transform="matrix(0.979251,0,0,0.979251,79.6727,90.6592)">
                    <path d="M150.217,545.486L252.336,749.724L48.098,749.724L150.217,545.486Z" style="fill:rgb(39,60,117);"/>
                </g>
            </g>
            <g id="pair34" serif:id="pair" transform="matrix(1,0,0,1,598.945,-0.621094)">
                <g transform="matrix(0.979251,0,0,0.979251,-70.2549,90.4515)">
                    <path d="M150.217,545.486L252.336,749.724L48.098,749.724L150.217,545.486Z" style="fill:rgb(39,60,117);"/>
                </g>
                <g transform="matrix(0.979251,0,0,0.979251,79.6727,90.6592)">
                    <path d="M150.217,545.486L252.336,749.724L48.098,749.724L150.217,545.486Z" style="fill:rgb(39,60,117);"/>
                </g>
            </g>
            <g id="pair35" serif:id="pair" transform="matrix(1,0,0,1,898.155,0.380435)">
                <g transform="matrix(0.979251,0,0,0.979251,-70.2549,90.4515)">
                    <path d="M150.217,545.486L252.336,749.724L48.098,749.724L150.217,545.486Z" style="fill:rgb(39,60,117);"/>
                </g>
                <g transform="matrix(0.979251,0,0,0.979251,79.6727,90.6592)">
                    <path d="M150.217,545.486L252.336,749.724L48.098,749.724L150.217,545.486Z" style="fill:rgb(39,60,117);"/>
                </g>
            </g>
            <g id="pair36" serif:id="pair" transform="matrix(1,0,0,1,1198.16,0.380435)">
                <g transform="matrix(0.979251,0,0,0.979251,-70.2549,90.4515)">
                    <path d="M150.217,545.486L252.336,749.724L48.098,749.724L150.217,545.486Z" style="fill:rgb(39,60,117);"/>
                </g>
                <g transform="matrix(0.979251,0,0,0.979251,79.6727,90.6592)">
                    <path d="M150.217,545.486L252.336,749.724L48.098,749.724L150.217,545.486Z" style="fill:rgb(39,60,117);"/>
                </g>
            </g>
            <g id="pair37" serif:id="pair" transform="matrix(1,0,0,1,1498.16,0.380435)">
                <g transform="matrix(0.979251,0,0,0.979251,-70.2549,90.4515)">
                    <path d="M150.217,545.486L252.336,749.724L48.098,749.724L150.217,545.486Z" style="fill:rgb(39,60,117);"/>
                </g>
                <g transform="matrix(0.979251,0,0,0.979251,79.6727,90.6592)">
                    <path d="M150.217,545.486L252.336,749.724L48.098,749.724L150.217,545.486Z" style="fill:rgb(39,60,117);"/>
                </g>
            </g>
            <g id="pair38" serif:id="pair" transform="matrix(1,0,0,1,1798.16,0.380435)">
                <g transform="matrix(0.979251,0,0,0.979251,-70.2549,90.4515)">
                    <path d="M150.217,545.486L252.336,749.724L48.098,749.724L150.217,545.486Z" style="fill:rgb(39,60,117);"/>
                </g>
                <g transform="matrix(0.979251,0,0,0.979251,79.6727,90.6592)">
                    <path d="M150.217,545.486L252.336,749.724L48.098,749.724L150.217,545.486Z" style="fill:rgb(39,60,117);"/>
                </g>
            </g>
            <g id="pair39" serif:id="pair" transform="matrix(1,0,0,1,598.155,0.380435)">
                <g transform="matrix(0.734438,0,0,0.734438,-33.4799,248.994)">
                    <path d="M150.217,545.486L252.336,749.724L48.098,749.724L150.217,545.486Z" style="fill:rgb(39,60,117);"/>
                </g>
                <g transform="matrix(0.734438,0,0,0.734438,116.448,249.201)">
                    <path d="M150.217,545.486L252.336,749.724L48.098,749.724L150.217,545.486Z" style="fill:rgb(39,60,117);"/>
                </g>
            </g>
        </g>
        <g id="down2" serif:id="down" transform="matrix(1,0,0,1,-137.602,168.555)">
            <g opacity="0">
                <g transform="matrix(0.734438,0,0,0.734438,177.173,79.4645)">
                    <g id="pair40" serif:id="pair">
                        <path d="M150.217,545.486L252.336,749.724L48.098,749.724L150.217,545.486Z" style="fill:rgb(25,42,86);"/>
                    </g>
                </g>
                <g id="pair41" serif:id="pair" transform="matrix(1,0,0,1,360.725,-169.737)">
                    <g transform="matrix(0.734438,0,0,0.734438,-33.4799,248.994)">
                        <path d="M150.217,545.486L252.336,749.724L48.098,749.724L150.217,545.486Z" style="fill:rgb(25,42,86);"/>
                    </g>
                    <g transform="matrix(0.734438,0,0,0.734438,116.448,249.201)">
                        <path d="M150.217,545.486L252.336,749.724L48.098,749.724L150.217,545.486Z" style="fill:rgb(25,42,86);"/>
                    </g>
                </g>
                <g id="pair42" serif:id="pair" transform="matrix(1,0,0,1,661.516,-170.738)">
                    <g transform="matrix(0.734438,0,0,0.734438,-33.4799,248.994)">
                        <path d="M150.217,545.486L252.336,749.724L48.098,749.724L150.217,545.486Z" style="fill:rgb(39,60,117);"/>
                    </g>
                    <g transform="matrix(0.734438,0,0,0.734438,116.448,249.201)">
                        <path d="M150.217,545.486L252.336,749.724L48.098,749.724L150.217,545.486Z" style="fill:rgb(39,60,117);"/>
                    </g>
                </g>
                <g id="pair43" serif:id="pair" transform="matrix(1,0,0,1,960.725,-169.737)">
                    <g transform="matrix(0.734438,0,0,0.734438,-33.4799,248.994)">
                        <path d="M150.217,545.486L252.336,749.724L48.098,749.724L150.217,545.486Z" style="fill:rgb(25,42,86);"/>
                    </g>
                    <g transform="matrix(0.734438,0,0,0.734438,116.448,249.201)">
                        <path d="M150.217,545.486L252.336,749.724L48.098,749.724L150.217,545.486Z" style="fill:rgb(25,42,86);"/>
                    </g>
                </g>
                <g id="pair44" serif:id="pair" transform="matrix(1,0,0,1,1260.73,-169.737)">
                    <g transform="matrix(0.734438,0,0,0.734438,-33.4799,248.994)">
                        <path d="M150.217,545.486L252.336,749.724L48.098,749.724L150.217,545.486Z" style="fill:rgb(25,42,86);"/>
                    </g>
                    <g transform="matrix(0.734438,0,0,0.734438,116.448,249.201)">
                        <path d="M150.217,545.486L252.336,749.724L48.098,749.724L150.217,545.486Z" style="fill:rgb(25,42,86);"/>
                    </g>
                </g>
                <g id="pair45" serif:id="pair" transform="matrix(1,0,0,1,1560.73,-169.737)">
                    <g transform="matrix(0.734438,0,0,0.734438,-33.4799,248.994)">
                        <path d="M150.217,545.486L252.336,749.724L48.098,749.724L150.217,545.486Z" style="fill:rgb(25,42,86);"/>
                    </g>
                    <g transform="matrix(0.734438,0,0,0.734438,116.448,249.201)">
                        <path d="M150.217,545.486L252.336,749.724L48.098,749.724L150.217,545.486Z" style="fill:rgb(25,42,86);"/>
                    </g>
                </g>
                <g id="pair46" serif:id="pair" transform="matrix(1,0,0,1,1860.73,-169.737)">
                    <g transform="matrix(0.734438,0,0,0.734438,-33.4799,248.994)">
                        <path d="M150.217,545.486L252.336,749.724L48.098,749.724L150.217,545.486Z" style="fill:rgb(25,42,86);"/>
                    </g>
                    <g transform="matrix(0.734438,0,0,0.734438,116.448,249.201)">
                        <path d="M150.217,545.486L252.336,749.724L48.098,749.724L150.217,545.486Z" style="fill:rgb(25,42,86);"/>
                    </g>
                </g>
                <g id="pair47" serif:id="pair" transform="matrix(1,0,0,1,660.725,-169.737)">
                    <g transform="matrix(0.734438,0,0,0.734438,-33.4799,248.994)">
                        <path d="M150.217,545.486L252.336,749.724L48.098,749.724L150.217,545.486Z" style="fill:rgb(25,42,86);"/>
                    </g>
                    <g transform="matrix(0.734438,0,0,0.734438,116.448,249.201)">
                        <path d="M150.217,545.486L252.336,749.724L48.098,749.724L150.217,545.486Z" style="fill:rgb(25,42,86);"/>
                    </g>
                </g>
            </g>
        </g>
    </g>
    <g id="_4th-row" serif:id="4th row" transform="matrix(-1,1.22465e-16,-1.22465e-16,-1,2025.42,1007.1)">
        <g id="up3" serif:id="up" transform="matrix(-1,1.22465e-16,-1.22465e-16,-1,2099.93,1450.21)">
            <g id="pair48" serif:id="pair" transform="matrix(1,0,0,1,-1.84497,0.380435)">
                <g transform="matrix(0.734438,0,0,0.734438,-33.4799,248.994)">
                    <path d="M150.217,545.486L252.336,749.724L48.098,749.724L150.217,545.486Z" style="fill:rgb(39,60,117);"/>
                </g>
                <g transform="matrix(0.734438,0,0,0.734438,116.448,249.201)">
                    <path d="M150.217,545.486L252.336,749.724L48.098,749.724L150.217,545.486Z" style="fill:rgb(39,60,117);"/>
                </g>
            </g>
            <g id="pair49" serif:id="pair" transform="matrix(1,0,0,1,298.155,0.380435)">
                <g transform="matrix(0.734438,0,0,0.734438,-33.4799,248.994)">
                    <path d="M150.217,545.486L252.336,749.724L48.098,749.724L150.217,545.486Z" style="fill:rgb(39,60,117);"/>
                </g>
                <g transform="matrix(0.734438,0,0,0.734438,116.448,249.201)">
                    <path d="M150.217,545.486L252.336,749.724L48.098,749.724L150.217,545.486Z" style="fill:rgb(39,60,117);"/>
                </g>
            </g>
            <g id="pair50" serif:id="pair" transform="matrix(1,0,0,1,598.945,-0.621094)">
                <g transform="matrix(0.734438,0,0,0.734438,-33.4799,248.994)">
                    <path d="M150.217,545.486L252.336,749.724L48.098,749.724L150.217,545.486Z" style="fill:rgb(39,60,117);"/>
                </g>
                <g transform="matrix(0.734438,0,0,0.734438,116.448,249.201)">
                    <path d="M150.217,545.486L252.336,749.724L48.098,749.724L150.217,545.486Z" style="fill:rgb(39,60,117);"/>
                </g>
            </g>
            <g id="pair51" serif:id="pair" transform="matrix(1,0,0,1,898.155,0.380435)">
                <g transform="matrix(0.734438,0,0,0.734438,-33.4799,248.994)">
                    <path d="M150.217,545.486L252.336,749.724L48.098,749.724L150.217,545.486Z" style="fill:rgb(39,60,117);"/>
                </g>
                <g transform="matrix(0.734438,0,0,0.734438,116.448,249.201)">
                    <path d="M150.217,545.486L252.336,749.724L48.098,749.724L150.217,545.486Z" style="fill:rgb(39,60,117);"/>
                </g>
            </g>
            <g id="pair52" serif:id="pair" transform="matrix(1,0,0,1,1198.16,0.380435)">
                <g transform="matrix(0.734438,0,0,0.734438,-33.4799,248.994)">
                    <path d="M150.217,545.486L252.336,749.724L48.098,749.724L150.217,545.486Z" style="fill:rgb(39,60,117);"/>
                </g>
                <g transform="matrix(0.734438,0,0,0.734438,116.448,249.201)">
                    <path d="M150.217,545.486L252.336,749.724L48.098,749.724L150.217,545.486Z" style="fill:rgb(39,60,117);"/>
                </g>
            </g>
            <g id="pair53" serif:id="pair" transform="matrix(1,0,0,1,1498.16,0.380435)">
                <g transform="matrix(0.734438,0,0,0.734438,-33.4799,248.994)">
                    <path d="M150.217,545.486L252.336,749.724L48.098,749.724L150.217,545.486Z" style="fill:rgb(39,60,117);"/>
                </g>
                <g transform="matrix(0.734438,0,0,0.734438,116.448,249.201)">
                    <path d="M150.217,545.486L252.336,749.724L48.098,749.724L150.217,545.486Z" style="fill:rgb(39,60,117);"/>
                </g>
            </g>
            <g id="pair54" serif:id="pair" transform="matrix(1,0,0,1,1798.16,0.380435)">
                <g transform="matrix(0.734438,0,0,0.734438,-33.4799,248.994)">
                    <path d="M150.217,545.486L252.336,749.724L48.098,749.724L150.217,545.486Z" style="fill:rgb(39,60,117);"/>
                </g>
                <g transform="matrix(0.734438,0,0,0.734438,116.448,249.201)">
                    <path d="M150.217,545.486L252.336,749.724L48.098,749.724L150.217,545.486Z" style="fill:rgb(39,60,117);"/>
                </g>
            </g>
            <g id="pair55" serif:id="pair" transform="matrix(1,0,0,1,598.155,0.380435)">
                <g transform="matrix(0.734438,0,0,0.734438,-33.4799,248.994)">
                    <path d="M150.217,545.486L252.336,749.724L48.098,749.724L150.217,545.486Z" style="fill:rgb(39,60,117);"/>
                </g>
                <g transform="matrix(0.734438,0,0,0.734438,116.448,249.201)">
                    <path d="M150.217,545.486L252.336,749.724L48.098,749.724L150.217,545.486Z" style="fill:rgb(39,60,117);"/>
                </g>
            </g>
        </g>
        <g id="down3" serif:id="down" transform="matrix(1,0,0,1,-137.602,168.555)">
            <g transform="matrix(0.979251,0,0,0.979251,140.398,-79.0775)">
                <g id="pair56" serif:id="pair">
                    <path d="M150.217,545.486L252.336,749.724L48.098,749.724L150.217,545.486Z" style="fill:rgb(25,42,86);"/>
                </g>
            </g>
            <g id="pair57" serif:id="pair" transform="matrix(1,0,0,1,360.725,-169.737)">
                <g transform="matrix(0.734438,0,0,0.734438,-33.4799,248.994)">
                    <path d="M150.217,545.486L252.336,749.724L48.098,749.724L150.217,545.486Z" style="fill:rgb(25,42,86);"/>
                </g>
                <g transform="matrix(0.979251,0,0,0.979251,79.6727,90.6592)">
                    <path d="M150.217,545.486L252.336,749.724L48.098,749.724L150.217,545.486Z" style="fill:rgb(25,42,86);"/>
                </g>
            </g>
            <g id="pair58" serif:id="pair" transform="matrix(1,0,0,1,661.516,-170.738)">
                <g transform="matrix(0.734438,0,0,0.734438,-33.4799,248.994)">
                    <path d="M150.217,545.486L252.336,749.724L48.098,749.724L150.217,545.486Z" style="fill:rgb(39,60,117);"/>
                </g>
                <g transform="matrix(0.979251,0,0,0.979251,79.6727,90.6592)">
                    <path d="M150.217,545.486L252.336,749.724L48.098,749.724L150.217,545.486Z" style="fill:rgb(39,60,117);"/>
                </g>
            </g>
            <g id="pair59" serif:id="pair" transform="matrix(1,0,0,1,960.725,-169.737)">
                <g transform="matrix(0.734438,0,0,0.734438,-33.4799,248.994)">
                    <path d="M150.217,545.486L252.336,749.724L48.098,749.724L150.217,545.486Z" style="fill:rgb(25,42,86);"/>
                </g>
                <g transform="matrix(0.979251,0,0,0.979251,79.6727,90.6592)">
                    <path d="M150.217,545.486L252.336,749.724L48.098,749.724L150.217,545.486Z" style="fill:rgb(25,42,86);"/>
                </g>
            </g>
            <g id="pair60" serif:id="pair" transform="matrix(1,0,0,1,1260.73,-169.737)">
                <g transform="matrix(0.734438,0,0,0.734438,-33.4799,248.994)">
                    <path d="M150.217,545.486L252.336,749.724L48.098,749.724L150.217,545.486Z" style="fill:rgb(25,42,86);"/>
                </g>
                <g transform="matrix(0.979251,0,0,0.979251,79.6727,90.6592)">
                    <path d="M150.217,545.486L252.336,749.724L48.098,749.724L150.217,545.486Z" style="fill:rgb(25,42,86);"/>
                </g>
            </g>
            <g id="pair61" serif:id="pair" transform="matrix(1,0,0,1,1560.73,-169.737)">
                <g transform="matrix(0.734438,0,0,0.734438,-33.4799,248.994)">
                    <path d="M150.217,545.486L252.336,749.724L48.098,749.724L150.217,545.486Z" style="fill:rgb(25,42,86);"/>
                </g>
                <g transform="matrix(0.979251,0,0,0.979251,79.6727,90.6592)">
                    <path d="M150.217,545.486L252.336,749.724L48.098,749.724L150.217,545.486Z" style="fill:rgb(25,42,86);"/>
                </g>
            </g>
            <g id="pair62" serif:id="pair" transform="matrix(1,0,0,1,1860.73,-169.737)">
                <g transform="matrix(0.734438,0,0,0.734438,-33.4799,248.994)">
                    <path d="M150.217,545.486L252.336,749.724L48.098,749.724L150.217,545.486Z" style="fill:rgb(25,42,86);"/>
                </g>
                <g transform="matrix(0.979251,0,0,0.979251,79.6727,90.6592)">
                    <path d="M150.217,545.486L252.336,749.724L48.098,749.724L150.217,545.486Z" style="fill:rgb(25,42,86);"/>
                </g>
            </g>
            <g id="pair63" serif:id="pair" transform="matrix(1,0,0,1,660.725,-169.737)">
                <g transform="matrix(0.734438,0,0,0.734438,-33.4799,248.994)">
                    <path d="M150.217,545.486L252.336,749.724L48.098,749.724L150.217,545.486Z" style="fill:rgb(25,42,86);"/>
                </g>
                <g transform="matrix(0.734438,0,0,0.734438,116.448,249.201)">
                    <path d="M150.217,545.486L252.336,749.724L48.098,749.724L150.217,545.486Z" style="fill:rgb(25,42,86);"/>
                </g>
            </g>
        </g>
    </g>
    <g id="_5th-row" serif:id="5th row" transform="matrix(1,-2.44929e-16,2.44929e-16,1,-0.882813,-588.32)">
        <g id="down4" serif:id="down" transform="matrix(-1,1.22465e-16,-1.22465e-16,-1,2099.93,1450.21)">
            <g transform="matrix(0.734438,0,0,0.734438,114.603,249.582)">
                <g id="pair64" serif:id="pair">
                    <path d="M150.217,545.486L252.336,749.724L48.098,749.724L150.217,545.486Z" style="fill:rgb(39,60,117);"/>
                </g>
            </g>
            <g id="pair65" serif:id="pair" transform="matrix(1,0,0,1,298.155,0.380435)">
                <g transform="matrix(0.734438,0,0,0.734438,-33.4799,248.994)">
                    <path d="M150.217,545.486L252.336,749.724L48.098,749.724L150.217,545.486Z" style="fill:rgb(39,60,117);"/>
                </g>
                <g transform="matrix(0.734438,0,0,0.734438,116.448,249.201)">
                    <path d="M150.217,545.486L252.336,749.724L48.098,749.724L150.217,545.486Z" style="fill:rgb(39,60,117);"/>
                </g>
            </g>
            <g id="pair66" serif:id="pair" transform="matrix(1,0,0,1,598.945,-0.621094)">
                <g transform="matrix(0.734438,0,0,0.734438,-33.4799,248.994)">
                    <path d="M150.217,545.486L252.336,749.724L48.098,749.724L150.217,545.486Z" style="fill:rgb(39,60,117);"/>
                </g>
                <g transform="matrix(0.734438,0,0,0.734438,116.448,249.201)">
                    <path d="M150.217,545.486L252.336,749.724L48.098,749.724L150.217,545.486Z" style="fill:rgb(39,60,117);"/>
                </g>
            </g>
            <g id="pair67" serif:id="pair" transform="matrix(1,0,0,1,898.155,0.380435)">
                <g transform="matrix(0.734438,0,0,0.734438,-33.4799,248.994)">
                    <path d="M150.217,545.486L252.336,749.724L48.098,749.724L150.217,545.486Z" style="fill:rgb(39,60,117);"/>
                </g>
                <g transform="matrix(0.734438,0,0,0.734438,116.448,249.201)">
                    <path d="M150.217,545.486L252.336,749.724L48.098,749.724L150.217,545.486Z" style="fill:rgb(39,60,117);"/>
                </g>
            </g>
            <g id="pair68" serif:id="pair" transform="matrix(1,0,0,1,1198.16,0.380435)">
                <g transform="matrix(0.734438,0,0,0.734438,-33.4799,248.994)">
                    <path d="M150.217,545.486L252.336,749.724L48.098,749.724L150.217,545.486Z" style="fill:rgb(39,60,117);"/>
                </g>
                <g transform="matrix(0.734438,0,0,0.734438,116.448,249.201)">
                    <path d="M150.217,545.486L252.336,749.724L48.098,749.724L150.217,545.486Z" style="fill:rgb(39,60,117);"/>
                </g>
            </g>
            <g id="pair69" serif:id="pair" transform="matrix(1,0,0,1,1498.16,0.380435)">
                <g transform="matrix(0.734438,0,0,0.734438,-33.4799,248.994)">
                    <path d="M150.217,545.486L252.336,749.724L48.098,749.724L150.217,545.486Z" style="fill:rgb(39,60,117);"/>
                </g>
                <g transform="matrix(0.734438,0,0,0.734438,116.448,249.201)">
                    <path d="M150.217,545.486L252.336,749.724L48.098,749.724L150.217,545.486Z" style="fill:rgb(39,60,117);"/>
                </g>
            </g>
            <g id="pair70" serif:id="pair" transform="matrix(1,0,0,1,1798.16,0.380435)">
                <g transform="matrix(0.734438,0,0,0.734438,-33.4799,248.994)">
                    <path d="M150.217,545.486L252.336,749.724L48.098,749.724L150.217,545.486Z" style="fill:rgb(39,60,117);"/>
                </g>
                <g transform="matrix(0.734438,0,0,0.734438,116.448,249.201)">
                    <path d="M150.217,545.486L252.336,749.724L48.098,749.724L150.217,545.486Z" style="fill:rgb(39,60,117);"/>
                </g>
            </g>
            <g id="pair71" serif:id="pair" transform="matrix(1,0,0,1,598.155,0.380435)">
                <g transform="matrix(0.734438,0,0,0.734438,-33.4799,248.994)">
                    <path d="M150.217,545.486L252.336,749.724L48.098,749.724L150.217,545.486Z" style="fill:rgb(39,60,117);"/>
                </g>
                <g transform="matrix(0.734438,0,0,0.734438,116.448,249.201)">
                    <path d="M150.217,545.486L252.336,749.724L48.098,749.724L150.217,545.486Z" style="fill:rgb(39,60,117);"/>
                </g>
            </g>
        </g>
        <g id="up4" serif:id="up" transform="matrix(1,0,0,1,-137.602,168.555)">
            <g opacity="0">
                <g id="pair72" serif:id="pair" transform="matrix(1,0,0,1,60.7253,-169.737)">
                    <g transform="matrix(0.734438,0,0,0.734438,-33.4799,248.994)">
                        <path d="M150.217,545.486L252.336,749.724L48.098,749.724L150.217,545.486Z" style="fill:rgb(25,42,86);"/>
                    </g>
                    <g transform="matrix(0.734438,0,0,0.734438,116.448,249.201)">
                        <path d="M150.217,545.486L252.336,749.724L48.098,749.724L150.217,545.486Z" style="fill:rgb(25,42,86);"/>
                    </g>
                </g>
                <g id="pair73" serif:id="pair" transform="matrix(1,0,0,1,360.725,-169.737)">
                    <g transform="matrix(0.734438,0,0,0.734438,-33.4799,248.994)">
                        <path d="M150.217,545.486L252.336,749.724L48.098,749.724L150.217,545.486Z" style="fill:rgb(25,42,86);"/>
                    </g>
                    <g transform="matrix(0.734438,0,0,0.734438,116.448,249.201)">
                        <path d="M150.217,545.486L252.336,749.724L48.098,749.724L150.217,545.486Z" style="fill:rgb(25,42,86);"/>
                    </g>
                </g>
                <g id="pair74" serif:id="pair" transform="matrix(1,0,0,1,661.516,-170.738)">
                    <g transform="matrix(0.734438,0,0,0.734438,-33.4799,248.994)">
                        <path d="M150.217,545.486L252.336,749.724L48.098,749.724L150.217,545.486Z" style="fill:rgb(39,60,117);"/>
                    </g>
                    <g transform="matrix(0.734438,0,0,0.734438,116.448,249.201)">
                        <path d="M150.217,545.486L252.336,749.724L48.098,749.724L150.217,545.486Z" style="fill:rgb(39,60,117);"/>
                    </g>
                </g>
                <g id="pair75" serif:id="pair" transform="matrix(1,0,0,1,960.725,-169.737)">
                    <g transform="matrix(0.734438,0,0,0.734438,-33.4799,248.994)">
                        <path d="M150.217,545.486L252.336,749.724L48.098,749.724L150.217,545.486Z" style="fill:rgb(25,42,86);"/>
                    </g>
                    <g transform="matrix(0.734438,0,0,0.734438,116.448,249.201)">
                        <path d="M150.217,545.486L252.336,749.724L48.098,749.724L150.217,545.486Z" style="fill:rgb(25,42,86);"/>
                    </g>
                </g>
                <g id="pair76" serif:id="pair" transform="matrix(1,0,0,1,1260.73,-169.737)">
                    <g transform="matrix(0.734438,0,0,0.734438,-33.4799,248.994)">
                        <path d="M150.217,545.486L252.336,749.724L48.098,749.724L150.217,545.486Z" style="fill:rgb(25,42,86);"/>
                    </g>
                    <g transform="matrix(0.734438,0,0,0.734438,116.448,249.201)">
                        <path d="M150.217,545.486L252.336,749.724L48.098,749.724L150.217,545.486Z" style="fill:rgb(25,42,86);"/>
                    </g>
                </g>
                <g id="pair77" serif:id="pair" transform="matrix(1,0,0,1,1560.73,-169.737)">
                    <g transform="matrix(0.734438,0,0,0.734438,-33.4799,248.994)">
                        <path d="M150.217,545.486L252.336,749.724L48.098,749.724L150.217,545.486Z" style="fill:rgb(25,42,86);"/>
                    </g>
                    <g transform="matrix(0.734438,0,0,0.734438,116.448,249.201)">
                        <path d="M150.217,545.486L252.336,749.724L48.098,749.724L150.217,545.486Z" style="fill:rgb(25,42,86);"/>
                    </g>
                </g>
                <g id="pair78" serif:id="pair" transform="matrix(1,0,0,1,1860.73,-169.737)">
                    <g transform="matrix(0.734438,0,0,0.734438,-33.4799,248.994)">
                        <path d="M150.217,545.486L252.336,749.724L48.098,749.724L150.217,545.486Z" style="fill:rgb(25,42,86);"/>
                    </g>
                    <g transform="matrix(0.734438,0,0,0.734438,116.448,249.201)">
                        <path d="M150.217,545.486L252.336,749.724L48.098,749.724L150.217,545.486Z" style="fill:rgb(25,42,86);"/>
                    </g>
                </g>
                <g id="pair79" serif:id="pair" transform="matrix(1,0,0,1,660.725,-169.737)">
                    <g transform="matrix(0.734438,0,0,0.734438,-33.4799,248.994)">
                        <path d="M150.217,545.486L252.336,749.724L48.098,749.724L150.217,545.486Z" style="fill:rgb(25,42,86);"/>
                    </g>
                    <g transform="matrix(0.734438,0,0,0.734438,116.448,249.201)">
                        <path d="M150.217,545.486L252.336,749.724L48.098,749.724L150.217,545.486Z" style="fill:rgb(25,42,86);"/>
                    </g>
                </g>
            </g>
        </g>
    </g>
    <g id="top-row" serif:id="top row" transform="matrix(1,-2.44929e-16,2.44929e-16,1,-4.97656,-733.898)">
        <g id="down5" serif:id="down" transform="matrix(-1,1.22465e-16,-1.22465e-16,-1,2099.93,1450.21)">
            <g transform="matrix(0.734438,0,0,0.734438,114.603,249.582)">
                <g id="pair80" serif:id="pair">
                    <path d="M150.217,545.486L252.336,749.724L48.098,749.724L150.217,545.486Z" style="fill:rgb(39,60,117);"/>
                </g>
            </g>
            <g id="pair81" serif:id="pair" transform="matrix(1,0,0,1,298.155,0.380435)">
                <g transform="matrix(0.734438,0,0,0.734438,-33.4799,248.994)">
                    <path d="M150.217,545.486L252.336,749.724L48.098,749.724L150.217,545.486Z" style="fill:rgb(39,60,117);"/>
                </g>
                <g transform="matrix(0.734438,0,0,0.734438,116.448,249.201)">
                    <path d="M150.217,545.486L252.336,749.724L48.098,749.724L150.217,545.486Z" style="fill:rgb(39,60,117);"/>
                </g>
            </g>
            <g id="pair82" serif:id="pair" transform="matrix(1,0,0,1,598.945,-0.621094)">
                <g transform="matrix(0.734438,0,0,0.734438,-33.4799,248.994)">
                    <path d="M150.217,545.486L252.336,749.724L48.098,749.724L150.217,545.486Z" style="fill:rgb(39,60,117);"/>
                </g>
                <g transform="matrix(0.734438,0,0,0.734438,116.448,249.201)">
                    <path d="M150.217,545.486L252.336,749.724L48.098,749.724L150.217,545.486Z" style="fill:rgb(39,60,117);"/>
                </g>
            </g>
            <g id="pair83" serif:id="pair" transform="matrix(1,0,0,1,898.155,0.380435)">
                <g transform="matrix(0.734438,0,0,0.734438,-33.4799,248.994)">
                    <path d="M150.217,545.486L252.336,749.724L48.098,749.724L150.217,545.486Z" style="fill:rgb(39,60,117);"/>
                </g>
                <g transform="matrix(0.734438,0,0,0.734438,116.448,249.201)">
                    <path d="M150.217,545.486L252.336,749.724L48.098,749.724L150.217,545.486Z" style="fill:rgb(39,60,117);"/>
                </g>
            </g>
            <g id="pair84" serif:id="pair" transform="matrix(1,0,0,1,1198.16,0.380435)">
                <g transform="matrix(0.734438,0,0,0.734438,-33.4799,248.994)">
                    <path d="M150.217,545.486L252.336,749.724L48.098,749.724L150.217,545.486Z" style="fill:rgb(39,60,117);"/>
                </g>
                <g transform="matrix(0.734438,0,0,0.734438,116.448,249.201)">
                    <path d="M150.217,545.486L252.336,749.724L48.098,749.724L150.217,545.486Z" style="fill:rgb(39,60,117);"/>
                </g>
            </g>
            <g id="pair85" serif:id="pair" transform="matrix(1,0,0,1,1498.16,0.380435)">
                <g transform="matrix(0.734438,0,0,0.734438,-33.4799,248.994)">
                    <path d="M150.217,545.486L252.336,749.724L48.098,749.724L150.217,545.486Z" style="fill:rgb(39,60,117);"/>
                </g>
                <g transform="matrix(0.734438,0,0,0.734438,116.448,249.201)">
                    <path d="M150.217,545.486L252.336,749.724L48.098,749.724L150.217,545.486Z" style="fill:rgb(39,60,117);"/>
                </g>
            </g>
            <g id="pair86" serif:id="pair" transform="matrix(1,0,0,1,1798.16,0.380435)">
                <g transform="matrix(0.734438,0,0,0.734438,-33.4799,248.994)">
                    <path d="M150.217,545.486L252.336,749.724L48.098,749.724L150.217,545.486Z" style="fill:rgb(39,60,117);"/>
                </g>
                <g transform="matrix(0.734438,0,0,0.734438,116.448,249.201)">
                    <path d="M150.217,545.486L252.336,749.724L48.098,749.724L150.217,545.486Z" style="fill:rgb(39,60,117);"/>
                </g>
            </g>
            <g id="pair87" serif:id="pair" transform="matrix(1,0,0,1,598.155,0.380435)">
                <g transform="matrix(0.734438,0,0,0.734438,-33.4799,248.994)">
                    <path d="M150.217,545.486L252.336,749.724L48.098,749.724L150.217,545.486Z" style="fill:rgb(39,60,117);"/>
                </g>
                <g transform="matrix(0.734438,0,0,0.734438,116.448,249.201)">
                    <path d="M150.217,545.486L252.336,749.724L48.098,749.724L150.217,545.486Z" style="fill:rgb(39,60,117);"/>
                </g>
            </g>
        </g>
        <g id="up5" serif:id="up" transform="matrix(1,0,0,1,-137.602,168.555)">
            <g id="pair88" serif:id="pair" transform="matrix(1,0,0,1,60.7253,-169.737)">
                <g transform="matrix(0.734438,0,0,0.734438,-33.4799,248.994)">
                    <path d="M150.217,545.486L252.336,749.724L48.098,749.724L150.217,545.486Z" style="fill:rgb(25,42,86);"/>
                </g>
                <g transform="matrix(0.734438,0,0,0.734438,116.448,249.201)">
                    <path d="M150.217,545.486L252.336,749.724L48.098,749.724L150.217,545.486Z" style="fill:rgb(25,42,86);"/>
                </g>
            </g>
            <g id="pair89" serif:id="pair" transform="matrix(1,0,0,1,360.725,-169.737)">
                <g transform="matrix(0.734438,0,0,0.734438,-33.4799,248.994)">
                    <path d="M150.217,545.486L252.336,749.724L48.098,749.724L150.217,545.486Z" style="fill:rgb(25,42,86);"/>
                </g>
                <g transform="matrix(0.734438,0,0,0.734438,116.448,249.201)">
                    <path d="M150.217,545.486L252.336,749.724L48.098,749.724L150.217,545.486Z" style="fill:rgb(25,42,86);"/>
                </g>
            </g>
            <g id="pair90" serif:id="pair" transform="matrix(1,0,0,1,661.516,-170.738)">
                <g transform="matrix(0.734438,0,0,0.734438,-33.4799,248.994)">
                    <path d="M150.217,545.486L252.336,749.724L48.098,749.724L150.217,545.486Z" style="fill:rgb(39,60,117);"/>
                </g>
                <g transform="matrix(0.734438,0,0,0.734438,116.448,249.201)">
                    <path d="M150.217,545.486L252.336,749.724L48.098,749.724L150.217,545.486Z" style="fill:rgb(39,60,117);"/>
                </g>
            </g>
            <g id="pair91" serif:id="pair" transform="matrix(1,0,0,1,960.725,-169.737)">
                <g transform="matrix(0.734438,0,0,0.734438,-33.4799,248.994)">
                    <path d="M150.217,545.486L252.336,749.724L48.098,749.724L150.217,545.486Z" style="fill:rgb(25,42,86);"/>
                </g>
                <g transform="matrix(0.734438,0,0,0.734438,116.448,249.201)">
                    <path d="M150.217,545.486L252.336,749.724L48.098,749.724L150.217,545.486Z" style="fill:rgb(25,42,86);"/>
                </g>
            </g>
            <g id="pair92" serif:id="pair" transform="matrix(1,0,0,1,1260.73,-169.737)">
                <g transform="matrix(0.734438,0,0,0.734438,-33.4799,248.994)">
                    <path d="M150.217,545.486L252.336,749.724L48.098,749.724L150.217,545.486Z" style="fill:rgb(25,42,86);"/>
                </g>
                <g transform="matrix(0.734438,0,0,0.734438,116.448,249.201)">
                    <path d="M150.217,545.486L252.336,749.724L48.098,749.724L150.217,545.486Z" style="fill:rgb(25,42,86);"/>
                </g>
            </g>
            <g id="pair93" serif:id="pair" transform="matrix(1,0,0,1,1560.73,-169.737)">
                <g transform="matrix(0.734438,0,0,0.734438,-33.4799,248.994)">
                    <path d="M150.217,545.486L252.336,749.724L48.098,749.724L150.217,545.486Z" style="fill:rgb(25,42,86);"/>
                </g>
                <g transform="matrix(0.734438,0,0,0.734438,116.448,249.201)">
                    <path d="M150.217,545.486L252.336,749.724L48.098,749.724L150.217,545.486Z" style="fill:rgb(25,42,86);"/>
                </g>
            </g>
            <g id="pair94" serif:id="pair" transform="matrix(1,0,0,1,1860.73,-169.737)">
                <g transform="matrix(0.734438,0,0,0.734438,-33.4799,248.994)">
                    <path d="M150.217,545.486L252.336,749.724L48.098,749.724L150.217,545.486Z" style="fill:rgb(25,42,86);"/>
                </g>
                <g transform="matrix(0.734438,0,0,0.734438,116.448,249.201)">
                    <path d="M150.217,545.486L252.336,749.724L48.098,749.724L150.217,545.486Z" style="fill:rgb(25,42,86);"/>
                </g>
            </g>
            <g id="pair95" serif:id="pair" transform="matrix(1,0,0,1,660.725,-169.737)">
                <g transform="matrix(0.734438,0,0,0.734438,-33.4799,248.994)">
                    <path d="M150.217,545.486L252.336,749.724L48.098,749.724L150.217,545.486Z" style="fill:rgb(25,42,86);"/>
                </g>
                <g transform="matrix(0.734438,0,0,0.734438,116.448,249.201)">
                    <path d="M150.217,545.486L252.336,749.724L48.098,749.724L150.217,545.486Z" style="fill:rgb(25,42,86);"/>
                </g>
            </g>
        </g>
    </g>
</svg>
