<svg version="1" id="Layer_1" xmlns="http://www.w3.org/2000/svg" viewBox="0 0 148.9 69.8"><style>.st0{fill-rule:evenodd;clip-rule:evenodd;fill:#fff}</style><path class="st0" d="M15.3 39.7c-3.8 0-7-1.2-9.3-3.4-2.4-2.3-3.7-5.5-3.7-9 0-7.3 5.3-12.5 13.6-12.5 3 0 5.7.7 8.4 2v5.6c-2.7-1.7-5.3-2.6-8-2.6-4.9 0-7.8 2.8-7.8 7.4 0 4.4 2.8 7.4 7.4 7.4 2.9 0 5.8-1 8.7-3v5.6c-3 1.7-6 2.5-9.3 2.5zM31.8 15.3h6.1v9.6h9.8v-9.6h6v24h-6v-9.8h-9.8v9.8h-6.1v-24zM91.6 15.3h10.3c6.4 0 9.6 2.1 9.6 7 0 2.6-1.3 4.5-4.2 5.8 1.2.5 2.1 1.5 2.8 3l3.8 8.2h-6.8l-3.1-6.9c-.9-2.1-3.4-2.9-5.8-2.9h-.7v9.8h-6v-24m13.7 7c0-1.8-1.1-2.8-3.3-2.8h-4.3v5.6h4.3c2.2 0 3.3-.9 3.3-2.8zM119.4 15.3h9c3.8 0 6.9.2 9.9 2.5 3.1 2.3 4.7 5.6 4.7 9.5 0 4.3-2 7.9-5.6 10.2-2.7 1.7-5.5 1.8-9 1.8h-9v-24m6 19.1h4.5c4.1 0 6.9-3 6.9-7.2s-2.8-7.1-6.9-7.1h-4.5v14.3zM41.5 55.7c-1.1.6-2.2.9-3.3.9-1.1 0-2-.3-2.8-.8-1.4-.9-2.2-2.3-2.2-3.9 0-1.2.5-2.4 1.4-3.3 1-.9 2.2-1.4 3.6-1.4 1.3 0 2.3.3 3.1.7v1.4c-1.1-.6-2.1-.9-3.1-.9-2.2 0-3.7 1.5-3.7 3.5s1.5 3.5 3.6 3.5c1.1 0 2.2-.4 3.3-1.1v1.4h.1zM45.9 48.5c.9-.9 2.1-1.4 3.4-1.4 1.3 0 2.5.5 3.4 1.4.9.9 1.4 2.1 1.4 3.4 0 1.2-.5 2.4-1.4 3.3-.9.9-2.1 1.4-3.5 1.4-1.3 0-2.5-.5-3.4-1.4-.9-.9-1.4-2.1-1.4-3.4 0-1.2.5-2.4 1.5-3.3m.9 5.8c.6.7 1.5 1 2.5 1 .9 0 1.8-.3 2.5-1s1-1.5 1-2.5c0-.9-.4-1.8-1-2.5-.7-.7-1.5-1-2.5-1-.9 0-1.8.4-2.5 1s-1 1.5-1 2.5.4 1.8 1 2.5zM57.8 47.3H59l3.3 3.8 3.3-3.8h1.1v9.1h-1.3v-7.1l-3.1 3.6-3.2-3.6v7.1h-1.3v-9.1zM71.5 47.3h3.6c1.9 0 3 1 3 2.6s-1.1 2.6-3 2.6h-2.3v3.9h-1.3v-9.1m3.4 4c1.2 0 1.8-.4 1.8-1.4 0-1-.6-1.4-1.8-1.4h-2.1v2.9h2.1v-.1zM83.7 47.3h1l4 9.1h-1.3l-1.2-2.7h-3.9l-1.2 2.7h-1.3l3.9-9.1m1.9 5.2l-1.4-3.3-1.4 3.3h2.8zM91.9 47.3h1.2l6 7v-7h1.3v9.1h-1.2l-6-7.1v7.1h-1.3v-9.1zM107.1 51.8l-3.6-4.5h1.6l2.6 3.4 2.8-3.4h1.5l-3.6 4.6v4.5h-1.3v-4.6zM142.9 13.7h-.9v2.5h-.6v-2.5h-.9v-.4h2.4v.4m2.2 1.6l.8-2.1h.8v2.9h-.5v-2.4l-.9 2.4h-.3l-.9-2.4v2.4h-.5v-2.9h.8l.7 2.1zM62.3 33.4c-3.5-5.8-1.7-13.5 4.2-17 5.8-3.5 13.5-1.7 17 4.2 3.5 5.8 1.7 13.5-4.2 17s-13.5 1.7-17-4.2zM77.8 32c2.7-2.7 2.7-7.2 0-9.9s-7.2-2.7-9.9 0-2.7 7.2 0 9.9c2.8 2.7 7.2 2.7 9.9 0z"/></svg>