<?xml version="1.0" encoding="UTF-8" standalone="no"?>
<!DOCTYPE svg PUBLIC "-//W3C//DTD SVG 1.1//EN" "http://www.w3.org/Graphics/SVG/1.1/DTD/svg11.dtd">
<svg width="100%" height="100%" viewBox="0 0 152 118" version="1.1" xmlns="http://www.w3.org/2000/svg" xmlns:xlink="http://www.w3.org/1999/xlink" xml:space="preserve" xmlns:serif="http://www.serif.com/" style="fill-rule:evenodd;clip-rule:evenodd;stroke-miterlimit:10;">
    <g transform="matrix(0.862404,0,0,0.862404,10.4229,14.8501)">
        <path d="M148.338,9.043C149.692,7.688 149.692,5.492 148.337,4.137C148.337,4.137 148.336,4.136 148.336,4.136C147.661,3.461 146.745,3.081 145.79,3.081C144.835,3.082 143.92,3.461 143.245,4.136C133.795,13.591 101.26,46.14 101.26,46.14C101.26,46.14 85.188,30.068 78.538,23.418C76.976,21.856 74.444,21.856 72.882,23.418C66.25,30.05 50.25,46.05 50.25,46.05C50.25,46.05 18.164,13.964 8.507,4.307C7.007,2.807 4.573,2.807 3.073,4.307C3.072,4.308 3.072,4.308 3.071,4.309C2.466,4.914 2.126,5.734 2.126,6.59C2.126,7.446 2.466,8.266 3.071,8.871C12.153,17.953 45.25,51.05 45.25,51.05C45.25,51.05 12.605,83.695 3.211,93.089C2.548,93.752 2.175,94.652 2.175,95.59C2.175,96.528 2.548,97.428 3.211,98.091C3.211,98.091 3.212,98.092 3.213,98.093C4.592,99.472 6.828,99.472 8.207,98.093C17.597,88.703 50.25,56.05 50.25,56.05C50.25,56.05 66,71.8 72.764,78.564C74.435,80.235 77.145,80.235 78.817,78.564C85.565,71.819 101.25,56.14 101.25,56.14C101.25,56.14 133.898,88.788 143.234,98.124C144.596,99.486 146.804,99.486 148.166,98.124C148.167,98.123 148.168,98.122 148.168,98.122C149.567,96.723 149.567,94.456 148.169,93.058C138.748,83.636 106.26,51.14 106.26,51.14C106.26,51.14 139.01,18.375 148.338,9.043ZM75.79,71.59L55.25,51.05L75.71,30.59L96.26,51.14L75.79,71.59Z" style="fill-rule:nonzero;stroke:black;stroke-width:1px;"/>
    </g>
    <g transform="matrix(0.862404,0,0,0.862404,10.5925,14.9951)">
        <path d="M123.327,38.249L134.415,27.176C134.415,27.176 139.079,31.847 142.458,35.231C144.35,37.125 144.347,40.194 142.453,42.086C139.196,45.338 134.795,49.733 134.795,49.733L123.327,38.249ZM40.79,51.19L22.79,69.19L22.79,34.38M20.36,33.19L14.36,27.18L15.36,76.19L20.36,71.19M12.79,25.18L6.79,18.18L6.79,53.19L12.79,48.19M6.79,55.19L12.79,50.19L12.79,52.19L6.79,57.19M6.79,59.19L12.79,54.19L12.79,78.19L6.79,84.19M113.791,54.222C111.993,52.486 111.943,49.62 113.679,47.822C116.894,44.492 121.42,39.805 121.42,39.805L133.095,51.08L122.21,62.352C122.21,62.352 117.246,57.558 113.791,54.222ZM123.804,64.272L134.689,53L146.364,64.274C146.364,64.274 142.083,68.707 138.891,72.013C137.006,73.964 133.897,74.019 131.946,72.134C128.51,68.816 123.804,64.272 123.804,64.272Z" style="fill-rule:nonzero;"/>
    </g>
    <g transform="matrix(1,0,0,1,-0.180449,7.95916)">
        <text x="66.342px" y="55.414px" style="font-family:'Arial-Black', 'Arial Black', sans-serif;font-weight:900;font-size:12px;">&lt;/&gt;</text>
    </g>
    <g transform="matrix(1,0,0,1,-6.22319,81.4533)">
        <text x="42.94px" y="15.123px" style="font-family:'Arial-Black', 'Arial Black', sans-serif;font-weight:900;font-size:9.609px;">W<tspan x="52.3px 58.616px " y="15.123px 15.123px ">eb</tspan> De<tspan x="81.864px 87.485px 93.894px " y="15.123px 15.123px 15.123px ">vel</tspan>oper</text>
    </g>
    <g transform="matrix(1,0,0,1,-1.12162,12.4173)">
        <text x="42.94px" y="15.123px" style="font-family:'Arial-Black', 'Arial Black', sans-serif;font-weight:900;font-size:9.609px;">Luk<tspan x="61.839px 68.248px " y="15.123px 15.123px ">e </tspan>Mor<tspan x="91.435px 97.844px " y="15.123px 15.123px ">ga</tspan>n</text>
    </g>
</svg>
