<?xml version="1.0" encoding="UTF-8" standalone="no"?>
<!DOCTYPE svg PUBLIC "-//W3C//DTD SVG 1.1//EN" "http://www.w3.org/Graphics/SVG/1.1/DTD/svg11.dtd">
<svg width="100%" height="100%" viewBox="0 0 152 118" version="1.1" xmlns="http://www.w3.org/2000/svg" xmlns:xlink="http://www.w3.org/1999/xlink" xml:space="preserve" xmlns:serif="http://www.serif.com/" style="fill-rule:evenodd;clip-rule:evenodd;stroke-miterlimit:10;">
    <g transform="matrix(0.862404,0,0,0.862404,10.4229,14.8501)">
        <path d="M150.79,6.59L145.79,1.59L101.26,46.14L75.71,20.59L50.25,46.05L5.79,1.59L0.79,6.59L45.25,51.05L0.71,95.59L5.71,100.59L50.25,56.05L75.79,81.59L101.25,56.14L145.7,100.59L150.7,95.59L106.26,51.14L150.79,6.59ZM75.79,71.59L55.25,51.05L75.71,30.59L96.26,51.14L75.79,71.59Z" style="fill-rule:nonzero;stroke:black;stroke-width:1px;"/>
    </g>
    <g transform="matrix(0.862404,0,0,0.862404,10.5925,14.9951)">
        <path d="M123.327,38.249L134.415,27.176L145.883,38.661L134.795,49.733L123.327,38.249ZM40.79,51.19L22.79,69.19L22.79,34.38M20.36,33.19L14.36,27.18L15.36,76.19L20.36,71.19M12.79,25.18L6.79,18.18L6.79,53.19L12.79,48.19M6.79,55.19L12.79,50.19L12.79,52.19L6.79,57.19M6.79,59.19L12.79,54.19L12.79,78.19L6.79,84.19M110.535,51.078L121.42,39.805L133.095,51.08L122.21,62.352L110.535,51.078ZM123.804,64.272L134.689,53L146.364,64.274L135.479,75.546L123.804,64.272Z" style="fill-rule:nonzero;"/>
    </g>
    <g transform="matrix(1,0,0,1,-0.180449,7.95916)">
        <g transform="matrix(12,0,0,12,66.3416,55.4138)">
            <path d="M0.607,-0.055L0.052,-0.286L0.052,-0.43L0.607,-0.661L0.607,-0.487L0.27,-0.357L0.607,-0.227L0.607,-0.055Z" style="fill-rule:nonzero;"/>
        </g>
        <g transform="matrix(12,0,0,12,74.2635,55.4138)">
            <path d="M0.179,-0.728L0.281,-0.728L0.101,0.012L0,0.012L0.179,-0.728Z" style="fill-rule:nonzero;"/>
        </g>
        <g transform="matrix(12,0,0,12,77.5974,55.4138)">
            <path d="M0.053,-0.055L0.608,-0.286L0.608,-0.43L0.053,-0.661L0.053,-0.487L0.39,-0.357L0.053,-0.227L0.053,-0.055Z" style="fill-rule:nonzero;"/>
        </g>
    </g>
    <g transform="matrix(1,0,0,1,-6.22319,81.4533)">
        <g transform="matrix(9.60891,0,0,9.60891,42.9401,15.1232)">
            <path d="M-0,-0.716L0.209,-0.716L0.285,-0.316L0.396,-0.716L0.605,-0.716L0.716,-0.316L0.792,-0.716L1,-0.716L0.843,-0L0.626,-0L0.5,-0.451L0.375,-0L0.159,-0L-0,-0.716Z" style="fill-rule:nonzero;"/>
        </g>
        <g transform="matrix(9.60891,0,0,9.60891,52.3004,15.1232)">
            <path d="M0.636,-0.21L0.237,-0.21C0.241,-0.178 0.25,-0.154 0.263,-0.139C0.282,-0.116 0.307,-0.105 0.338,-0.105C0.358,-0.105 0.376,-0.11 0.394,-0.12C0.405,-0.126 0.416,-0.137 0.429,-0.152L0.625,-0.134C0.595,-0.082 0.558,-0.045 0.516,-0.022C0.474,0 0.413,0.012 0.334,0.012C0.265,0.012 0.211,0.002 0.172,-0.017C0.132,-0.037 0.1,-0.067 0.074,-0.11C0.048,-0.152 0.035,-0.201 0.035,-0.258C0.035,-0.339 0.061,-0.405 0.113,-0.455C0.165,-0.505 0.237,-0.53 0.328,-0.53C0.402,-0.53 0.461,-0.519 0.504,-0.497C0.547,-0.474 0.58,-0.442 0.602,-0.399C0.625,-0.356 0.636,-0.301 0.636,-0.232L0.636,-0.21ZM0.434,-0.305C0.43,-0.344 0.419,-0.371 0.403,-0.388C0.386,-0.404 0.364,-0.413 0.336,-0.413C0.305,-0.413 0.28,-0.4 0.261,-0.375C0.249,-0.359 0.241,-0.336 0.238,-0.305L0.434,-0.305Z" style="fill-rule:nonzero;"/>
        </g>
        <g transform="matrix(9.60891,0,0,9.60891,58.6156,15.1232)">
            <path d="M0.061,-0.716L0.262,-0.716L0.262,-0.468C0.282,-0.489 0.304,-0.504 0.329,-0.515C0.355,-0.525 0.382,-0.53 0.413,-0.53C0.476,-0.53 0.528,-0.508 0.57,-0.462C0.611,-0.417 0.632,-0.352 0.632,-0.267C0.632,-0.21 0.622,-0.16 0.604,-0.117C0.585,-0.074 0.559,-0.042 0.525,-0.02C0.492,0.001 0.455,0.012 0.414,0.012C0.379,0.012 0.347,0.004 0.318,-0.011C0.297,-0.022 0.273,-0.044 0.247,-0.077L0.247,-0L0.061,-0L0.061,-0.716ZM0.26,-0.261C0.26,-0.216 0.269,-0.184 0.285,-0.164C0.302,-0.144 0.323,-0.134 0.349,-0.134C0.373,-0.134 0.393,-0.144 0.409,-0.163C0.425,-0.183 0.433,-0.216 0.433,-0.263C0.433,-0.304 0.425,-0.334 0.409,-0.353C0.394,-0.372 0.375,-0.382 0.352,-0.382C0.325,-0.382 0.303,-0.372 0.286,-0.352C0.269,-0.332 0.26,-0.301 0.26,-0.261Z" style="fill-rule:nonzero;"/>
        </g>
        <g transform="matrix(9.60891,0,0,9.60891,68.2292,15.1232)">
            <path d="M0.076,-0.716L0.405,-0.716C0.47,-0.716 0.522,-0.707 0.562,-0.689C0.602,-0.672 0.635,-0.647 0.661,-0.614C0.687,-0.581 0.706,-0.543 0.717,-0.499C0.729,-0.455 0.735,-0.409 0.735,-0.36C0.735,-0.284 0.726,-0.225 0.709,-0.182C0.691,-0.14 0.667,-0.105 0.636,-0.076C0.605,-0.048 0.572,-0.029 0.537,-0.02C0.488,-0.007 0.444,-0 0.405,-0L0.076,-0L0.076,-0.716ZM0.297,-0.554L0.297,-0.163L0.352,-0.163C0.398,-0.163 0.431,-0.168 0.45,-0.178C0.47,-0.188 0.485,-0.206 0.496,-0.232C0.507,-0.257 0.513,-0.299 0.513,-0.356C0.513,-0.432 0.5,-0.484 0.476,-0.512C0.451,-0.54 0.41,-0.554 0.353,-0.554L0.297,-0.554Z" style="fill-rule:nonzero;"/>
        </g>
        <g transform="matrix(9.60891,0,0,9.60891,75.7034,15.1232)">
            <path d="M0.636,-0.21L0.237,-0.21C0.241,-0.178 0.25,-0.154 0.263,-0.139C0.282,-0.116 0.307,-0.105 0.338,-0.105C0.358,-0.105 0.376,-0.11 0.394,-0.12C0.405,-0.126 0.416,-0.137 0.429,-0.152L0.625,-0.134C0.595,-0.082 0.558,-0.045 0.516,-0.022C0.474,0 0.413,0.012 0.334,0.012C0.265,0.012 0.211,0.002 0.172,-0.017C0.132,-0.037 0.1,-0.067 0.074,-0.11C0.048,-0.152 0.035,-0.201 0.035,-0.258C0.035,-0.339 0.061,-0.405 0.113,-0.455C0.165,-0.505 0.237,-0.53 0.328,-0.53C0.402,-0.53 0.461,-0.519 0.504,-0.497C0.547,-0.474 0.58,-0.442 0.602,-0.399C0.625,-0.356 0.636,-0.301 0.636,-0.232L0.636,-0.21ZM0.434,-0.305C0.43,-0.344 0.419,-0.371 0.403,-0.388C0.386,-0.404 0.364,-0.413 0.336,-0.413C0.305,-0.413 0.28,-0.4 0.261,-0.375C0.249,-0.359 0.241,-0.336 0.238,-0.305L0.434,-0.305Z" style="fill-rule:nonzero;"/>
        </g>
        <g transform="matrix(9.60891,0,0,9.60891,81.8638,15.1232)">
            <path d="M0.001,-0.519L0.208,-0.519L0.309,-0.19L0.413,-0.519L0.613,-0.519L0.393,-0L0.217,-0L0.001,-0.519Z" style="fill-rule:nonzero;"/>
        </g>
        <g transform="matrix(9.60891,0,0,9.60891,87.4846,15.1232)">
            <path d="M0.636,-0.21L0.237,-0.21C0.241,-0.178 0.25,-0.154 0.263,-0.139C0.282,-0.116 0.307,-0.105 0.338,-0.105C0.358,-0.105 0.376,-0.11 0.394,-0.12C0.405,-0.126 0.416,-0.137 0.429,-0.152L0.625,-0.134C0.595,-0.082 0.558,-0.045 0.516,-0.022C0.474,0 0.413,0.012 0.334,0.012C0.265,0.012 0.211,0.002 0.172,-0.017C0.132,-0.037 0.1,-0.067 0.074,-0.11C0.048,-0.152 0.035,-0.201 0.035,-0.258C0.035,-0.339 0.061,-0.405 0.113,-0.455C0.165,-0.505 0.237,-0.53 0.328,-0.53C0.402,-0.53 0.461,-0.519 0.504,-0.497C0.547,-0.474 0.58,-0.442 0.602,-0.399C0.625,-0.356 0.636,-0.301 0.636,-0.232L0.636,-0.21ZM0.434,-0.305C0.43,-0.344 0.419,-0.371 0.403,-0.388C0.386,-0.404 0.364,-0.413 0.336,-0.413C0.305,-0.413 0.28,-0.4 0.261,-0.375C0.249,-0.359 0.241,-0.336 0.238,-0.305L0.434,-0.305Z" style="fill-rule:nonzero;"/>
        </g>
        <g transform="matrix(9.60891,0,0,9.60891,93.8937,15.1232)">
            <rect x="0.067" y="-0.716" width="0.199" height="0.716" style="fill-rule:nonzero;"/>
        </g>
        <g transform="matrix(9.60891,0,0,9.60891,97.0935,15.1232)">
            <path d="M0.036,-0.258C0.036,-0.337 0.062,-0.402 0.116,-0.453C0.169,-0.505 0.241,-0.53 0.332,-0.53C0.436,-0.53 0.514,-0.5 0.567,-0.44C0.61,-0.391 0.631,-0.332 0.631,-0.261C0.631,-0.181 0.605,-0.116 0.552,-0.065C0.499,-0.014 0.426,0.012 0.333,0.012C0.249,0.012 0.182,-0.009 0.13,-0.052C0.067,-0.104 0.036,-0.173 0.036,-0.258ZM0.235,-0.258C0.235,-0.212 0.244,-0.178 0.263,-0.156C0.282,-0.134 0.305,-0.123 0.333,-0.123C0.362,-0.123 0.386,-0.133 0.404,-0.155C0.422,-0.177 0.432,-0.212 0.432,-0.26C0.432,-0.305 0.422,-0.339 0.404,-0.361C0.385,-0.383 0.362,-0.394 0.335,-0.394C0.306,-0.394 0.282,-0.382 0.263,-0.36C0.244,-0.338 0.235,-0.304 0.235,-0.258Z" style="fill-rule:nonzero;"/>
        </g>
        <g transform="matrix(9.60891,0,0,9.60891,103.503,15.1232)">
            <path d="M0.061,0.197L0.061,-0.519L0.247,-0.519L0.247,-0.442C0.273,-0.474 0.296,-0.496 0.318,-0.507C0.347,-0.523 0.379,-0.53 0.414,-0.53C0.483,-0.53 0.537,-0.504 0.575,-0.451C0.613,-0.398 0.632,-0.332 0.632,-0.254C0.632,-0.168 0.611,-0.102 0.57,-0.056C0.528,-0.011 0.476,0.012 0.413,0.012C0.382,0.012 0.355,0.007 0.329,-0.004C0.304,-0.014 0.282,-0.03 0.262,-0.05L0.262,0.197L0.061,0.197ZM0.26,-0.258C0.26,-0.217 0.269,-0.186 0.286,-0.167C0.303,-0.147 0.325,-0.137 0.352,-0.137C0.375,-0.137 0.394,-0.146 0.41,-0.165C0.425,-0.184 0.433,-0.217 0.433,-0.262C0.433,-0.304 0.425,-0.335 0.409,-0.355C0.392,-0.374 0.373,-0.384 0.349,-0.384C0.324,-0.384 0.303,-0.374 0.286,-0.354C0.269,-0.335 0.26,-0.302 0.26,-0.258Z" style="fill-rule:nonzero;"/>
        </g>
        <g transform="matrix(9.60891,0,0,9.60891,109.912,15.1232)">
            <path d="M0.636,-0.21L0.237,-0.21C0.241,-0.178 0.25,-0.154 0.263,-0.139C0.282,-0.116 0.307,-0.105 0.338,-0.105C0.358,-0.105 0.376,-0.11 0.394,-0.12C0.405,-0.126 0.416,-0.137 0.429,-0.152L0.625,-0.134C0.595,-0.082 0.558,-0.045 0.516,-0.022C0.474,0 0.413,0.012 0.334,0.012C0.265,0.012 0.211,0.002 0.172,-0.017C0.132,-0.037 0.1,-0.067 0.074,-0.11C0.048,-0.152 0.035,-0.201 0.035,-0.258C0.035,-0.339 0.061,-0.405 0.113,-0.455C0.165,-0.505 0.237,-0.53 0.328,-0.53C0.402,-0.53 0.461,-0.519 0.504,-0.497C0.547,-0.474 0.58,-0.442 0.602,-0.399C0.625,-0.356 0.636,-0.301 0.636,-0.232L0.636,-0.21ZM0.434,-0.305C0.43,-0.344 0.419,-0.371 0.403,-0.388C0.386,-0.404 0.364,-0.413 0.336,-0.413C0.305,-0.413 0.28,-0.4 0.261,-0.375C0.249,-0.359 0.241,-0.336 0.238,-0.305L0.434,-0.305Z" style="fill-rule:nonzero;"/>
        </g>
        <g transform="matrix(9.60891,0,0,9.60891,116.321,15.1232)">
            <path d="M0.062,-0.519L0.248,-0.519L0.248,-0.434C0.266,-0.47 0.284,-0.496 0.303,-0.51C0.323,-0.523 0.346,-0.53 0.374,-0.53C0.403,-0.53 0.435,-0.521 0.47,-0.503L0.409,-0.361C0.385,-0.371 0.367,-0.376 0.353,-0.376C0.327,-0.376 0.307,-0.365 0.292,-0.344C0.272,-0.313 0.262,-0.257 0.262,-0.174L0.262,-0L0.062,-0L0.062,-0.519Z" style="fill-rule:nonzero;"/>
        </g>
    </g>
    <g transform="matrix(1,0,0,1,-1.12162,12.4173)">
        <g transform="matrix(9.60891,0,0,9.60891,42.9401,15.1232)">
            <path d="M0.073,-0.716L0.294,-0.716L0.294,-0.176L0.64,-0.176L0.64,-0L0.073,-0L0.073,-0.716Z" style="fill-rule:nonzero;"/>
        </g>
        <g transform="matrix(9.60891,0,0,9.60891,49.3492,15.1232)">
            <path d="M0.606,-0L0.421,-0L0.421,-0.084C0.393,-0.049 0.365,-0.025 0.337,-0.01C0.309,0.004 0.274,0.012 0.233,0.012C0.179,0.012 0.136,-0.005 0.105,-0.037C0.074,-0.07 0.058,-0.12 0.058,-0.188L0.058,-0.519L0.258,-0.519L0.258,-0.233C0.258,-0.201 0.264,-0.178 0.276,-0.164C0.288,-0.15 0.305,-0.144 0.327,-0.144C0.35,-0.144 0.37,-0.153 0.385,-0.171C0.4,-0.189 0.408,-0.222 0.408,-0.269L0.408,-0.519L0.606,-0.519L0.606,-0Z" style="fill-rule:nonzero;"/>
        </g>
        <g transform="matrix(9.60891,0,0,9.60891,55.7583,15.1232)">
            <path d="M0.06,-0.716L0.263,-0.716L0.263,-0.347L0.412,-0.519L0.656,-0.519L0.47,-0.337L0.667,-0L0.443,-0L0.338,-0.208L0.263,-0.135L0.263,-0L0.06,-0L0.06,-0.716Z" style="fill-rule:nonzero;"/>
        </g>
        <g transform="matrix(9.60891,0,0,9.60891,61.8389,15.1232)">
            <path d="M0.636,-0.21L0.237,-0.21C0.241,-0.178 0.25,-0.154 0.263,-0.139C0.282,-0.116 0.307,-0.105 0.338,-0.105C0.358,-0.105 0.376,-0.11 0.394,-0.12C0.405,-0.126 0.416,-0.137 0.429,-0.152L0.625,-0.134C0.595,-0.082 0.558,-0.045 0.516,-0.022C0.474,0 0.413,0.012 0.334,0.012C0.265,0.012 0.211,0.002 0.172,-0.017C0.132,-0.037 0.1,-0.067 0.074,-0.11C0.048,-0.152 0.035,-0.201 0.035,-0.258C0.035,-0.339 0.061,-0.405 0.113,-0.455C0.165,-0.505 0.237,-0.53 0.328,-0.53C0.402,-0.53 0.461,-0.519 0.504,-0.497C0.547,-0.474 0.58,-0.442 0.602,-0.399C0.625,-0.356 0.636,-0.301 0.636,-0.232L0.636,-0.21ZM0.434,-0.305C0.43,-0.344 0.419,-0.371 0.403,-0.388C0.386,-0.404 0.364,-0.413 0.336,-0.413C0.305,-0.413 0.28,-0.4 0.261,-0.375C0.249,-0.359 0.241,-0.336 0.238,-0.305L0.434,-0.305Z" style="fill-rule:nonzero;"/>
        </g>
        <g transform="matrix(9.60891,0,0,9.60891,71.4525,15.1232)">
            <path d="M0.071,-0.716L0.362,-0.716L0.474,-0.28L0.586,-0.716L0.876,-0.716L0.876,-0L0.695,-0L0.695,-0.546L0.555,-0L0.392,-0L0.252,-0.546L0.252,-0L0.071,-0L0.071,-0.716Z" style="fill-rule:nonzero;"/>
        </g>
        <g transform="matrix(9.60891,0,0,9.60891,80.5219,15.1232)">
            <path d="M0.036,-0.258C0.036,-0.337 0.062,-0.402 0.116,-0.453C0.169,-0.505 0.241,-0.53 0.332,-0.53C0.436,-0.53 0.514,-0.5 0.567,-0.44C0.61,-0.391 0.631,-0.332 0.631,-0.261C0.631,-0.181 0.605,-0.116 0.552,-0.065C0.499,-0.014 0.426,0.012 0.333,0.012C0.249,0.012 0.182,-0.009 0.13,-0.052C0.067,-0.104 0.036,-0.173 0.036,-0.258ZM0.235,-0.258C0.235,-0.212 0.244,-0.178 0.263,-0.156C0.282,-0.134 0.305,-0.123 0.333,-0.123C0.362,-0.123 0.386,-0.133 0.404,-0.155C0.422,-0.177 0.432,-0.212 0.432,-0.26C0.432,-0.305 0.422,-0.339 0.404,-0.361C0.385,-0.383 0.362,-0.394 0.335,-0.394C0.306,-0.394 0.282,-0.382 0.263,-0.36C0.244,-0.338 0.235,-0.304 0.235,-0.258Z" style="fill-rule:nonzero;"/>
        </g>
        <g transform="matrix(9.60891,0,0,9.60891,86.931,15.1232)">
            <path d="M0.062,-0.519L0.248,-0.519L0.248,-0.434C0.266,-0.47 0.284,-0.496 0.303,-0.51C0.323,-0.523 0.346,-0.53 0.374,-0.53C0.403,-0.53 0.435,-0.521 0.47,-0.503L0.409,-0.361C0.385,-0.371 0.367,-0.376 0.353,-0.376C0.327,-0.376 0.307,-0.365 0.292,-0.344C0.272,-0.313 0.262,-0.257 0.262,-0.174L0.262,-0L0.062,-0L0.062,-0.519Z" style="fill-rule:nonzero;"/>
        </g>
        <g transform="matrix(9.60891,0,0,9.60891,91.4351,15.1232)">
            <path d="M0.421,-0.519L0.607,-0.519L0.607,-0.029L0.607,-0.006C0.607,0.027 0.601,0.058 0.587,0.087C0.573,0.117 0.554,0.14 0.531,0.159C0.509,0.177 0.479,0.19 0.444,0.198C0.409,0.206 0.368,0.21 0.323,0.21C0.219,0.21 0.147,0.195 0.108,0.164C0.069,0.132 0.05,0.09 0.05,0.038C0.05,0.032 0.05,0.023 0.051,0.012L0.244,0.034C0.249,0.052 0.256,0.064 0.266,0.071C0.281,0.081 0.299,0.086 0.321,0.086C0.35,0.086 0.371,0.078 0.385,0.063C0.4,0.048 0.407,0.021 0.407,-0.017L0.407,-0.096C0.387,-0.073 0.368,-0.056 0.348,-0.045C0.318,-0.029 0.285,-0.021 0.249,-0.021C0.18,-0.021 0.124,-0.051 0.081,-0.112C0.051,-0.155 0.036,-0.212 0.036,-0.282C0.036,-0.363 0.055,-0.424 0.094,-0.467C0.133,-0.509 0.184,-0.53 0.248,-0.53C0.288,-0.53 0.321,-0.523 0.347,-0.51C0.374,-0.496 0.398,-0.473 0.421,-0.442L0.421,-0.519ZM0.234,-0.267C0.234,-0.23 0.242,-0.202 0.258,-0.184C0.274,-0.166 0.295,-0.157 0.321,-0.157C0.346,-0.157 0.366,-0.166 0.383,-0.185C0.4,-0.204 0.408,-0.232 0.408,-0.27C0.408,-0.307 0.399,-0.336 0.382,-0.356C0.364,-0.376 0.343,-0.386 0.317,-0.386C0.292,-0.386 0.272,-0.377 0.257,-0.359C0.241,-0.34 0.234,-0.31 0.234,-0.267Z" style="fill-rule:nonzero;"/>
        </g>
        <g transform="matrix(9.60891,0,0,9.60891,97.8442,15.1232)">
            <path d="M0.241,-0.351L0.051,-0.371C0.058,-0.404 0.069,-0.43 0.082,-0.449C0.096,-0.468 0.115,-0.485 0.141,-0.499C0.159,-0.509 0.184,-0.516 0.216,-0.522C0.248,-0.528 0.282,-0.53 0.319,-0.53C0.379,-0.53 0.427,-0.527 0.463,-0.52C0.499,-0.514 0.529,-0.5 0.553,-0.479C0.57,-0.464 0.583,-0.443 0.593,-0.416C0.603,-0.389 0.608,-0.364 0.608,-0.339L0.608,-0.11C0.608,-0.086 0.609,-0.067 0.613,-0.053C0.616,-0.039 0.622,-0.021 0.633,-0L0.446,-0C0.439,-0.013 0.434,-0.024 0.432,-0.031C0.429,-0.038 0.427,-0.049 0.425,-0.063C0.399,-0.038 0.373,-0.021 0.347,-0.01C0.312,0.005 0.271,0.012 0.225,0.012C0.163,0.012 0.116,-0.003 0.084,-0.031C0.052,-0.06 0.036,-0.095 0.036,-0.137C0.036,-0.177 0.047,-0.209 0.07,-0.234C0.093,-0.26 0.136,-0.279 0.198,-0.291C0.273,-0.306 0.321,-0.316 0.343,-0.323C0.365,-0.329 0.389,-0.336 0.414,-0.346C0.414,-0.371 0.409,-0.388 0.398,-0.397C0.388,-0.407 0.371,-0.412 0.345,-0.412C0.313,-0.412 0.288,-0.407 0.272,-0.396C0.259,-0.388 0.249,-0.373 0.241,-0.351ZM0.414,-0.246C0.386,-0.236 0.358,-0.228 0.328,-0.22C0.288,-0.209 0.262,-0.199 0.251,-0.188C0.24,-0.178 0.235,-0.166 0.235,-0.152C0.235,-0.136 0.24,-0.123 0.251,-0.114C0.262,-0.104 0.278,-0.099 0.299,-0.099C0.321,-0.099 0.342,-0.104 0.361,-0.115C0.38,-0.125 0.394,-0.139 0.402,-0.154C0.41,-0.17 0.414,-0.19 0.414,-0.214L0.414,-0.246Z" style="fill-rule:nonzero;"/>
        </g>
        <g transform="matrix(9.60891,0,0,9.60891,104.253,15.1232)">
            <path d="M0.06,-0.519L0.245,-0.519L0.245,-0.434C0.273,-0.469 0.301,-0.493 0.329,-0.508C0.357,-0.523 0.392,-0.53 0.433,-0.53C0.488,-0.53 0.531,-0.514 0.562,-0.481C0.593,-0.448 0.608,-0.398 0.608,-0.33L0.608,-0L0.409,-0L0.409,-0.285C0.409,-0.318 0.403,-0.341 0.391,-0.354C0.379,-0.368 0.362,-0.375 0.34,-0.375C0.316,-0.375 0.296,-0.365 0.281,-0.347C0.266,-0.329 0.259,-0.296 0.259,-0.249L0.259,-0L0.06,-0L0.06,-0.519Z" style="fill-rule:nonzero;"/>
        </g>
    </g>
</svg>
