<svg data-name="Layer 1" xmlns="http://www.w3.org/2000/svg" viewBox="0 0 151.5 117.87"><path d="M150.79 6.59l-5-5-44.53 44.55-25.55-25.55h0L50.25 46.05 5.79 1.59l-5 5 44.46 44.46L.71 95.59l5 5 44.54-44.54 25.54 25.54h0l25.46-25.45 44.45 44.45 5-5-44.44-44.45zm-75 65L55.25 51.05l20.46-20.46 20.55 20.55z" stroke="#000" stroke-miterlimit="10"/><text transform="translate(65.38 56.33)" font-size="14.14" font-family="NotoSansTC-Regular-83pv-RKSJ-H,Noto Sans TC">&lt;/&gt;</text><text transform="translate(19.19 14.08)" font-family="NotoSansTC-Thin-83pv-RKSJ-H,Noto Sans TC" font-size="16"><tspan letter-spacing="-.02em">L</tspan><tspan x="7.74" y="0">UKE</tspan></text><text transform="translate(63.03 14.1)" font-family="NotoSansTC-Bold-83pv-RKSJ-H,Noto Sans TC" font-size="16">MOR<tspan x="36.9" y="0" letter-spacing="-.01em">G</tspan><tspan x="48.24" y="0">AN</tspan></text><text transform="translate(16.36 102.12)" font-size="15" font-family="NotoSansTC-Thin-83pv-RKSJ-H,Noto Sans TC">WEB</text><text transform="translate(49.36 102.14)" font-size="15" font-family="NotoSansTC-Bold-83pv-RKSJ-H,Noto Sans TC">DEVE<tspan x="38.43" y="0" letter-spacing="-.04em">L</tspan><tspan x="46.51" y="0">OPER</tspan></text><path d="M123.327 38.249l11.088-11.073 11.468 11.485-11.088 11.072zM40.79 51.19l-18 18V34.38m-2.43-1.19l-6-6.01 1 49.01 5-5m-7.57-46.01l-6-7v35.01l6-5m-6 7l6-5v2l-6 5m0 2l6-5v24l-6 6m103.745-33.112l10.885-11.273 11.675 11.275-10.885 11.272zm13.269 13.194L134.689 53l11.675 11.274-10.885 11.272z"/></svg>