<?xml version="1.0" encoding="UTF-8" standalone="no"?>
<!DOCTYPE svg PUBLIC "-//W3C//DTD SVG 1.1//EN" "http://www.w3.org/Graphics/SVG/1.1/DTD/svg11.dtd">
<svg width="100%" height="100%" viewBox="0 0 1920 550" version="1.1" xmlns="http://www.w3.org/2000/svg" xmlns:xlink="http://www.w3.org/1999/xlink" xml:space="preserve" xmlns:serif="http://www.serif.com/" style="fill-rule:evenodd;clip-rule:evenodd;stroke-linejoin:round;stroke-miterlimit:2;">
    <g id="down" transform="matrix(1,0,0,1,0,1)">
        <g transform="matrix(-1.12721,1.38044e-16,-1.38044e-16,-1.12721,203.273,996.593)">
            <path d="M135.904,379.455L211.124,529.895L60.683,529.895L135.904,379.455Z" style="fill:rgb(25,42,86);"/>
        </g>
        <g transform="matrix(-1.12721,1.38044e-16,-1.38044e-16,-1.12721,354.658,996.78)">
            <path d="M135.904,379.455L211.124,529.895L60.683,529.895L135.904,379.455Z" style="fill:rgb(25,42,86);"/>
        </g>
        <g transform="matrix(-1.12721,1.38044e-16,-1.38044e-16,-1.12721,503.283,996.765)">
            <path d="M135.904,379.455L211.124,529.895L60.683,529.895L135.904,379.455Z" style="fill:rgb(25,42,86);"/>
        </g>
        <g transform="matrix(-1.12721,1.38044e-16,-1.38044e-16,-1.12721,652.674,997.041)">
            <path d="M135.904,379.455L211.124,529.895L60.683,529.895L135.904,379.455Z" style="fill:rgb(25,42,86);"/>
        </g>
        <g transform="matrix(-1.12721,1.38044e-16,-1.38044e-16,-1.12721,802.023,997.161)">
            <path d="M135.904,379.455L211.124,529.895L60.683,529.895L135.904,379.455Z" style="fill:rgb(25,42,86);"/>
        </g>
        <g transform="matrix(-1.12721,1.38044e-16,-1.38044e-16,-1.12721,951.596,996.551)">
            <path d="M135.904,379.455L211.124,529.895L60.683,529.895L135.904,379.455Z" style="fill:rgb(25,42,86);"/>
        </g>
        <g transform="matrix(-1.12721,1.38044e-16,-1.38044e-16,-1.12721,1098.83,997.041)">
            <path d="M135.904,379.455L211.124,529.895L60.683,529.895L135.904,379.455Z" style="fill:rgb(25,42,86);"/>
        </g>
        <g transform="matrix(-1.12721,1.38044e-16,-1.38044e-16,-1.12721,1249.75,996.676)">
            <path d="M135.904,379.455L211.124,529.895L60.683,529.895L135.904,379.455Z" style="fill:rgb(25,42,86);"/>
        </g>
        <g transform="matrix(-1.12721,1.38044e-16,-1.38044e-16,-1.12721,1400.95,996.671)">
            <path d="M135.904,379.455L211.124,529.895L60.683,529.895L135.904,379.455Z" style="fill:rgb(25,42,86);"/>
        </g>
        <g transform="matrix(-1.12721,1.38044e-16,-1.38044e-16,-1.12721,1550.2,997.484)">
            <path d="M135.904,379.455L211.124,529.895L60.683,529.895L135.904,379.455Z" style="fill:rgb(25,42,86);"/>
        </g>
        <g transform="matrix(-1.12721,1.38044e-16,-1.38044e-16,-1.12721,1700.54,996.895)">
            <path d="M135.904,379.455L211.124,529.895L60.683,529.895L135.904,379.455Z" style="fill:rgb(25,42,86);"/>
        </g>
        <g transform="matrix(-1.12721,1.38044e-16,-1.38044e-16,-1.12721,1848.29,996.64)">
            <path d="M135.904,379.455L211.124,529.895L60.683,529.895L135.904,379.455Z" style="fill:rgb(25,42,86);"/>
        </g>
        <g transform="matrix(-1.12721,1.38044e-16,-1.38044e-16,-1.12721,1998.44,996.957)">
            <path d="M135.904,379.455L211.124,529.895L60.683,529.895L135.904,379.455Z" style="fill:rgb(25,42,86);"/>
        </g>
    </g>
    <g id="up" transform="matrix(1,0,0,1,-91,1)">
        <g transform="matrix(0.997072,0,0,0.997072,-61.4745,21.4298)">
            <path d="M135.904,379.455L211.124,529.895L60.683,529.895L135.904,379.455Z" style="fill:rgb(39,60,117);"/>
        </g>
        <g transform="matrix(0.997072,0,0,0.997072,89.2086,21.2514)">
            <path d="M135.904,379.455L211.124,529.895L60.683,529.895L135.904,379.455Z" style="fill:rgb(39,60,117);"/>
        </g>
        <g transform="matrix(0.997072,0,0,0.997072,239.607,21.0327)">
            <path d="M135.904,379.455L211.124,529.895L60.683,529.895L135.904,379.455Z" style="fill:rgb(39,60,117);"/>
        </g>
        <g transform="matrix(0.997072,0,0,0.997072,388.602,21.228)">
            <path d="M135.904,379.455L211.124,529.895L60.683,529.895L135.904,379.455Z" style="fill:rgb(39,60,117);"/>
        </g>
        <g transform="matrix(0.997072,0,0,0.997072,537.92,21.7254)">
            <path d="M135.904,379.455L211.124,529.895L60.683,529.895L135.904,379.455Z" style="fill:rgb(39,60,117);"/>
        </g>
        <g transform="matrix(0.997072,0,0,0.997072,687.573,21.5353)">
            <path d="M135.904,379.455L211.124,529.895L60.683,529.895L135.904,379.455Z" style="fill:rgb(39,60,117);"/>
        </g>
        <g transform="matrix(0.997072,0,0,0.997072,836.974,21.6916)">
            <path d="M135.904,379.455L211.124,529.895L60.683,529.895L135.904,379.455Z" style="fill:rgb(39,60,117);"/>
        </g>
        <g transform="matrix(0.997072,0,0,0.997072,985.401,21.4298)">
            <path d="M135.904,379.455L211.124,529.895L60.683,529.895L135.904,379.455Z" style="fill:rgb(39,60,117);"/>
        </g>
        <g transform="matrix(0.997072,0,0,0.997072,1136.08,21.2514)">
            <path d="M135.904,379.455L211.124,529.895L60.683,529.895L135.904,379.455Z" style="fill:rgb(39,60,117);"/>
        </g>
        <g transform="matrix(0.997072,0,0,0.997072,1286.48,21.0327)">
            <path d="M135.904,379.455L211.124,529.895L60.683,529.895L135.904,379.455Z" style="fill:rgb(39,60,117);"/>
        </g>
        <g transform="matrix(0.997072,0,0,0.997072,1435.48,21.228)">
            <path d="M135.904,379.455L211.124,529.895L60.683,529.895L135.904,379.455Z" style="fill:rgb(39,60,117);"/>
        </g>
        <g transform="matrix(0.997072,0,0,0.997072,1584.79,21.7254)">
            <path d="M135.904,379.455L211.124,529.895L60.683,529.895L135.904,379.455Z" style="fill:rgb(39,60,117);"/>
        </g>
        <g transform="matrix(0.997072,0,0,0.997072,1734.45,21.5353)">
            <path d="M135.904,379.455L211.124,529.895L60.683,529.895L135.904,379.455Z" style="fill:rgb(39,60,117);"/>
        </g>
        <g transform="matrix(0.997072,0,0,0.997072,1883.85,21.6916)">
            <path d="M135.904,379.455L211.124,529.895L60.683,529.895L135.904,379.455Z" style="fill:rgb(39,60,117);"/>
        </g>
    </g>
    <g id="down-2" serif:id="down 2" transform="matrix(1,0,0,1,-2,3)">
        <g opacity="0">
            <g transform="matrix(1.12721,-2.76087e-16,2.76087e-16,1.12721,1712.16,-196.15)">
                <path d="M135.904,379.455L211.124,529.895L60.683,529.895L135.904,379.455Z" style="fill:rgb(25,42,86);"/>
            </g>
            <g transform="matrix(1.12721,-2.76087e-16,2.76087e-16,1.12721,1560.77,-196.337)">
                <path d="M135.904,379.455L211.124,529.895L60.683,529.895L135.904,379.455Z" style="fill:rgb(25,42,86);"/>
            </g>
            <g transform="matrix(1.12721,-2.76087e-16,2.76087e-16,1.12721,1412.15,-196.322)">
                <path d="M135.904,379.455L211.124,529.895L60.683,529.895L135.904,379.455Z" style="fill:rgb(25,42,86);"/>
            </g>
            <g transform="matrix(1.12721,-2.76087e-16,2.76087e-16,1.12721,1262.76,-196.598)">
                <path d="M135.904,379.455L211.124,529.895L60.683,529.895L135.904,379.455Z" style="fill:rgb(25,42,86);"/>
            </g>
            <g transform="matrix(1.12721,-2.76087e-16,2.76087e-16,1.12721,1113.41,-196.718)">
                <path d="M135.904,379.455L211.124,529.895L60.683,529.895L135.904,379.455Z" style="fill:rgb(25,42,86);"/>
            </g>
            <g transform="matrix(1.12721,-2.76087e-16,2.76087e-16,1.12721,963.837,-196.108)">
                <path d="M135.904,379.455L211.124,529.895L60.683,529.895L135.904,379.455Z" style="fill:rgb(25,42,86);"/>
            </g>
            <g transform="matrix(1.12721,-2.76087e-16,2.76087e-16,1.12721,816.603,-196.598)">
                <path d="M135.904,379.455L211.124,529.895L60.683,529.895L135.904,379.455Z" style="fill:rgb(25,42,86);"/>
            </g>
            <g transform="matrix(1.12721,-2.76087e-16,2.76087e-16,1.12721,665.681,-196.233)">
                <path d="M135.904,379.455L211.124,529.895L60.683,529.895L135.904,379.455Z" style="fill:rgb(25,42,86);"/>
            </g>
            <g transform="matrix(1.12721,-2.76087e-16,2.76087e-16,1.12721,514.483,-196.228)">
                <path d="M135.904,379.455L211.124,529.895L60.683,529.895L135.904,379.455Z" style="fill:rgb(25,42,86);"/>
            </g>
            <g transform="matrix(1.12721,-2.76087e-16,2.76087e-16,1.12721,365.233,-197.04)">
                <path d="M135.904,379.455L211.124,529.895L60.683,529.895L135.904,379.455Z" style="fill:rgb(25,42,86);"/>
            </g>
            <g transform="matrix(1.12721,-2.76087e-16,2.76087e-16,1.12721,214.895,-196.452)">
                <path d="M135.904,379.455L211.124,529.895L60.683,529.895L135.904,379.455Z" style="fill:rgb(25,42,86);"/>
            </g>
            <g transform="matrix(1.12721,-2.76087e-16,2.76087e-16,1.12721,67.1395,-196.197)">
                <path d="M135.904,379.455L211.124,529.895L60.683,529.895L135.904,379.455Z" style="fill:rgb(25,42,86);"/>
            </g>
            <g transform="matrix(1.12721,-2.76087e-16,2.76087e-16,1.12721,-83.0064,-196.514)">
                <path d="M135.904,379.455L211.124,529.895L60.683,529.895L135.904,379.455Z" style="fill:rgb(25,42,86);"/>
            </g>
        </g>
    </g>
    <g id="up-2" serif:id="up 2" transform="matrix(-1,1.22465e-16,-1.22465e-16,-1,2004.43,803.443)">
        <g transform="matrix(0.997072,0,0,0.997072,-61.4745,21.4298)">
            <path d="M135.904,379.455L211.124,529.895L60.683,529.895L135.904,379.455Z" style="fill:rgb(39,60,117);"/>
        </g>
        <g transform="matrix(0.997072,0,0,0.997072,89.2086,21.2514)">
            <path d="M135.904,379.455L211.124,529.895L60.683,529.895L135.904,379.455Z" style="fill:rgb(39,60,117);"/>
        </g>
        <g transform="matrix(0.997072,0,0,0.997072,239.607,21.0327)">
            <path d="M135.904,379.455L211.124,529.895L60.683,529.895L135.904,379.455Z" style="fill:rgb(39,60,117);"/>
        </g>
        <g transform="matrix(0.997072,0,0,0.997072,388.602,21.228)">
            <path d="M135.904,379.455L211.124,529.895L60.683,529.895L135.904,379.455Z" style="fill:rgb(39,60,117);"/>
        </g>
        <g transform="matrix(0.997072,0,0,0.997072,537.92,21.7254)">
            <path d="M135.904,379.455L211.124,529.895L60.683,529.895L135.904,379.455Z" style="fill:rgb(39,60,117);"/>
        </g>
        <g transform="matrix(0.997072,0,0,0.997072,687.573,21.5353)">
            <path d="M135.904,379.455L211.124,529.895L60.683,529.895L135.904,379.455Z" style="fill:rgb(39,60,117);"/>
        </g>
        <g transform="matrix(0.997072,0,0,0.997072,836.974,21.6916)">
            <path d="M135.904,379.455L211.124,529.895L60.683,529.895L135.904,379.455Z" style="fill:rgb(39,60,117);"/>
        </g>
        <g transform="matrix(0.997072,0,0,0.997072,985.401,21.4298)">
            <path d="M135.904,379.455L211.124,529.895L60.683,529.895L135.904,379.455Z" style="fill:rgb(39,60,117);"/>
        </g>
        <g transform="matrix(0.997072,0,0,0.997072,1136.08,21.2514)">
            <path d="M135.904,379.455L211.124,529.895L60.683,529.895L135.904,379.455Z" style="fill:rgb(39,60,117);"/>
        </g>
        <g transform="matrix(0.997072,0,0,0.997072,1286.48,21.0327)">
            <path d="M135.904,379.455L211.124,529.895L60.683,529.895L135.904,379.455Z" style="fill:rgb(39,60,117);"/>
        </g>
        <g transform="matrix(0.997072,0,0,0.997072,1435.48,21.228)">
            <path d="M135.904,379.455L211.124,529.895L60.683,529.895L135.904,379.455Z" style="fill:rgb(39,60,117);"/>
        </g>
        <g transform="matrix(0.997072,0,0,0.997072,1584.79,21.7254)">
            <path d="M135.904,379.455L211.124,529.895L60.683,529.895L135.904,379.455Z" style="fill:rgb(39,60,117);"/>
        </g>
        <g transform="matrix(0.997072,0,0,0.997072,1734.45,21.5353)">
            <path d="M135.904,379.455L211.124,529.895L60.683,529.895L135.904,379.455Z" style="fill:rgb(39,60,117);"/>
        </g>
        <g transform="matrix(0.997072,0,0,0.997072,1883.85,21.6916)">
            <path d="M135.904,379.455L211.124,529.895L60.683,529.895L135.904,379.455Z" style="fill:rgb(39,60,117);"/>
        </g>
    </g>
    <g id="down-3" serif:id="down 3" transform="matrix(1,0,0,1,-5.34896,-144.719)">
        <g transform="matrix(1.12721,-2.76087e-16,2.76087e-16,1.12721,1712.16,-196.15)">
            <path d="M135.904,379.455L211.124,529.895L60.683,529.895L135.904,379.455Z" style="fill:rgb(25,42,86);"/>
        </g>
        <g transform="matrix(1.12721,-2.76087e-16,2.76087e-16,1.12721,1560.77,-196.337)">
            <path d="M135.904,379.455L211.124,529.895L60.683,529.895L135.904,379.455Z" style="fill:rgb(25,42,86);"/>
        </g>
        <g transform="matrix(1.12721,-2.76087e-16,2.76087e-16,1.12721,1412.15,-196.322)">
            <path d="M135.904,379.455L211.124,529.895L60.683,529.895L135.904,379.455Z" style="fill:rgb(25,42,86);"/>
        </g>
        <g transform="matrix(1.12721,-2.76087e-16,2.76087e-16,1.12721,1262.76,-196.598)">
            <path d="M135.904,379.455L211.124,529.895L60.683,529.895L135.904,379.455Z" style="fill:rgb(25,42,86);"/>
        </g>
        <g transform="matrix(1.12721,-2.76087e-16,2.76087e-16,1.12721,1113.41,-196.718)">
            <path d="M135.904,379.455L211.124,529.895L60.683,529.895L135.904,379.455Z" style="fill:rgb(25,42,86);"/>
        </g>
        <g transform="matrix(1.12721,-2.76087e-16,2.76087e-16,1.12721,963.837,-196.108)">
            <path d="M135.904,379.455L211.124,529.895L60.683,529.895L135.904,379.455Z" style="fill:rgb(25,42,86);"/>
        </g>
        <g transform="matrix(1.12721,-2.76087e-16,2.76087e-16,1.12721,816.603,-196.598)">
            <path d="M135.904,379.455L211.124,529.895L60.683,529.895L135.904,379.455Z" style="fill:rgb(25,42,86);"/>
        </g>
        <g transform="matrix(1.12721,-2.76087e-16,2.76087e-16,1.12721,665.681,-196.233)">
            <path d="M135.904,379.455L211.124,529.895L60.683,529.895L135.904,379.455Z" style="fill:rgb(25,42,86);"/>
        </g>
        <g transform="matrix(1.12721,-2.76087e-16,2.76087e-16,1.12721,514.483,-196.228)">
            <path d="M135.904,379.455L211.124,529.895L60.683,529.895L135.904,379.455Z" style="fill:rgb(25,42,86);"/>
        </g>
        <g transform="matrix(1.12721,-2.76087e-16,2.76087e-16,1.12721,365.233,-197.04)">
            <path d="M135.904,379.455L211.124,529.895L60.683,529.895L135.904,379.455Z" style="fill:rgb(25,42,86);"/>
        </g>
        <g transform="matrix(1.12721,-2.76087e-16,2.76087e-16,1.12721,214.895,-196.452)">
            <path d="M135.904,379.455L211.124,529.895L60.683,529.895L135.904,379.455Z" style="fill:rgb(25,42,86);"/>
        </g>
        <g transform="matrix(1.12721,-2.76087e-16,2.76087e-16,1.12721,67.1395,-196.197)">
            <path d="M135.904,379.455L211.124,529.895L60.683,529.895L135.904,379.455Z" style="fill:rgb(25,42,86);"/>
        </g>
        <g transform="matrix(1.12721,-2.76087e-16,2.76087e-16,1.12721,-83.0064,-196.514)">
            <path d="M135.904,379.455L211.124,529.895L60.683,529.895L135.904,379.455Z" style="fill:rgb(25,42,86);"/>
        </g>
    </g>
    <g id="up-3" serif:id="up 3" transform="matrix(-1,1.22465e-16,-1.22465e-16,-1,2001.08,655.724)">
        <g transform="matrix(0.997072,0,0,0.997072,-61.4745,21.4298)">
            <path d="M135.904,379.455L211.124,529.895L60.683,529.895L135.904,379.455Z" style="fill:rgb(39,60,117);"/>
        </g>
        <g transform="matrix(0.997072,0,0,0.997072,89.2086,21.2514)">
            <path d="M135.904,379.455L211.124,529.895L60.683,529.895L135.904,379.455Z" style="fill:rgb(39,60,117);"/>
        </g>
        <g transform="matrix(0.997072,0,0,0.997072,239.607,21.0327)">
            <path d="M135.904,379.455L211.124,529.895L60.683,529.895L135.904,379.455Z" style="fill:rgb(39,60,117);"/>
        </g>
        <g transform="matrix(0.997072,0,0,0.997072,388.602,21.228)">
            <path d="M135.904,379.455L211.124,529.895L60.683,529.895L135.904,379.455Z" style="fill:rgb(39,60,117);"/>
        </g>
        <g transform="matrix(0.997072,0,0,0.997072,537.92,21.7254)">
            <path d="M135.904,379.455L211.124,529.895L60.683,529.895L135.904,379.455Z" style="fill:rgb(39,60,117);"/>
        </g>
        <g transform="matrix(0.997072,0,0,0.997072,687.573,21.5353)">
            <path d="M135.904,379.455L211.124,529.895L60.683,529.895L135.904,379.455Z" style="fill:rgb(39,60,117);"/>
        </g>
        <g transform="matrix(0.997072,0,0,0.997072,836.974,21.6916)">
            <path d="M135.904,379.455L211.124,529.895L60.683,529.895L135.904,379.455Z" style="fill:rgb(39,60,117);"/>
        </g>
        <g transform="matrix(0.997072,0,0,0.997072,985.401,21.4298)">
            <path d="M135.904,379.455L211.124,529.895L60.683,529.895L135.904,379.455Z" style="fill:rgb(39,60,117);"/>
        </g>
        <g transform="matrix(0.997072,0,0,0.997072,1136.08,21.2514)">
            <path d="M135.904,379.455L211.124,529.895L60.683,529.895L135.904,379.455Z" style="fill:rgb(39,60,117);"/>
        </g>
        <g transform="matrix(0.997072,0,0,0.997072,1286.48,21.0327)">
            <path d="M135.904,379.455L211.124,529.895L60.683,529.895L135.904,379.455Z" style="fill:rgb(39,60,117);"/>
        </g>
        <g transform="matrix(0.997072,0,0,0.997072,1435.48,21.228)">
            <path d="M135.904,379.455L211.124,529.895L60.683,529.895L135.904,379.455Z" style="fill:rgb(39,60,117);"/>
        </g>
        <g transform="matrix(0.997072,0,0,0.997072,1584.79,21.7254)">
            <path d="M135.904,379.455L211.124,529.895L60.683,529.895L135.904,379.455Z" style="fill:rgb(39,60,117);"/>
        </g>
        <g transform="matrix(0.997072,0,0,0.997072,1734.45,21.5353)">
            <path d="M135.904,379.455L211.124,529.895L60.683,529.895L135.904,379.455Z" style="fill:rgb(39,60,117);"/>
        </g>
        <g transform="matrix(0.997072,0,0,0.997072,1883.85,21.6916)">
            <path d="M135.904,379.455L211.124,529.895L60.683,529.895L135.904,379.455Z" style="fill:rgb(39,60,117);"/>
        </g>
    </g>
    <g id="down-4" serif:id="down 4" transform="matrix(1,0,0,1,-5.34896,-144.719)">
        <g transform="matrix(1.12721,-2.76087e-16,2.76087e-16,1.12721,1712.16,-196.15)">
            <path d="M135.904,379.455L211.124,529.895L60.683,529.895L135.904,379.455Z" style="fill:rgb(25,42,86);"/>
        </g>
        <g transform="matrix(1.12721,-2.76087e-16,2.76087e-16,1.12721,1560.77,-196.337)">
            <path d="M135.904,379.455L211.124,529.895L60.683,529.895L135.904,379.455Z" style="fill:rgb(25,42,86);"/>
        </g>
        <g transform="matrix(1.12721,-2.76087e-16,2.76087e-16,1.12721,1412.15,-196.322)">
            <path d="M135.904,379.455L211.124,529.895L60.683,529.895L135.904,379.455Z" style="fill:rgb(25,42,86);"/>
        </g>
        <g transform="matrix(1.12721,-2.76087e-16,2.76087e-16,1.12721,1262.76,-196.598)">
            <path d="M135.904,379.455L211.124,529.895L60.683,529.895L135.904,379.455Z" style="fill:rgb(25,42,86);"/>
        </g>
        <g transform="matrix(1.12721,-2.76087e-16,2.76087e-16,1.12721,1113.41,-196.718)">
            <path d="M135.904,379.455L211.124,529.895L60.683,529.895L135.904,379.455Z" style="fill:rgb(25,42,86);"/>
        </g>
        <g transform="matrix(1.12721,-2.76087e-16,2.76087e-16,1.12721,963.837,-196.108)">
            <path d="M135.904,379.455L211.124,529.895L60.683,529.895L135.904,379.455Z" style="fill:rgb(25,42,86);"/>
        </g>
        <g transform="matrix(1.12721,-2.76087e-16,2.76087e-16,1.12721,816.603,-196.598)">
            <path d="M135.904,379.455L211.124,529.895L60.683,529.895L135.904,379.455Z" style="fill:rgb(25,42,86);"/>
        </g>
        <g transform="matrix(1.12721,-2.76087e-16,2.76087e-16,1.12721,665.681,-196.233)">
            <path d="M135.904,379.455L211.124,529.895L60.683,529.895L135.904,379.455Z" style="fill:rgb(25,42,86);"/>
        </g>
        <g transform="matrix(1.12721,-2.76087e-16,2.76087e-16,1.12721,514.483,-196.228)">
            <path d="M135.904,379.455L211.124,529.895L60.683,529.895L135.904,379.455Z" style="fill:rgb(25,42,86);"/>
        </g>
        <g transform="matrix(1.12721,-2.76087e-16,2.76087e-16,1.12721,365.233,-197.04)">
            <path d="M135.904,379.455L211.124,529.895L60.683,529.895L135.904,379.455Z" style="fill:rgb(25,42,86);"/>
        </g>
        <g transform="matrix(1.12721,-2.76087e-16,2.76087e-16,1.12721,214.895,-196.452)">
            <path d="M135.904,379.455L211.124,529.895L60.683,529.895L135.904,379.455Z" style="fill:rgb(25,42,86);"/>
        </g>
        <g transform="matrix(1.12721,-2.76087e-16,2.76087e-16,1.12721,67.1395,-196.197)">
            <path d="M135.904,379.455L211.124,529.895L60.683,529.895L135.904,379.455Z" style="fill:rgb(25,42,86);"/>
        </g>
        <g transform="matrix(1.12721,-2.76087e-16,2.76087e-16,1.12721,-83.0064,-196.514)">
            <path d="M135.904,379.455L211.124,529.895L60.683,529.895L135.904,379.455Z" style="fill:rgb(25,42,86);"/>
        </g>
    </g>
    <g id="up-4" serif:id="up 4" transform="matrix(-1,1.22465e-16,-1.22465e-16,-1,2010.82,549.37)">
        <g transform="matrix(0.997072,0,0,0.997072,-61.4745,21.4298)">
            <path d="M135.904,379.455L211.124,529.895L60.683,529.895L135.904,379.455Z" style="fill:rgb(39,60,117);"/>
        </g>
        <g transform="matrix(0.997072,0,0,0.997072,89.2086,21.2514)">
            <path d="M135.904,379.455L211.124,529.895L60.683,529.895L135.904,379.455Z" style="fill:rgb(39,60,117);"/>
        </g>
        <g transform="matrix(0.997072,0,0,0.997072,239.607,21.0327)">
            <path d="M135.904,379.455L211.124,529.895L60.683,529.895L135.904,379.455Z" style="fill:rgb(39,60,117);"/>
        </g>
        <g transform="matrix(0.997072,0,0,0.997072,388.602,21.228)">
            <path d="M135.904,379.455L211.124,529.895L60.683,529.895L135.904,379.455Z" style="fill:rgb(39,60,117);"/>
        </g>
        <g transform="matrix(0.997072,0,0,0.997072,537.92,21.7254)">
            <path d="M135.904,379.455L211.124,529.895L60.683,529.895L135.904,379.455Z" style="fill:rgb(39,60,117);"/>
        </g>
        <g transform="matrix(0.997072,0,0,0.997072,687.573,21.5353)">
            <path d="M135.904,379.455L211.124,529.895L60.683,529.895L135.904,379.455Z" style="fill:rgb(39,60,117);"/>
        </g>
        <g transform="matrix(0.997072,0,0,0.997072,836.974,21.6916)">
            <path d="M135.904,379.455L211.124,529.895L60.683,529.895L135.904,379.455Z" style="fill:rgb(39,60,117);"/>
        </g>
        <g transform="matrix(0.997072,0,0,0.997072,985.401,21.4298)">
            <path d="M135.904,379.455L211.124,529.895L60.683,529.895L135.904,379.455Z" style="fill:rgb(39,60,117);"/>
        </g>
        <g transform="matrix(0.997072,0,0,0.997072,1136.08,21.2514)">
            <path d="M135.904,379.455L211.124,529.895L60.683,529.895L135.904,379.455Z" style="fill:rgb(39,60,117);"/>
        </g>
        <g transform="matrix(0.997072,0,0,0.997072,1286.48,21.0327)">
            <path d="M135.904,379.455L211.124,529.895L60.683,529.895L135.904,379.455Z" style="fill:rgb(39,60,117);"/>
        </g>
        <g transform="matrix(0.997072,0,0,0.997072,1435.48,21.228)">
            <path d="M135.904,379.455L211.124,529.895L60.683,529.895L135.904,379.455Z" style="fill:rgb(39,60,117);"/>
        </g>
        <g transform="matrix(0.997072,0,0,0.997072,1584.79,21.7254)">
            <path d="M135.904,379.455L211.124,529.895L60.683,529.895L135.904,379.455Z" style="fill:rgb(39,60,117);"/>
        </g>
        <g transform="matrix(0.997072,0,0,0.997072,1734.45,21.5353)">
            <path d="M135.904,379.455L211.124,529.895L60.683,529.895L135.904,379.455Z" style="fill:rgb(39,60,117);"/>
        </g>
        <g transform="matrix(0.997072,0,0,0.997072,1883.85,21.6916)">
            <path d="M135.904,379.455L211.124,529.895L60.683,529.895L135.904,379.455Z" style="fill:rgb(39,60,117);"/>
        </g>
    </g>
</svg>
