<?xml version="1.0" encoding="utf-8"?>
<!-- Generator: Adobe Illustrator 20.0.0, SVG Export Plug-In . SVG Version: 6.00 Build 0)  -->
<svg version="1.1" id="Layer_1" xmlns="http://www.w3.org/2000/svg" xmlns:xlink="http://www.w3.org/1999/xlink" x="0px" y="0px"
	 viewBox="0 0 150 90" style="enable-background:new 0 0 150 90;" xml:space="preserve">
<g id="Border">
	<path d="M133,76H17V15h116V76z M19,74h112V17H19V74z"/>
</g>
<g>
	<path d="M46.9,64.2h-8.2V32.6H28.3v-6.8h29v6.8H46.9V64.2z"/>
	<path d="M93.5,64.2h-9.9l-3-3c-3.3,2.3-7.1,3.5-11.4,3.5c-4.3,0-7.7-1-10.2-2.9c-2.5-2-3.8-4.6-3.8-8c0-2.4,0.5-4.4,1.6-6.1
		c1.1-1.7,2.9-3.3,5.5-4.7c-1.3-1.5-2.3-3-2.9-4.3c-0.6-1.4-0.9-2.9-0.9-4.5c0-2.7,1-4.8,3.1-6.4c2-1.6,4.8-2.4,8.2-2.4
		c3.3,0,5.9,0.8,7.8,2.3c2,1.5,2.9,3.5,2.9,6.1c0,2.1-0.6,4-1.8,5.7c-1.2,1.7-3.2,3.4-5.9,4.9l7.5,7.3c1.2-2.1,2.3-4.7,3.2-7.9h8.4
		c-0.6,2.4-1.5,4.7-2.6,6.9c-1.1,2.3-2.4,4.2-3.8,6L93.5,64.2z M63.7,53.1c0,1.5,0.6,2.7,1.7,3.6c1.1,0.9,2.6,1.3,4.4,1.3
		c2.2,0,4.2-0.5,6-1.6l-8.7-8.7c-1,0.8-1.8,1.6-2.4,2.4C63.9,51,63.7,52,63.7,53.1z M73.1,34.4c0-0.9-0.3-1.7-0.9-2.2
		c-0.6-0.5-1.4-0.8-2.4-0.8c-1.2,0-2.1,0.3-2.8,0.8c-0.7,0.6-1,1.4-1,2.4c0,1.5,0.8,3.2,2.5,5.1c1.5-0.8,2.7-1.7,3.5-2.5
		C72.7,36.5,73.1,35.5,73.1,34.4z"/>
	<path d="M104.9,41.6l8-15.8h8.8l-12.8,23.5v15h-8.1V49.5L88.1,25.8h8.8L104.9,41.6z"/>
</g>
</svg>
