<svg version="1.1" id="Layer_1" xmlns="http://www.w3.org/2000/svg" x="0" y="0" viewBox="0 0 123.5 99.5" xml:space="preserve"><style>.st0{stroke:#000;stroke-miterlimit:10}.st2{font-size:8.4px}.st3{font-family:&apos;NotoSansTC-Bold-83pv-RKSJ-H&apos;}.st4{font-size:11.76px}.st5{font-family:&apos;NotoSansTC-Thin-83pv-RKSJ-H&apos;}</style><path transform="rotate(-45.001 57.034 53.561)" class="st0" d="M54.9 22.1h4.2v63h-4.2z"/><path transform="rotate(-45.001 98.609 53.558)" class="st0" d="M67.1 51.5h63v4.2h-63z"/><path transform="rotate(-45.001 98.556 53.554)" class="st0" d="M96.5 22.1h4.2v63h-4.2z"/><path transform="rotate(-45.001 56.99 53.566)" class="st0" d="M25.5 51.5h63v4.2h-63z"/><path class="st0" d="M49.5 95.2L28.7 74.4l20.8-20.8-3-3-20.8 20.8L4.9 50.7 2 53.6l20.7 20.8L2 95.1l2.9 3 20.8-20.7 20.8 20.8z"/><path class="st0" d="M49.5 53.6L28.7 32.8l20.8-20.7-3-3-20.8 20.8L4.9 9 2 12l20.8 20.8L2 53.6l2.9 3 20.8-20.8 20.8 20.7z"/><text transform="translate(71.644 56.37)" class="st2" font-family="NotoSansTC-Regular-83pv-RKSJ-H">&lt;/&gt;</text><text transform="translate(47.694 89.22)" class="st3 st4">DEVE</text><text transform="translate(79.034 89.22)" class="st3 st4">L</text><text transform="translate(85.684 89.22)" class="st3 st4">OPER</text><text transform="rotate(-44.55 45.308 -16.472)" class="st5 st4">L</text><text transform="rotate(-44.55 42.168 -24.138)" class="st5 st4">UKE</text><text transform="translate(49.164 27.16)" class="st3 st4">MOR</text><text transform="translate(78.034 27.16)" class="st3 st4">G</text><text transform="translate(86.964 27.16)" class="st3 st4">AN</text><text transform="translate(48.554 78)" class="st5 st2">WEB</text></svg>